<?xml version="1.0" standalone="no"?>
<!DOCTYPE svg PUBLIC "-//W3C//DTD SVG 1.1//EN" "http://www.w3.org/Graphics/SVG/1.1/DTD/svg11.dtd" >
<svg xmlns="http://www.w3.org/2000/svg" xmlns:xlink="http://www.w3.org/1999/xlink" version="1.1">
<metadata>
Created by FontForge 20190801 at Mon Feb 17 23:35:37 2020
 By www-data
Copyright (c) 2019 by Alfredo Marco Pradil. All rights reserved.
</metadata>
<defs>
<font id="HKGroteskSemiBold" horiz-adv-x="0" >
  <font-face 
    font-family="HKGroteskSemiBold"
    font-weight="600"
    font-stretch="normal"
    units-per-em="1000"
    panose-1="0 0 7 0 0 0 0 0 0 0"
    ascent="800"
    descent="-200"
    x-height="493"
    cap-height="697"
    bbox="-722 -257 1304 1126"
    underline-thickness="43"
    underline-position="-120"
    unicode-range="U+0020-FB02"
  />
<missing-glyph horiz-adv-x="593" 
d="M93 0v473h408v-473h-408zM130 37h333v398h-333v-398z" />
    <glyph glyph-name="fi" unicode="fi" horiz-adv-x="540" 
d="M466 493v-493h-103v410h-169v-410h-103v410h-82v83h82v37q0 82 57 129t141 47q101 0 178 -49l-48 -73q-55 39 -125 39q-100 0 -100 -95v-35h272z" />
    <glyph glyph-name="fl" unicode="fl" horiz-adv-x="584" 
d="M484 -9q-103 0 -103 112v500q-40 20 -90 20q-98 0 -98 -95v-35h103l-1 -83h-102v-410h-103v410h-81v83h81v37q0 82 56.5 129t139.5 47q58 0 98 -10t100 -40v-531q0 -40 38 -40q20 0 42 7v-87q-49 -14 -80 -14z" />
    <glyph glyph-name="f_f" unicode="ff" horiz-adv-x="607" 
d="M91 0v410h-82v83h82v38q0 80 58.5 127.5t143.5 47.5q72 0 127 -33q44 33 104 33q45 0 85 -19l-34 -85q-21 12 -42 12q-60 0 -60 -63v-58h130v-83h-130v-410h-103v410h-176v-410h-103zM194 493h177v69q0 25 7 42q-35 19 -80 19q-51 0 -77.5 -25t-26.5 -68v-37z" />
    <glyph glyph-name="f_f_i" unicode="ffi" horiz-adv-x="825" 
d="M91 0v410h-82v83h82v38q0 80 58.5 127.5t143.5 47.5q79 0 141 -41q53 41 133 41q103 0 178 -49l-48 -73q-56 39 -125 39q-99 0 -99 -95v-35h278v-493h-103v410h-175v-410h-103v410h-176v-410h-103zM194 493h176v37q0 40 15 70q-38 23 -87 23q-51 0 -77.5 -25t-26.5 -68
v-37z" />
    <glyph glyph-name="f_f_l" unicode="ffl" horiz-adv-x="852" 
d="M750 -9q-102 0 -102 106v511q-38 15 -76 15q-99 0 -99 -95v-35h100v-83h-100v-410h-103v410h-176v-410h-103v410h-82v83h82v38q0 80 58.5 127.5t143.5 47.5q81 0 140 -40q55 40 134 40q102 0 184 -52v-529q0 -40 38 -40q20 0 42 7v-87q-51 -14 -81 -14zM194 493h176v37
q0 40 14 70q-36 23 -86 23q-51 0 -77.5 -25t-26.5 -68v-37z" />
    <glyph glyph-name="H_d_c_o.liga" unicode="Hdco" horiz-adv-x="853" 
d="M426 -10q-157 0 -267.5 111t-110.5 267t110.5 267t267.5 111t267.5 -111t110.5 -267t-110.5 -267t-267.5 -111zM426 26q142 0 242 100.5t100 241.5t-100 241.5t-242 100.5t-242 -100.5t-100 -241.5t100 -241.5t242 -100.5zM210 217q-8 0 -13 5.5t-5 12.5v265q0 8 5 13
t13 5t13 -5t5 -13v-265q0 -7 -5 -12.5t-13 -5.5zM426 217q-8 0 -13 5.5t-5 12.5v265q0 8 5 13t13 5t13 -5t5 -13v-265q0 -7 -5 -12.5t-13 -5.5zM644 217q-8 0 -13 5l-145 134q-5 4 -5 12q0 7 5 12l143 131q7 7 14 7q6 0 11.5 -4.5t5.5 -12.5q0 -7 -5 -12l-132 -121l132 -122
q5 -5 5 -12q0 -6 -4.5 -11.5t-11.5 -5.5zM282 350q-8 0 -13 5t-5 13t5 13t13 5h72q8 0 13 -5t5 -13t-5 -13t-13 -5h-72z" />
    <glyph glyph-name="h_d_c_o.liga" unicode="hdco" horiz-adv-x="853" 
d="M426 -10q-157 0 -267.5 111t-110.5 267t110.5 267t267.5 111t267.5 -111t110.5 -267t-110.5 -267t-267.5 -111zM426 26q142 0 242 100.5t100 241.5t-100 241.5t-242 100.5t-242 -100.5t-100 -241.5t100 -241.5t242 -100.5zM210 217q-8 0 -13 5.5t-5 12.5v265q0 8 5 13
t13 5t13 -5t5 -13v-265q0 -7 -5 -12.5t-13 -5.5zM426 217q-8 0 -13 5.5t-5 12.5v265q0 8 5 13t13 5t13 -5t5 -13v-265q0 -7 -5 -12.5t-13 -5.5zM644 217q-8 0 -13 5l-145 134q-5 4 -5 12q0 7 5 12l143 131q7 7 14 7q6 0 11.5 -4.5t5.5 -12.5q0 -7 -5 -12l-132 -121l132 -122
q5 -5 5 -12q0 -6 -4.5 -11.5t-11.5 -5.5zM282 350q-8 0 -13 5t-5 13t5 13t13 5h72q8 0 13 -5t5 -13t-5 -13t-13 -5h-72z" />
    <glyph glyph-name="hyphen_greater.liga" unicode="&#x2d;&#x3e;" horiz-adv-x="1095" 
d="M543 9l-34 69l327 184l-836 -1v77h836l-327 183l34 69l522 -290z" />
    <glyph glyph-name="less_hyphen.liga" unicode="&#x3c;&#x2d;" horiz-adv-x="1095" 
d="M552 9l-522 291l522 290l34 -69l-327 -183h836v-77l-836 1l327 -184z" />
    <glyph glyph-name=".notdef" horiz-adv-x="593" 
d="M93 0v473h408v-473h-408zM130 37h333v398h-333v-398z" />
    <glyph glyph-name=".null" 
 />
    <glyph glyph-name="nonmarkingreturn" horiz-adv-x="333" 
 />
    <glyph glyph-name="space" unicode=" " horiz-adv-x="253" 
 />
    <glyph glyph-name="exclam" unicode="!" horiz-adv-x="314" 
d="M118 206l-12 491h102l-12 -491h-78zM98 0v123h117v-123h-117z" />
    <glyph glyph-name="quotedbl" unicode="&#x22;" horiz-adv-x="438" 
d="M92 438v259h87v-259h-87zM259 438v259h87v-259h-87z" />
    <glyph glyph-name="numbersign" unicode="#" horiz-adv-x="687" 
d="M118 0l44 206h-118v74h133l31 148h-122v77h138l44 192h82l-43 -196h139l42 196h81l-44 -196h118v-73h-134l-31 -148h125v-74h-141l-44 -206h-81l44 206h-140l-42 -206h-81zM259 280h139l30 148h-139z" />
    <glyph glyph-name="dollar" unicode="$" horiz-adv-x="600" 
d="M545 196q0 -84 -51.5 -139t-139.5 -66v-107l-94 -1v109q-84 13 -141 66.5t-70 134.5l107 26q7 -64 48.5 -100t106.5 -36q59 0 93 28t34 76q0 43 -32.5 72t-115.5 61q-108 41 -151.5 86.5t-43.5 118.5q0 72 44.5 121t119.5 60v102h94v-102q107 -19 160 -118l-89 -55
q-40 82 -122 82q-43 0 -71.5 -25.5t-28.5 -61.5q0 -38 31.5 -64.5t113.5 -57.5q112 -43 155 -89.5t43 -120.5z" />
    <glyph glyph-name="percent" unicode="%" horiz-adv-x="719" 
d="M190 387q-64 0 -102.5 45.5t-38.5 113.5t38 114t100 46q60 0 99.5 -46t39.5 -115q0 -67 -38.5 -112.5t-97.5 -45.5zM117 0l412 697h73l-411 -697h-74zM190 457q29 0 47.5 25t18.5 63q0 40 -19 65.5t-50 25.5q-33 0 -50.5 -25t-17.5 -65q0 -39 18.5 -64t52.5 -25zM533 -9
q-64 0 -102 46t-38 114t37.5 113.5t99.5 45.5q61 0 100.5 -45.5t39.5 -114.5q0 -68 -39 -113.5t-98 -45.5zM533 61q30 0 48.5 25t18.5 64q0 40 -19 65t-51 25q-31 0 -49 -25t-18 -64q0 -40 18.5 -65t51.5 -25z" />
    <glyph glyph-name="ampersand" unicode="&#x26;" horiz-adv-x="688" 
d="M649 29l-73 -64l-92 105q-90 -80 -212 -80q-98 0 -161 46t-63 126q0 72 43.5 120.5t121.5 92.5q-86 89 -86 167q0 72 57 117.5t132 45.5t127.5 -47t52.5 -115q0 -60 -36 -103t-100 -84l118 -133q24 56 25 119l100 -11q-6 -104 -57 -186zM227 540q0 -42 67 -121
q52 31 79.5 58.5t27.5 63.5q0 35 -23 59t-61 24t-64 -22.5t-26 -61.5zM269 78q91 0 154 63l-145 167q-63 -37 -96.5 -70.5t-33.5 -77.5q0 -40 33 -61t88 -21z" />
    <glyph glyph-name="quotesingle" unicode="'" horiz-adv-x="271" 
d="M92 452v245h87v-245h-87z" />
    <glyph glyph-name="parenleft" unicode="(" horiz-adv-x="283" 
d="M176 -52q-55 58 -88 173t-33 227q0 263 119 400h93q-130 -161 -130 -402q0 -125 31.5 -219t97.5 -179h-90z" />
    <glyph glyph-name="parenright" unicode=")" horiz-adv-x="283" 
d="M107 -52h-90q66 85 97.5 179t31.5 219q0 241 -130 402h93q119 -137 119 -400q0 -112 -33 -227t-88 -173z" />
    <glyph glyph-name="asterisk" unicode="*" horiz-adv-x="431" 
d="M161 413l-67 47l76 82l-109 17l26 77l100 -43l-14 104h83l-14 -104l100 43l26 -77l-110 -17l76 -82l-67 -47l-54 106z" />
    <glyph glyph-name="plus" unicode="+" horiz-adv-x="604" 
d="M260 54v212h-212v86h212v211h86v-211h211v-86h-211v-212h-86z" />
    <glyph glyph-name="comma" unicode="," horiz-adv-x="317" 
d="M71 -151l74 281h122l-128 -281h-68z" />
    <glyph glyph-name="hyphen" unicode="-" horiz-adv-x="429" 
d="M74 261v77h281v-77h-281z" />
    <glyph glyph-name="period" unicode="." horiz-adv-x="323" 
d="M106 0v123h111v-123h-111z" />
    <glyph glyph-name="slash" unicode="/" horiz-adv-x="440" 
d="M-10 -212l362 909h97l-362 -909h-97z" />
    <glyph glyph-name="zero" unicode="0" horiz-adv-x="580" 
d="M295 -10q-236 0 -236 358q0 360 229 360q66 0 113.5 -30.5t72.5 -83.5t36.5 -114t11.5 -133t-11 -132t-35.5 -112.5t-70.5 -82.5t-110 -30zM292 89q39 0 64 21.5t36.5 62t15.5 80.5t4 96q0 57 -4 97.5t-16 80.5t-38 61t-66 21q-33 0 -56.5 -15.5t-36 -38.5t-20 -60.5
t-9 -69t-1.5 -77.5q0 -45 2 -76t9 -68.5t20 -60.5t37.5 -38.5t58.5 -15.5z" />
    <glyph glyph-name="one" unicode="1" horiz-adv-x="580" 
d="M285 697h103v-697h-103v498h-167v89h101q34 0 50 14.5t16 47.5v48z" />
    <glyph glyph-name="two" unicode="2" horiz-adv-x="580" 
d="M222 97h311v-97h-486v87q51 31 90 57.5t92 69.5t87 82.5t59 90t25 99.5q0 56 -29 88.5t-85 32.5q-66 0 -97.5 -45t-33.5 -113l-101 8q0 104 62.5 176.5t170.5 72.5q96 0 156 -58.5t60 -155.5q0 -114 -81.5 -217.5t-199.5 -177.5z" />
    <glyph glyph-name="three" unicode="3" horiz-adv-x="580" 
d="M285 -10q-110 0 -182.5 59t-72.5 167l102 6q0 -63 43 -98t112 -35q64 0 106 31.5t42 92.5q0 30 -12 51.5t-28.5 32.5t-43.5 17.5t-48 8t-50 1.5v83q145 0 145 101q0 49 -31.5 74.5t-80.5 25.5q-55 0 -87.5 -29t-33.5 -82l-101 7q0 93 63 148t157 55q90 0 153.5 -51
t63.5 -136q0 -48 -23 -86t-66 -58q60 -16 93 -62.5t33 -110.5q0 -99 -73 -156t-180 -57z" />
    <glyph glyph-name="four" unicode="4" horiz-adv-x="580" 
d="M451 263h112v-98h-112v-165h-103v165h-333v63l345 469h91v-434zM146 263h202v283z" />
    <glyph glyph-name="five" unicode="5" horiz-adv-x="580" 
d="M304 475q101 0 167 -68.5t66 -165.5q0 -102 -72 -176t-179 -74q-96 0 -164.5 59.5t-82.5 147.5l102 17q7 -53 45.5 -89.5t99.5 -36.5q66 0 104 45t38 107q0 59 -35.5 98.5t-102.5 39.5q-84 0 -131 -72l-98 25l65 365h379v-99h-294l-30 -162q53 39 123 39z" />
    <glyph glyph-name="six" unicode="6" horiz-adv-x="580" 
d="M320 464q97 -4 158 -70.5t61 -163.5q0 -102 -72 -170.5t-176 -68.5q-103 0 -176 68t-73 170q0 66 38 128l209 340h118l-151 -237q35 7 64 4zM291 89q61 0 102 39.5t41 101.5t-41 101t-102 39t-102 -39t-41 -101t41 -101.5t102 -39.5z" />
    <glyph glyph-name="seven" unicode="7" horiz-adv-x="580" 
d="M39 697h502v-57l-319 -640h-118l307 598h-372v99z" />
    <glyph glyph-name="eight" unicode="8" horiz-adv-x="580" 
d="M290 -9q-104 0 -177.5 55.5t-73.5 156.5q0 125 111 176q-75 46 -75 138q0 86 64 137.5t151 51.5q88 0 151.5 -52.5t63.5 -137.5q0 -90 -75 -137q110 -51 110 -176q0 -101 -72.5 -156.5t-177.5 -55.5zM290 408q51 0 81.5 27.5t30.5 73.5q0 45 -31 72t-81 27
q-48 0 -80 -26.5t-32 -71.5q0 -47 31 -74.5t81 -27.5zM290 89q64 0 105.5 32t41.5 91q0 58 -40.5 92t-106.5 34t-107 -34t-41 -92q0 -59 41.5 -91t106.5 -32z" />
    <glyph glyph-name="nine" unicode="9" horiz-adv-x="580" 
d="M289 706q104 0 176.5 -68t72.5 -170q0 -66 -38 -128l-209 -340h-118l152 237q-35 -7 -64 -4q-97 4 -158.5 70.5t-61.5 163.5q0 102 72.5 170.5t175.5 68.5zM289 327q61 0 102.5 39t41.5 101t-41.5 101.5t-102.5 39.5q-60 0 -101.5 -39.5t-41.5 -101.5t41.5 -101
t101.5 -39z" />
    <glyph glyph-name="colon" unicode=":" horiz-adv-x="334" 
d="M108 347v124h117v-124h-117zM108 0v123h117v-123h-117z" />
    <glyph glyph-name="semicolon" unicode=";" horiz-adv-x="329" 
d="M128 347v124h118v-124h-118zM52 -151l75 281h122l-128 -281h-69z" />
    <glyph glyph-name="less" unicode="&#x3c;" horiz-adv-x="642" 
d="M552 -2l-522 297l522 298l38 -68l-402 -230l402 -229z" />
    <glyph glyph-name="equal" unicode="=" horiz-adv-x="632" 
d="M115 395v86h402v-86h-402zM115 183v86h402v-86h-402z" />
    <glyph glyph-name="greater" unicode="&#x3e;" horiz-adv-x="642" 
d="M90 -2l-39 68l402 229l-402 230l39 68l522 -298z" />
    <glyph glyph-name="question" unicode="?" horiz-adv-x="502" 
d="M203 204v76q0 37 12.5 63.5t31 40t40.5 27t40.5 24t31 31t12.5 49.5q0 52 -33.5 78.5t-92.5 26.5q-123 0 -123 -124h-91q0 98 57.5 154t153.5 56q95 0 157.5 -51t62.5 -142q0 -50 -17.5 -85t-43 -53t-50.5 -31.5t-42.5 -28.5t-17.5 -36v-75h-88zM189 0v123h118v-123h-118
z" />
    <glyph glyph-name="at" unicode="@" horiz-adv-x="1009" 
d="M501 -173q-122 0 -222 51.5t-160.5 150.5t-60.5 228q0 192 126 321t325 129q132 0 234.5 -60.5t155.5 -159.5t53 -217q0 -80 -23.5 -147.5t-77 -113t-127.5 -45.5q-97 0 -120 81q-8 28 -9 53q-65 -75 -156 -75q-77 0 -119 54.5t-42 137.5q0 70 27 138.5t84 118t130 49.5
q97 0 130 -79l11 55h84q-7 -36 -27 -119t-33 -151t-14 -111q-1 -36 10.5 -51.5t41.5 -15.5q51 0 86 35t49.5 83.5t14.5 104.5q0 149 -99.5 252.5t-262.5 103.5q-165 0 -268 -106t-103 -264q0 -160 104.5 -253.5t258.5 -93.5q65 0 123 20l28 -77q-71 -27 -152 -27zM446 105
q79 0 126.5 72.5t47.5 156.5q0 105 -90 105q-79 0 -126.5 -72t-47.5 -155q0 -107 90 -107z" />
    <glyph glyph-name="A" unicode="A" horiz-adv-x="657" 
d="M525 0l-57 158h-279l-58 -158h-116l272 697h83l272 -697h-117zM224 255h209l-104 286z" />
    <glyph glyph-name="B" unicode="B" horiz-adv-x="632" 
d="M97 0v697h233q102 0 159.5 -46.5t57.5 -128.5q0 -105 -82 -148q118 -38 118 -173q0 -95 -59 -148t-166 -53h-261zM204 411h131q50 0 77.5 24t27.5 68q0 46 -28.5 70.5t-81.5 24.5h-126v-187zM204 99h145q60 0 93.5 29.5t33.5 81.5q0 50 -31 77t-89 27h-152v-215z" />
    <glyph glyph-name="C" unicode="C" horiz-adv-x="717" 
d="M380 -13q-152 0 -241.5 97.5t-89.5 264.5q0 168 90 265t243 97q109 0 186.5 -51t115.5 -149l-99 -38q-49 136 -203 136q-108 0 -167 -67.5t-59 -191.5q0 -125 59 -193t165 -68q155 0 205 139l101 -38q-38 -99 -117 -151t-189 -52z" />
    <glyph glyph-name="D" unicode="D" horiz-adv-x="702" 
d="M97 0v697h197q173 0 267 -92.5t94 -261.5q0 -167 -93 -255t-269 -88h-196zM204 99h79q137 0 200.5 59.5t63.5 188.5q0 128 -62 189.5t-192 61.5h-89v-499z" />
    <glyph glyph-name="E" unicode="E" horiz-adv-x="617" 
d="M97 0v697h461v-99h-354v-191h325v-99h-325v-209h354v-99h-461z" />
    <glyph glyph-name="F" unicode="F" horiz-adv-x="613" 
d="M97 0v697h487v-99h-380v-191h334v-99h-334v-308h-107z" />
    <glyph glyph-name="G" unicode="G" horiz-adv-x="759" 
d="M422 371h265v-371h-78l-14 82q-30 -46 -86 -70.5t-128 -24.5q-148 0 -240.5 100.5t-92.5 262.5q0 159 89.5 260t244.5 101q108 0 185.5 -52t114.5 -148l-98 -38q-50 136 -203 136q-108 0 -167 -68t-59 -189q0 -123 60.5 -193t172.5 -70q89 0 141.5 44t52.5 129v13h-160
v96z" />
    <glyph glyph-name="H" unicode="H" horiz-adv-x="732" 
d="M97 0v697h107v-290h324v290h107v-697h-107v308h-324v-308h-107z" />
    <glyph glyph-name="I" unicode="I" horiz-adv-x="300" 
d="M97 0v697h107v-697h-107z" />
    <glyph glyph-name="J" unicode="J" horiz-adv-x="568" 
d="M254 -13q-100 0 -162 60t-69 166l105 12q9 -139 126 -139q123 0 123 164v348h-269v99h376v-453q0 -121 -61 -189t-169 -68z" />
    <glyph glyph-name="K" unicode="K" horiz-adv-x="706" 
d="M689 0h-124l-214 362l-147 -150v-212h-107v697h107v-351l335 351h141l-256 -260z" />
    <glyph glyph-name="L" unicode="L" horiz-adv-x="526" 
d="M97 0v697h107v-598h304v-99h-411z" />
    <glyph glyph-name="M" unicode="M" horiz-adv-x="893" 
d="M642 697h154v-697h-107v549l-191 -489h-104l-190 489v-549h-107v697h154l195 -514z" />
    <glyph glyph-name="N" unicode="N" horiz-adv-x="722" 
d="M518 697h107v-697h-112l-309 513v-513h-107v697h111l310 -510v510z" />
    <glyph glyph-name="O" unicode="O" horiz-adv-x="753" 
d="M377 -13q-147 0 -238 99.5t-91 261.5q0 163 91 262.5t238 99.5t237.5 -99.5t90.5 -262.5q0 -162 -90.5 -261.5t-237.5 -99.5zM377 89q101 0 161 70t60 189q0 120 -60 190t-161 70q-102 0 -162 -70t-60 -190t60 -189.5t162 -69.5z" />
    <glyph glyph-name="P" unicode="P" horiz-adv-x="581" 
d="M97 0v697h218q115 0 175 -51t60 -148q0 -99 -60.5 -151.5t-174.5 -52.5h-112v-294h-106zM203 393h101q71 0 104.5 25t33.5 78t-33 77.5t-105 24.5h-101v-205z" />
    <glyph glyph-name="Q" unicode="Q" horiz-adv-x="771" 
d="M730 6l-66 -63l-102 99q-79 -55 -187 -55q-147 0 -237.5 99t-90.5 262t90.5 262.5t237.5 99.5t237.5 -99.5t90.5 -262.5q0 -146 -75 -243zM375 89q61 0 110 27l-99 96l66 65l100 -97q44 68 44 168q0 120 -60 190t-161 70q-102 0 -161.5 -70t-59.5 -190t59.5 -189.5
t161.5 -69.5z" />
    <glyph glyph-name="R" unicode="R" horiz-adv-x="626" 
d="M605 0h-125l-170 296h-44h-63v-296h-106v697h218q235 0 235 -198q0 -150 -134 -190zM203 394h101q70 0 104 24.5t34 78.5t-34 77.5t-104 23.5h-101v-204z" />
    <glyph glyph-name="S" unicode="S" horiz-adv-x="563" 
d="M290 -12q-102 0 -173.5 56t-86.5 149l107 26q7 -64 48.5 -100t106.5 -36q59 0 93 28t34 76q0 43 -32.5 72t-115.5 61q-108 41 -151.5 86.5t-43.5 118.5q0 83 58 134t152 51q143 0 208 -122l-89 -55q-40 82 -122 82q-43 0 -71.5 -25.5t-28.5 -61.5q0 -38 31.5 -64.5
t113.5 -57.5q112 -43 155 -89.5t43 -120.5q0 -95 -64.5 -151.5t-171.5 -56.5z" />
    <glyph glyph-name="T" unicode="T" horiz-adv-x="593" 
d="M242 0v598h-225v99h559v-99h-226v-598h-108z" />
    <glyph glyph-name="U" unicode="U" horiz-adv-x="687" 
d="M343 -13q-129 0 -195 66.5t-66 198.5v445h107v-433q0 -93 36 -133t118 -40t118.5 40.5t36.5 133.5v432h107v-440q0 -134 -66.5 -202t-195.5 -68z" />
    <glyph glyph-name="V" unicode="V" horiz-adv-x="666" 
d="M534 697h118l-277 -697h-82l-278 697h118l201 -524z" />
    <glyph glyph-name="W" unicode="W" horiz-adv-x="986" 
d="M228 0l-207 697h112l154 -534l160 495h92l161 -495l153 534h112l-207 -697h-105l-160 488l-160 -488h-105z" />
    <glyph glyph-name="X" unicode="X" horiz-adv-x="661" 
d="M21 0l236 349l-234 348h128l179 -273l180 273h128l-234 -348l237 -349h-129l-183 272l-180 -272h-128z" />
    <glyph glyph-name="Y" unicode="Y" horiz-adv-x="653" 
d="M273 0v270l-265 427h126l191 -324l193 324h127l-264 -427v-270h-108z" />
    <glyph glyph-name="Z" unicode="Z" horiz-adv-x="632" 
d="M591 697v-79l-412 -519h412v-99h-558v76l416 522h-393v99h535z" />
    <glyph glyph-name="bracketleft" unicode="[" horiz-adv-x="319" 
d="M93 -75v845h204v-69h-121v-706h121v-70h-204z" />
    <glyph glyph-name="backslash" unicode="\" horiz-adv-x="440" 
d="M449 -212h-96l-363 909h98z" />
    <glyph glyph-name="bracketright" unicode="]" horiz-adv-x="319" 
d="M22 -75v70h121v706h-121v69h204v-845h-204z" />
    <glyph glyph-name="asciicircum" unicode="^" horiz-adv-x="597" 
d="M35 213l263 520l264 -520h-109l-155 326l-153 -326h-110z" />
    <glyph glyph-name="underscore" unicode="_" horiz-adv-x="559" 
d="M73 -78v78h413v-78h-413z" />
    <glyph glyph-name="grave" unicode="`" horiz-adv-x="256" 
d="M153 555l-136 142h110l104 -142h-78z" />
    <glyph glyph-name="a" unicode="a" horiz-adv-x="530" 
d="M261 502q96 0 151 -51t55 -141v-310h-94l-8 70q-51 -79 -159 -79q-79 0 -127 43t-48 114q0 86 68 120q50 25 150 25h115v17q0 48 -27.5 75t-76.5 27q-83 0 -139 -77l-75 63q85 104 215 104zM225 78q60 0 99.5 38t39.5 96v2h-103q-80 0 -105 -20q-22 -15 -22 -48
q0 -31 24.5 -49.5t66.5 -18.5z" />
    <glyph glyph-name="b" unicode="b" horiz-adv-x="580" 
d="M330 503q95 0 153 -69t58 -187q0 -114 -55.5 -185t-155.5 -71t-149 64v-55h-103v697h103v-259q23 30 63 47.5t86 17.5zM307 85q65 0 98 43t33 118q0 77 -34 120.5t-98 43.5q-65 0 -100 -45.5t-35 -118.5q0 -72 34.5 -116.5t101.5 -44.5z" />
    <glyph glyph-name="c" unicode="c" horiz-adv-x="499" 
d="M268 -9q-111 0 -172 74t-61 180t60.5 181.5t171.5 75.5q153 0 209 -142l-98 -38q-12 42 -41.5 66t-69.5 24q-63 0 -95 -48t-32 -119t31.5 -117.5t96.5 -46.5q39 0 68.5 24t40.5 65l94 -36q-25 -69 -78 -106t-125 -37z" />
    <glyph glyph-name="d" unicode="d" horiz-adv-x="580" 
d="M399 697h103v-697h-103v55q-49 -64 -149 -64t-155.5 71t-55.5 185q0 118 58 187t153 69q46 0 86 -17.5t63 -47.5v259zM273 85q67 0 101.5 44.5t34.5 116.5q0 73 -35 118.5t-100 45.5q-64 0 -98 -43.5t-34 -120.5q0 -75 33 -118t98 -43z" />
    <glyph glyph-name="e" unicode="e" horiz-adv-x="523" 
d="M488 259q0 -23 -3 -45h-346q3 -60 38 -95t97 -35q77 0 126 56l72 -62q-80 -87 -199 -87q-116 0 -176.5 72t-60.5 181q0 108 59 183t170 75q109 0 166 -69.5t57 -173.5zM139 297h250v2q-2 53 -35.5 85t-88.5 32q-56 0 -88 -34.5t-38 -84.5z" />
    <glyph glyph-name="f" unicode="f" horiz-adv-x="337" 
d="M106 0v410h-97v83h98v63q0 150 141 150q48 0 91 -19l-34 -80q-23 13 -46 13q-50 0 -50 -62v-65h124v-83h-124v-410h-103z" />
    <glyph glyph-name="g" unicode="g" horiz-adv-x="516" 
d="M260 70q111 -16 150 -33q74 -33 74 -107q0 -72 -60 -107.5t-162 -35.5q-109 0 -168 39.5t-59 114.5q0 12 2 22l74 52q-61 32 -61 100q0 60 49 97q-41 49 -41 113q0 77 57 127t140 50q67 0 118 -34l73 63l54 -66l-70 -57q23 -40 23 -89q0 -78 -56.5 -127t-138.5 -49
q-50 0 -97 21q-20 -12 -20 -34q0 -27 30 -39.5t89 -20.5zM257 416q-43 0 -70 -26t-27 -68q0 -41 25.5 -67.5t70.5 -26.5t69.5 26t24.5 68q0 43 -25 68.5t-68 25.5zM266 -134q51 0 83 13.5t32 41.5t-31.5 39.5t-94.5 20.5q-11 1 -17 2q-16 2 -50 8l-50 -49q-1 -4 -1 -9
q0 -35 37 -51t92 -16z" />
    <glyph glyph-name="h" unicode="h" horiz-adv-x="570" 
d="M334 502q82 0 126 -48.5t44 -140.5v-313h-103v287q0 64 -23.5 94.5t-73.5 30.5q-63 0 -93 -50t-30 -155v-207h-103v697h103v-265q50 70 153 70z" />
    <glyph glyph-name="i" unicode="i" horiz-adv-x="257" 
d="M73 589v108h110v-108h-110zM77 0v493h103v-493h-103z" />
    <glyph glyph-name="j" unicode="j" horiz-adv-x="258" 
d="M74 589v108h110v-108h-110zM72 -213q-34 0 -74 14v83q21 -7 41 -7q39 0 39 39v577h102v-583q0 -61 -29.5 -92t-78.5 -31z" />
    <glyph glyph-name="k" unicode="k" horiz-adv-x="547" 
d="M78 0v697h103v-424l202 220h139l-183 -189l206 -304h-123l-153 240l-88 -96v-144h-103z" />
    <glyph glyph-name="l" unicode="l" horiz-adv-x="275" 
d="M181 -9q-50 0 -79.5 31t-29.5 92v583h103v-576q0 -39 39 -39q20 0 41 7v-84q-39 -14 -74 -14z" />
    <glyph glyph-name="m" unicode="m" horiz-adv-x="849" 
d="M614 502q85 0 127.5 -53t42.5 -137v-312h-103v282q0 130 -92 130q-29 0 -49.5 -12.5t-31.5 -30.5t-17 -48t-7.5 -55t-1.5 -62v-204h-103v280q0 132 -92 132q-24 0 -42 -7.5t-29.5 -23.5t-18.5 -33.5t-10.5 -44t-4.5 -48t-1 -51.5v-204h-103l-1 493h99v-62q43 71 134 71
q105 0 144 -97q51 97 160 97z" />
    <glyph glyph-name="n" unicode="n" horiz-adv-x="569" 
d="M334 502q82 0 125.5 -49t43.5 -140v-313h-103v287q0 55 -19.5 90t-76.5 35q-38 0 -64 -17t-38 -48t-17 -64.5t-5 -77.5v-205h-103v493h103v-61q51 70 154 70z" />
    <glyph glyph-name="o" unicode="o" horiz-adv-x="554" 
d="M277 -9q-109 0 -176.5 73.5t-67.5 182.5t67.5 182t176.5 73t176 -73t67 -182q0 -108 -67 -182t-176 -74zM277 81q69 0 104.5 47t35.5 119t-36 118.5t-104 46.5q-69 0 -105 -46.5t-36 -118.5t36 -119t105 -47z" />
    <glyph glyph-name="p" unicode="p" horiz-adv-x="580" 
d="M330 503q99 0 155 -71t56 -186q0 -117 -57.5 -186t-153.5 -69q-46 0 -86 17.5t-63 47.5v-260h-103v697h103v-55q49 65 149 65zM306 81q65 0 98.5 44t33.5 122q0 79 -33.5 122t-97.5 43q-66 0 -101 -44.5t-35 -120.5q0 -75 34.5 -120.5t100.5 -45.5z" />
    <glyph glyph-name="q" unicode="q" horiz-adv-x="580" 
d="M399 493h103v-697h-103v260q-23 -30 -63 -47.5t-86 -17.5q-96 0 -153.5 69t-57.5 186q0 115 56 186t155 71q100 0 149 -65v55zM274 81q66 0 100.5 45.5t34.5 120.5q0 76 -35 120.5t-101 44.5q-64 0 -97.5 -43t-33.5 -122q0 -78 33.5 -122t98.5 -44z" />
    <glyph glyph-name="r" unicode="r" horiz-adv-x="404" 
d="M317 502q49 0 91 -25l-50 -90q-29 17 -61 17q-56 0 -86.5 -37t-30.5 -110v-257h-103v493h104v-81q18 44 55.5 67t80.5 23z" />
    <glyph glyph-name="s" unicode="s" horiz-adv-x="454" 
d="M230 -9q-75 0 -131 38t-74 97l83 37q31 -85 118 -85q42 0 66 19.5t24 47.5q0 27 -27 42.5t-66 25t-78 22t-66 44t-27 81.5q0 67 50.5 104.5t126.5 37.5q127 0 183 -105l-80 -44q-36 66 -107 66q-34 0 -54.5 -14t-20.5 -37q0 -24 27.5 -38.5t67 -24.5t78.5 -24t66.5 -46.5
t27.5 -83.5q0 -78 -55 -119t-132 -41z" />
    <glyph glyph-name="t" unicode="t" horiz-adv-x="355" 
d="M320 89l1 -84q-45 -14 -85 -14q-63 0 -101.5 34.5t-38.5 105.5v279h-81v83h81v106l103 77v-183h121v-83h-121v-270q0 -62 62 -62q24 0 59 11z" />
    <glyph glyph-name="u" unicode="u" horiz-adv-x="568" 
d="M388 493h103v-493h-103v62q-51 -71 -152 -71q-86 0 -128.5 54t-42.5 142v306h103v-280q0 -19 1 -33.5t6.5 -34.5t15.5 -32.5t29 -22t45 -9.5q38 0 64 18t38 51t16.5 66t4.5 77v200z" />
    <glyph glyph-name="v" unicode="v" horiz-adv-x="495" 
d="M204 0l-201 493h113l131 -360l132 360h112l-201 -493h-86z" />
    <glyph glyph-name="w" unicode="w" horiz-adv-x="728" 
d="M162 0l-150 493h110l91 -336l106 336h89l105 -335l93 335h109l-149 -493h-94l-108 348l-109 -348h-93z" />
    <glyph glyph-name="x" unicode="x" horiz-adv-x="504" 
d="M11 0l172 248l-172 245h126l115 -175l115 175h126l-173 -245l173 -248h-126l-115 177l-115 -177h-126z" />
    <glyph glyph-name="y" unicode="y" horiz-adv-x="507" 
d="M115 -204l86 215l-198 482h113l140 -363l134 363h113l-277 -697h-111z" />
    <glyph glyph-name="z" unicode="z" horiz-adv-x="467" 
d="M431 493v-76l-265 -330h265v-87h-401v70l275 336h-262v87h388z" />
    <glyph glyph-name="braceleft" unicode="{" horiz-adv-x="304" 
d="M204 -74q-52 0 -79.5 36t-27.5 99v156q0 19 -5 33t-15 22.5t-19.5 13t-24.5 9.5v70q20 7 32 13.5t22 24t10 44.5v160q0 63 28 98t81 35h70v-66h-36q-56 0 -56 -69v-160q0 -85 -67 -112v-6q67 -30 67 -109v-155q0 -70 55 -70h37v-67h-72z" />
    <glyph glyph-name="bar" unicode="|" horiz-adv-x="311" 
d="M117 -254v1000h77v-1000h-77z" />
    <glyph glyph-name="braceright" unicode="}" horiz-adv-x="304" 
d="M29 -74v67h37q54 0 54 70v155q0 79 68 109v6q-68 28 -68 112v160q0 69 -56 69h-35v66h70q53 0 81 -35t28 -98v-160q0 -28 10.5 -45.5t21.5 -23.5t31 -13v-70q-15 -5 -23.5 -9.5t-19 -13t-15.5 -22t-5 -33.5v-156q0 -63 -27.5 -99t-80.5 -36h-71z" />
    <glyph glyph-name="asciitilde" unicode="~" horiz-adv-x="610" 
d="M392 170q-32 0 -55 12t-36.5 29t-24.5 34t-26 29t-34 12q-24 0 -37 -24t-13 -65h-79q0 71 35.5 115t93.5 44q40 0 68 -18.5t40 -40t29.5 -40t38.5 -18.5q23 0 37.5 28.5t14.5 72.5h79q0 -75 -36 -122.5t-95 -47.5z" />
    <glyph glyph-name="uni00A0" unicode="&#xa0;" horiz-adv-x="278" 
 />
    <glyph glyph-name="exclamdown" unicode="&#xa1;" horiz-adv-x="313" 
d="M215 493v-123h-117v123h117zM196 287l12 -491h-103l12 491h79z" />
    <glyph glyph-name="cent" unicode="&#xa2;" horiz-adv-x="561" 
d="M297 81q39 0 68.5 24t40.5 65l94 -36q-43 -119 -162 -140v-106l-94 -1v109q-86 18 -133 87.5t-47 161.5t46.5 163t133.5 89v104h94v-102q120 -19 167 -139l-98 -38q-12 42 -41.5 66t-69.5 24q-63 0 -95 -48t-32 -119t31.5 -117.5t96.5 -46.5z" />
    <glyph glyph-name="sterling" unicode="&#xa3;" horiz-adv-x="611" 
d="M284 228q0 -90 -71 -141h333v-87h-473v90q53 20 89.5 58t36.5 81q0 26 -18 80h-106v87h85q-19 46 -19 111q0 87 55.5 145.5t149.5 58.5q77 0 131 -41t71 -110l-80 -31q-21 95 -121 95q-55 0 -87 -31t-32 -89t22 -108h201v-87h-181q14 -51 14 -81z" />
    <glyph glyph-name="currency" unicode="&#xa4;" horiz-adv-x="676" 
d="M152 71l-54 57l51 51q-43 59 -42.5 133t42.5 132l-50 50l55 58l51 -53q59 44 133 44t133 -43l51 51l56 -55l-52 -51q44 -59 44 -133.5t-44 -133.5l52 -50l-55 -57l-52 52q-59 -43 -133.5 -43t-133.5 43zM228 203q47 -46 110.5 -45.5t107.5 45.5q45 46 45.5 108.5
t-45.5 108.5q-45 45 -108.5 45t-109.5 -46q-43 -44 -43 -108.5t43 -107.5z" />
    <glyph glyph-name="yen" unicode="&#xa5;" horiz-adv-x="710" 
d="M300 0v106h-163v83h163v77h-163v83h114l-214 348h130l188 -324l187 324h131l-213 -348h113v-83h-162v-77h162v-83h-162v-106h-111z" />
    <glyph glyph-name="brokenbar" unicode="&#xa6;" horiz-adv-x="319" 
d="M117 330v416h85v-416h-85zM117 -254v409h85v-409h-85z" />
    <glyph glyph-name="section" unicode="&#xa7;" horiz-adv-x="603" 
d="M296 -207q-141 0 -207 119l89 55q40 -79 122 -79q43 0 71.5 24.5t28.5 63.5q0 18 -9 34t-19 26t-34 22t-37.5 17.5t-45.5 17.5q-37 14 -57.5 23t-51.5 28t-47.5 38t-29.5 50t-13 68q0 83 57 140q-17 37 -17 79q0 86 60.5 136.5t150.5 50.5q140 0 207 -119l-89 -55
q-41 79 -122 79q-43 0 -71.5 -24.5t-28.5 -62.5q0 -19 9 -34.5t19 -25.5t34 -22.5t37 -18t45 -17.5q37 -14 58 -23t52 -28t47.5 -38t29.5 -50t13 -68q0 -84 -58 -140q18 -34 18 -78q0 -86 -60.5 -137t-150.5 -51zM418 129q21 24 21 61q0 26 -10.5 45.5t-36 35.5t-44 24.5
t-57.5 24.5q-73 27 -106 50q-22 -25 -22 -61q0 -21 9 -38.5t20 -29t35.5 -24.5t38 -18.5t45.5 -18.5q82 -34 107 -51z" />
    <glyph glyph-name="dieresis" unicode="&#xa8;" horiz-adv-x="433" 
d="M75 589v108h94v-108h-94zM265 589v108h94v-108h-94z" />
    <glyph glyph-name="copyright" unicode="&#xa9;" horiz-adv-x="861" 
d="M431 -13q-154 0 -262.5 105.5t-108.5 255.5t108.5 256t262.5 106t262.5 -106t108.5 -256t-108.5 -255.5t-262.5 -105.5zM431 53q127 0 216.5 86.5t89.5 208.5q0 123 -89.5 209.5t-216.5 86.5t-216.5 -86.5t-89.5 -209.5q0 -122 89.5 -208.5t216.5 -86.5zM441 131
q-93 0 -145 63t-52 153q0 89 51.5 153.5t144.5 64.5q130 0 177 -120l-81 -31q-11 33 -36.5 54t-59.5 21q-53 0 -81.5 -42t-28.5 -100t28 -98.5t82 -40.5q35 0 60 20t36 54l76 -30q-19 -57 -64.5 -89t-106.5 -32z" />
    <glyph glyph-name="ordfeminine" unicode="&#xaa;" horiz-adv-x="442" 
d="M180 348q-50 0 -85 30t-35 78q0 53 38 79.5t101 26.5h98q0 12 -3 25q-11 62 -81 62q-54 0 -93 -54l-50 33q30 42 63.5 60t81.5 18q67 0 105 -37.5t38 -101.5v-211h-57l-2 49q-45 -57 -119 -57zM191 407q32 0 57.5 16.5t39.5 44.5q8 20 9 38h-93q-37 0 -57 -13.5
t-20 -36.5q0 -20 19.5 -34.5t44.5 -14.5z" />
    <glyph glyph-name="guillemotleft" unicode="&#xab;" horiz-adv-x="528" 
d="M236 67l-221 185l221 185v-97l-107 -88l107 -88v-97zM455 67l-220 185l220 185v-97l-106 -88l106 -88v-97z" />
    <glyph glyph-name="logicalnot" unicode="&#xac;" horiz-adv-x="647" 
d="M433 143v158h-362v92h460v-250h-98z" />
    <glyph glyph-name="uni00AD" unicode="&#xad;" horiz-adv-x="499" 
d="M74 261v77h351v-77h-351z" />
    <glyph glyph-name="registered" unicode="&#xae;" horiz-adv-x="861" 
d="M431 -13q-154 0 -262.5 105.5t-108.5 255.5t108.5 256t262.5 106t262.5 -106t108.5 -256t-108.5 -255.5t-262.5 -105.5zM431 53q127 0 216.5 86.5t89.5 208.5q0 123 -89.5 209.5t-216.5 86.5t-216.5 -86.5t-89.5 -209.5q0 -122 89.5 -208.5t216.5 -86.5zM310 139v419h129
q65 0 105 -34t40 -89q0 -37 -22 -66t-60 -42l115 -188h-79l-103 181h-23h-34v-181h-68zM378 376h67q34 1 52.5 17t18.5 42q0 29 -20 45t-56 16h-62v-120z" />
    <glyph glyph-name="macron" unicode="&#xaf;" horiz-adv-x="419" 
d="M73 577v61h273v-61h-273z" />
    <glyph glyph-name="degree" unicode="&#xb0;" horiz-adv-x="448" 
d="M224 419q-59 0 -101.5 42.5t-42.5 101.5t42.5 101t101.5 42t101.5 -42t42.5 -101t-42.5 -101.5t-101.5 -42.5zM224 489q32 0 53.5 21.5t21.5 52.5t-21.5 52t-53.5 21q-31 0 -52.5 -21.5t-21.5 -51.5q0 -31 21.5 -52.5t52.5 -21.5z" />
    <glyph glyph-name="plusminus" unicode="&#xb1;" horiz-adv-x="655" 
d="M288 93v216h-228v79h228v216h79v-216h228v-79h-228v-216h-79zM60 -78v78h533v-78h-533z" />
    <glyph glyph-name="acute" unicode="&#xb4;" horiz-adv-x="261" 
d="M23 555l110 142h111l-144 -142h-77z" />
    <glyph glyph-name="uni00B5" unicode="&#xb5;" horiz-adv-x="640" 
d="M116 -165v658h102v-286q0 -56 27 -88.5t76 -32.5q56 0 88 32.5t32 97.5v277h103v-493h-103v66q-26 -38 -66 -56.5t-82 -18.5q-60 0 -93 30v-186h-84z" />
    <glyph glyph-name="paragraph" unicode="&#xb6;" horiz-adv-x="636" 
d="M266 -121v428q-92 0 -158 53t-66 142t66 142t158 53h71v-818h-71zM446 -121v818h74v-818h-74z" />
    <glyph glyph-name="periodcentered" unicode="&#xb7;" horiz-adv-x="314" 
d="M157 292q-30 0 -50.5 21t-20.5 51q0 29 20.5 49.5t50.5 20.5q29 0 49.5 -20t20.5 -50t-20.5 -51t-49.5 -21z" />
    <glyph glyph-name="cedilla" unicode="&#xb8;" horiz-adv-x="281" 
d="M130 -257q-30 0 -57 18t-39 46l58 24q10 -28 41 -28q21 0 33.5 11.5t12.5 31.5q0 26 -23 41.5t-62 16.5q-4 0 -16 0.5t-20 0.5l58 94h61l-38 -53q8 -1 29 -6q72 -20 72 -90q0 -46 -31 -76.5t-79 -30.5z" />
    <glyph glyph-name="ordmasculine" unicode="&#xba;" horiz-adv-x="461" 
d="M231 352q-76 0 -125 51t-49 126q0 74 49 125.5t125 51.5q75 0 124 -51.5t49 -125.5q0 -75 -49 -126t-124 -51zM231 413q50 0 76 32.5t26 83.5q0 52 -26 84t-76 32t-76 -32t-26 -84q0 -51 26 -83.5t76 -32.5z" />
    <glyph glyph-name="guillemotright" unicode="&#xbb;" horiz-adv-x="529" 
d="M72 67v97l106 88l-106 88v97l220 -185zM291 67v97l107 88l-107 88v97l221 -185z" />
    <glyph glyph-name="questiondown" unicode="&#xbf;" horiz-adv-x="501" 
d="M312 493v-123h-117v123h117zM298 289v-76q0 -37 -12.5 -63.5t-31 -40t-40.5 -27t-40.5 -24t-31 -31t-12.5 -49.5q0 -52 33.5 -78.5t92.5 -26.5q123 0 123 124h91q0 -98 -57.5 -154t-153.5 -56q-94 0 -156.5 51t-62.5 142q0 50 17.5 85t43 53t50.5 31.5t42.5 28.5t17.5 36
v75h87z" />
    <glyph glyph-name="Agrave" unicode="&#xc0;" horiz-adv-x="657" 
d="M368 759h-78l-136 142h110zM525 0l-57 158h-279l-58 -158h-116l272 697h83l272 -697h-117zM224 255h209l-104 286z" />
    <glyph glyph-name="Aacute" unicode="&#xc1;" horiz-adv-x="657" 
d="M511 901l-144 -142h-77l110 142h111zM525 0l-57 158h-279l-58 -158h-116l272 697h83l272 -697h-117zM224 255h209l-104 286z" />
    <glyph glyph-name="Acircumflex" unicode="&#xc2;" horiz-adv-x="657" 
d="M329 828l-72 -81h-82l154 169l154 -169h-81zM525 0l-57 158h-279l-58 -158h-116l272 697h83l272 -697h-117zM224 255h209l-104 286z" />
    <glyph glyph-name="Atilde" unicode="&#xc3;" horiz-adv-x="657" 
d="M262 840q-38 0 -38 -70h-60q0 63 27 98.5t75 35.5q30 0 53.5 -19t41 -37.5t33.5 -18.5q15 0 25 19t10 53h63q0 -64 -26.5 -100t-72.5 -36q-27 0 -48 11.5t-31.5 26t-24 26t-27.5 11.5zM525 0l-57 158h-279l-58 -158h-116l272 697h83l272 -697h-117zM224 255h209l-104 286
z" />
    <glyph glyph-name="Adieresis" unicode="&#xc4;" horiz-adv-x="657" 
d="M281 901v-108h-94v108h94zM471 901v-108h-94v108h94zM525 0l-57 158h-279l-58 -158h-116l272 697h83l272 -697h-117zM224 255h209l-104 286z" />
    <glyph glyph-name="Aring" unicode="&#xc5;" horiz-adv-x="657" 
d="M525 0l-57 158h-279l-58 -158h-116l269 689q-29 13 -46.5 39.5t-17.5 58.5q0 45 32 77t76 32t76.5 -32t32.5 -77q0 -32 -17.5 -58.5t-46.5 -39.5l269 -689h-117zM328 839q-23 0 -37.5 -14t-14.5 -37q0 -22 15 -37.5t37 -15.5q23 0 37.5 15t14.5 38t-14 37t-38 14z
M224 255h209l-104 286z" />
    <glyph glyph-name="AE" unicode="&#xc6;" horiz-adv-x="918" 
d="M15 0l272 697h579v-94h-357v-209h312v-90h-312v-207h357v-97h-466v157h-212l-57 -157h-116zM224 252h176v355h-48z" />
    <glyph glyph-name="Ccedilla" unicode="&#xc7;" horiz-adv-x="717" 
d="M686 190q-36 -92 -107.5 -143.5t-170.5 -58.5l-30 -42q34 -7 54 -17q47 -27 47 -79q0 -46 -30.5 -76.5t-78.5 -30.5q-51 0 -87 37l33 50q24 -27 56 -27q22 0 34.5 12t12.5 33q0 41 -55 52q-32 5 -67 5l51 83q-138 11 -218.5 107t-80.5 254q0 168 90 265t243 97
q109 0 186.5 -51t115.5 -149l-99 -38q-49 136 -203 136q-108 0 -167 -67.5t-59 -191.5q0 -125 59 -193t165 -68q155 0 205 139z" />
    <glyph glyph-name="Egrave" unicode="&#xc8;" horiz-adv-x="617" 
d="M288 759l-136 142h110l104 -142h-78zM97 0v697h461v-99h-354v-191h325v-99h-325v-209h354v-99h-461z" />
    <glyph glyph-name="Eacute" unicode="&#xc9;" horiz-adv-x="617" 
d="M289 759l110 142h111l-144 -142h-77zM97 0v697h461v-99h-354v-191h325v-99h-325v-209h354v-99h-461z" />
    <glyph glyph-name="Ecircumflex" unicode="&#xca;" horiz-adv-x="617" 
d="M173 747l154 169l154 -169h-81l-73 81l-72 -81h-82zM97 0v697h461v-99h-354v-191h325v-99h-325v-209h354v-99h-461z" />
    <glyph glyph-name="Edieresis" unicode="&#xcb;" horiz-adv-x="617" 
d="M186 793v108h94v-108h-94zM376 793v108h94v-108h-94zM97 0v697h461v-99h-354v-191h325v-99h-325v-209h354v-99h-461z" />
    <glyph glyph-name="Igrave" unicode="&#xcc;" horiz-adv-x="300" 
d="M112 759l-136 142h110l104 -142h-78zM97 0v697h107v-697h-107z" />
    <glyph glyph-name="Iacute" unicode="&#xcd;" horiz-adv-x="300" 
d="M112 759l110 142h111l-144 -142h-77zM97 0v697h107v-697h-107z" />
    <glyph glyph-name="Icircumflex" unicode="&#xce;" horiz-adv-x="300" 
d="M-3 747l154 169l154 -169h-81l-73 81l-72 -81h-82zM97 0v697h107v-697h-107z" />
    <glyph glyph-name="Idieresis" unicode="&#xcf;" horiz-adv-x="300" 
d="M9 793v108h94v-108h-94zM199 793v108h94v-108h-94zM97 0v697h107v-697h-107z" />
    <glyph glyph-name="Eth" unicode="&#xd0;" horiz-adv-x="702" 
d="M294 697q173 0 267 -92.5t94 -261.5q0 -167 -93 -255t-269 -88h-196v314h-78v69h78v314h197zM283 99q137 0 200.5 59.5t63.5 188.5q0 128 -62 189.5t-192 61.5h-89v-215h120v-69h-120v-215h79z" />
    <glyph glyph-name="Ntilde" unicode="&#xd1;" horiz-adv-x="722" 
d="M295 840q-38 0 -38 -70h-60q0 63 27 98.5t75 35.5q30 0 53.5 -19t41 -37.5t33.5 -18.5q15 0 25 19t10 53h63q0 -64 -26.5 -100t-72.5 -36q-27 0 -48 11.5t-31.5 26t-24 26t-27.5 11.5zM518 697h107v-697h-112l-309 513v-513h-107v697h111l310 -510v510z" />
    <glyph glyph-name="Ograve" unicode="&#xd2;" horiz-adv-x="753" 
d="M338 759l-136 142h110l104 -142h-78zM377 -13q-147 0 -238 99.5t-91 261.5q0 163 91 262.5t238 99.5t237.5 -99.5t90.5 -262.5q0 -162 -90.5 -261.5t-237.5 -99.5zM377 89q101 0 161 70t60 189q0 120 -60 190t-161 70q-102 0 -162 -70t-60 -190t60 -189.5t162 -69.5z" />
    <glyph glyph-name="Oacute" unicode="&#xd3;" horiz-adv-x="753" 
d="M338 759l110 142h111l-144 -142h-77zM377 -13q-147 0 -238 99.5t-91 261.5q0 163 91 262.5t238 99.5t237.5 -99.5t90.5 -262.5q0 -162 -90.5 -261.5t-237.5 -99.5zM377 89q101 0 161 70t60 189q0 120 -60 190t-161 70q-102 0 -162 -70t-60 -190t60 -189.5t162 -69.5z" />
    <glyph glyph-name="Ocircumflex" unicode="&#xd4;" horiz-adv-x="753" 
d="M223 747l154 169l154 -169h-81l-73 81l-72 -81h-82zM377 -13q-147 0 -238 99.5t-91 261.5q0 163 91 262.5t238 99.5t237.5 -99.5t90.5 -262.5q0 -162 -90.5 -261.5t-237.5 -99.5zM377 89q101 0 161 70t60 189q0 120 -60 190t-161 70q-102 0 -162 -70t-60 -190t60 -189.5
t162 -69.5z" />
    <glyph glyph-name="Otilde" unicode="&#xd5;" horiz-adv-x="753" 
d="M441 765q-27 0 -48 11.5t-31.5 26t-24 26t-27.5 11.5q-38 0 -38 -70h-60q0 63 27 98.5t75 35.5q30 0 53.5 -19t41 -37.5t33.5 -18.5q15 0 25 19t10 53h63q0 -64 -26.5 -100t-72.5 -36zM377 -13q-147 0 -238 99.5t-91 261.5q0 163 91 262.5t238 99.5t237.5 -99.5
t90.5 -262.5q0 -162 -90.5 -261.5t-237.5 -99.5zM377 89q101 0 161 70t60 189q0 120 -60 190t-161 70q-102 0 -162 -70t-60 -190t60 -189.5t162 -69.5z" />
    <glyph glyph-name="Odieresis" unicode="&#xd6;" horiz-adv-x="753" 
d="M235 793v108h94v-108h-94zM425 793v108h94v-108h-94zM377 -13q-147 0 -238 99.5t-91 261.5q0 163 91 262.5t238 99.5t237.5 -99.5t90.5 -262.5q0 -162 -90.5 -261.5t-237.5 -99.5zM377 89q101 0 161 70t60 189q0 120 -60 190t-161 70q-102 0 -162 -70t-60 -190t60 -189.5
t162 -69.5z" />
    <glyph glyph-name="multiply" unicode="&#xd7;" horiz-adv-x="538" 
d="M119 91l-60 59l150 151l-150 150l60 61l149 -151l151 150l60 -60l-150 -150l150 -151l-60 -59l-151 149z" />
    <glyph glyph-name="Oslash" unicode="&#xd8;" horiz-adv-x="753" 
d="M606 620q99 -101 99 -272q0 -162 -90.5 -261.5t-237.5 -99.5q-100 0 -177 48l-24 -35h-83l54 78q-99 99 -99 270q0 163 91 262.5t238 99.5q100 0 176 -48l24 35h83zM155 348q0 -113 54 -181l284 410q-50 31 -116 31q-102 0 -162 -70t-60 -190zM377 89q101 0 161 70
t60 189q0 114 -54 182l-284 -410q50 -31 117 -31z" />
    <glyph glyph-name="Ugrave" unicode="&#xd9;" horiz-adv-x="687" 
d="M305 759l-136 142h110l104 -142h-78zM343 -13q-129 0 -195 66.5t-66 198.5v445h107v-433q0 -93 36 -133t118 -40t118.5 40.5t36.5 133.5v432h107v-440q0 -134 -66.5 -202t-195.5 -68z" />
    <glyph glyph-name="Uacute" unicode="&#xda;" horiz-adv-x="687" 
d="M306 759l110 142h111l-144 -142h-77zM343 -13q-129 0 -195 66.5t-66 198.5v445h107v-433q0 -93 36 -133t118 -40t118.5 40.5t36.5 133.5v432h107v-440q0 -134 -66.5 -202t-195.5 -68z" />
    <glyph glyph-name="Ucircumflex" unicode="&#xdb;" horiz-adv-x="687" 
d="M190 747l154 169l154 -169h-81l-73 81l-72 -81h-82zM343 -13q-129 0 -195 66.5t-66 198.5v445h107v-433q0 -93 36 -133t118 -40t118.5 40.5t36.5 133.5v432h107v-440q0 -134 -66.5 -202t-195.5 -68z" />
    <glyph glyph-name="Udieresis" unicode="&#xdc;" horiz-adv-x="687" 
d="M202 793v108h94v-108h-94zM392 793v108h94v-108h-94zM343 -13q-129 0 -195 66.5t-66 198.5v445h107v-433q0 -93 36 -133t118 -40t118.5 40.5t36.5 133.5v432h107v-440q0 -134 -66.5 -202t-195.5 -68z" />
    <glyph glyph-name="Yacute" unicode="&#xdd;" horiz-adv-x="653" 
d="M288 759l110 142h111l-144 -142h-77zM273 0v270l-265 427h126l191 -324l193 324h127l-264 -427v-270h-108z" />
    <glyph glyph-name="Thorn" unicode="&#xde;" horiz-adv-x="571" 
d="M97 0v697h97v-97h131q102 0 158.5 -52t56.5 -144q0 -97 -63 -151t-175 -54h-108v-199h-97zM194 288h108q140 0 140 112q0 115 -140 115h-108v-227z" />
    <glyph glyph-name="germandbls" unicode="&#xdf;" horiz-adv-x="638" 
d="M431 -9q-74 0 -130 38.5t-75 96.5l83 37q12 -36 41 -61t76 -25q43 0 66.5 20t23.5 48q0 27 -27 43t-65 25t-76 22t-65 43.5t-27 79.5q0 43 20.5 72t50 42t59 22.5t50 22.5t20.5 33q0 28 -35 44.5t-85 16.5q-43 0 -73 -12.5t-45 -28.5t-23 -43t-9 -43.5t-1 -43.5v-440
h-107v440q0 267 254 267q102 0 164 -40.5t62 -108.5q0 -43 -20.5 -73t-50 -44.5t-59 -25.5t-50 -24t-20.5 -32q0 -22 27 -34.5t65 -21.5t76 -22.5t65 -46t27 -83.5q0 -78 -55 -119t-132 -41z" />
    <glyph glyph-name="agrave" unicode="&#xe0;" horiz-adv-x="530" 
d="M299 555h-78l-136 142h110zM261 502q96 0 151 -51t55 -141v-310h-94l-8 70q-51 -79 -159 -79q-79 0 -127 43t-48 114q0 86 68 120q50 25 150 25h115v17q0 48 -27.5 75t-76.5 27q-83 0 -139 -77l-75 63q85 104 215 104zM225 78q60 0 99.5 38t39.5 96v2h-103
q-80 0 -105 -20q-22 -15 -22 -48q0 -31 24.5 -49.5t66.5 -18.5z" />
    <glyph glyph-name="aacute" unicode="&#xe1;" horiz-adv-x="530" 
d="M443 697l-144 -142h-77l110 142h111zM261 502q96 0 151 -51t55 -141v-310h-94l-8 70q-51 -79 -159 -79q-79 0 -127 43t-48 114q0 86 68 120q50 25 150 25h115v17q0 48 -27.5 75t-76.5 27q-83 0 -139 -77l-75 63q85 104 215 104zM225 78q60 0 99.5 38t39.5 96v2h-103
q-80 0 -105 -20q-22 -15 -22 -48q0 -31 24.5 -49.5t66.5 -18.5z" />
    <glyph glyph-name="acircumflex" unicode="&#xe2;" horiz-adv-x="530" 
d="M260 624l-72 -81h-82l154 169l154 -169h-81zM261 502q96 0 151 -51t55 -141v-310h-94l-8 70q-51 -79 -159 -79q-79 0 -127 43t-48 114q0 86 68 120q50 25 150 25h115v17q0 48 -27.5 75t-76.5 27q-83 0 -139 -77l-75 63q85 104 215 104zM225 78q60 0 99.5 38t39.5 96v2
h-103q-80 0 -105 -20q-22 -15 -22 -48q0 -31 24.5 -49.5t66.5 -18.5z" />
    <glyph glyph-name="atilde" unicode="&#xe3;" horiz-adv-x="530" 
d="M194 636q-38 0 -38 -70h-60q0 63 27 98.5t75 35.5q30 0 53.5 -19t41 -37.5t33.5 -18.5q15 0 25 19t10 53h63q0 -64 -26.5 -100t-72.5 -36q-27 0 -48 11.5t-31.5 26t-24 26t-27.5 11.5zM261 502q96 0 151 -51t55 -141v-310h-94l-8 70q-51 -79 -159 -79q-79 0 -127 43
t-48 114q0 86 68 120q50 25 150 25h115v17q0 48 -27.5 75t-76.5 27q-83 0 -139 -77l-75 63q85 104 215 104zM225 78q60 0 99.5 38t39.5 96v2h-103q-80 0 -105 -20q-22 -15 -22 -48q0 -31 24.5 -49.5t66.5 -18.5z" />
    <glyph glyph-name="adieresis" unicode="&#xe4;" horiz-adv-x="530" 
d="M212 697v-108h-94v108h94zM402 697v-108h-94v108h94zM261 502q96 0 151 -51t55 -141v-310h-94l-8 70q-51 -79 -159 -79q-79 0 -127 43t-48 114q0 86 68 120q50 25 150 25h115v17q0 48 -27.5 75t-76.5 27q-83 0 -139 -77l-75 63q85 104 215 104zM225 78q60 0 99.5 38
t39.5 96v2h-103q-80 0 -105 -20q-22 -15 -22 -48q0 -31 24.5 -49.5t66.5 -18.5z" />
    <glyph glyph-name="aring" unicode="&#xe5;" horiz-adv-x="530" 
d="M260 531q-45 0 -76.5 32t-31.5 76q0 45 32 77t76 32t76.5 -32t32.5 -77q0 -44 -32 -76t-77 -32zM260 691q-23 0 -37.5 -14t-14.5 -37q0 -22 15 -37.5t37 -15.5q23 0 37.5 15t14.5 38t-14 37t-38 14zM261 502q96 0 151 -51t55 -141v-310h-94l-8 70q-51 -79 -159 -79
q-79 0 -127 43t-48 114q0 86 68 120q50 25 150 25h115v17q0 48 -27.5 75t-76.5 27q-83 0 -139 -77l-75 63q85 104 215 104zM225 78q60 0 99.5 38t39.5 96v2h-103q-80 0 -105 -20q-22 -15 -22 -48q0 -31 24.5 -49.5t66.5 -18.5z" />
    <glyph glyph-name="ae" unicode="&#xe6;" horiz-adv-x="836" 
d="M211 -9q-86 0 -133.5 43t-47.5 113q0 39 16.5 67.5t39.5 42.5t57 22.5t58 10t54 1.5h111v19q0 48 -28 75t-77 27q-81 0 -138 -77l-75 63q82 104 219 104q123 0 165 -83q56 79 157 79q107 0 159 -64t52 -167q0 -27 -3 -53h-336q10 -128 126 -128q75 0 125 54l73 -62
q-81 -84 -198 -84q-134 0 -184 98h-11q-64 -101 -181 -101zM461 289h243q1 28 -11 54q-12 30 -40.5 49.5t-69.5 19.5q-57 0 -89.5 -36.5t-32.5 -86.5zM224 78q59 0 96.5 36t45.5 95v7h-105q-126 0 -126 -71q0 -30 23.5 -48.5t65.5 -18.5z" />
    <glyph glyph-name="ccedilla" unicode="&#xe7;" horiz-adv-x="499" 
d="M268 81q39 0 68.5 24t40.5 65l94 -36q-24 -67 -75.5 -104t-121.5 -39l-33 -45q34 -7 54 -17q47 -27 47 -79q0 -46 -30.5 -76.5t-78.5 -30.5q-51 0 -87 37l33 50q24 -27 56 -27q22 0 34.5 12t12.5 33q0 41 -55 52q-32 5 -67 5l56 91q-87 17 -134 87t-47 162
q0 106 60.5 181.5t171.5 75.5q153 0 209 -142l-98 -38q-12 42 -41.5 66t-69.5 24q-63 0 -95 -48t-32 -119t31.5 -117.5t96.5 -46.5z" />
    <glyph glyph-name="egrave" unicode="&#xe8;" horiz-adv-x="523" 
d="M305 555h-78l-136 142h110zM488 259q0 -23 -3 -45h-346q3 -60 38 -95t97 -35q77 0 126 56l72 -62q-80 -87 -199 -87q-116 0 -176.5 72t-60.5 181q0 108 59 183t170 75q109 0 166 -69.5t57 -173.5zM139 297h250v2q-2 53 -35.5 85t-88.5 32q-56 0 -88 -34.5t-38 -84.5z" />
    <glyph glyph-name="eacute" unicode="&#xe9;" horiz-adv-x="523" 
d="M449 697l-144 -142h-77l110 142h111zM488 259q0 -23 -3 -45h-346q3 -60 38 -95t97 -35q77 0 126 56l72 -62q-80 -87 -199 -87q-116 0 -176.5 72t-60.5 181q0 108 59 183t170 75q109 0 166 -69.5t57 -173.5zM139 297h250v2q-2 53 -35.5 85t-88.5 32q-56 0 -88 -34.5
t-38 -84.5z" />
    <glyph glyph-name="ecircumflex" unicode="&#xea;" horiz-adv-x="523" 
d="M266 624l-72 -81h-82l154 169l154 -169h-81zM488 259q0 -23 -3 -45h-346q3 -60 38 -95t97 -35q77 0 126 56l72 -62q-80 -87 -199 -87q-116 0 -176.5 72t-60.5 181q0 108 59 183t170 75q109 0 166 -69.5t57 -173.5zM139 297h250v2q-2 53 -35.5 85t-88.5 32
q-56 0 -88 -34.5t-38 -84.5z" />
    <glyph glyph-name="edieresis" unicode="&#xeb;" horiz-adv-x="523" 
d="M219 697v-108h-94v108h94zM409 697v-108h-94v108h94zM488 259q0 -23 -3 -45h-346q3 -60 38 -95t97 -35q77 0 126 56l72 -62q-80 -87 -199 -87q-116 0 -176.5 72t-60.5 181q0 108 59 183t170 75q109 0 166 -69.5t57 -173.5zM139 297h250v2q-2 53 -35.5 85t-88.5 32
q-56 0 -88 -34.5t-38 -84.5z" />
    <glyph glyph-name="igrave" unicode="&#xec;" horiz-adv-x="257" 
d="M89 555l-136 142h110l104 -142h-78zM77 0v493h103v-493h-103z" />
    <glyph glyph-name="iacute" unicode="&#xed;" horiz-adv-x="257" 
d="M90 555l110 142h111l-144 -142h-77zM77 0v493h103v-493h-103z" />
    <glyph glyph-name="icircumflex" unicode="&#xee;" horiz-adv-x="257" 
d="M-26 543l154 169l154 -169h-81l-73 81l-72 -81h-82zM77 0v493h103v-493h-103z" />
    <glyph glyph-name="idieresis" unicode="&#xef;" horiz-adv-x="257" 
d="M-13 589v108h94v-108h-94zM177 589v108h94v-108h-94zM77 0v493h103v-493h-103z" />
    <glyph glyph-name="eth" unicode="&#xf0;" horiz-adv-x="590" 
d="M481 610q66 -86 66 -246q0 -161 -77 -265.5t-213 -104.5q-104 0 -164.5 63t-60.5 163q0 120 79 199t186 79q87 0 146 -52q-3 87 -50 140l-167 -47l-13 47l133 37q-61 36 -152 39l8 69q156 -10 240 -81l77 22l14 -47zM444 265q2 60 -32 104.5t-102 44.5
q-85 0 -133.5 -57.5t-48.5 -135.5q0 -66 38.5 -102t96.5 -36q80 0 129 55.5t52 126.5z" />
    <glyph glyph-name="ntilde" unicode="&#xf1;" horiz-adv-x="569" 
d="M220 636q-38 0 -38 -70h-60q0 63 27 98.5t75 35.5q30 0 53.5 -19t41 -37.5t33.5 -18.5q15 0 25 19t10 53h63q0 -64 -26.5 -100t-72.5 -36q-27 0 -48 11.5t-31.5 26t-24 26t-27.5 11.5zM334 502q82 0 125.5 -49t43.5 -140v-313h-103v287q0 55 -19.5 90t-76.5 35
q-38 0 -64 -17t-38 -48t-17 -64.5t-5 -77.5v-205h-103v493h103v-61q51 70 154 70z" />
    <glyph glyph-name="ograve" unicode="&#xf2;" horiz-adv-x="554" 
d="M238 555l-136 142h110l104 -142h-78zM277 -9q-109 0 -176.5 73.5t-67.5 182.5t67.5 182t176.5 73t176 -73t67 -182q0 -108 -67 -182t-176 -74zM277 81q69 0 104.5 47t35.5 119t-36 118.5t-104 46.5q-69 0 -105 -46.5t-36 -118.5t36 -119t105 -47z" />
    <glyph glyph-name="oacute" unicode="&#xf3;" horiz-adv-x="554" 
d="M238 555l110 142h111l-144 -142h-77zM277 -9q-109 0 -176.5 73.5t-67.5 182.5t67.5 182t176.5 73t176 -73t67 -182q0 -108 -67 -182t-176 -74zM277 81q69 0 104.5 47t35.5 119t-36 118.5t-104 46.5q-69 0 -105 -46.5t-36 -118.5t36 -119t105 -47z" />
    <glyph glyph-name="ocircumflex" unicode="&#xf4;" horiz-adv-x="554" 
d="M123 543l154 169l154 -169h-81l-73 81l-72 -81h-82zM277 -9q-109 0 -176.5 73.5t-67.5 182.5t67.5 182t176.5 73t176 -73t67 -182q0 -108 -67 -182t-176 -74zM277 81q69 0 104.5 47t35.5 119t-36 118.5t-104 46.5q-69 0 -105 -46.5t-36 -118.5t36 -119t105 -47z" />
    <glyph glyph-name="otilde" unicode="&#xf5;" horiz-adv-x="554" 
d="M341 561q-27 0 -48 11.5t-31.5 26t-24 26t-27.5 11.5q-38 0 -38 -70h-60q0 63 27 98.5t75 35.5q30 0 53.5 -19t41 -37.5t33.5 -18.5q15 0 25 19t10 53h63q0 -64 -26.5 -100t-72.5 -36zM277 -9q-109 0 -176.5 73.5t-67.5 182.5t67.5 182t176.5 73t176 -73t67 -182
q0 -108 -67 -182t-176 -74zM277 81q69 0 104.5 47t35.5 119t-36 118.5t-104 46.5q-69 0 -105 -46.5t-36 -118.5t36 -119t105 -47z" />
    <glyph glyph-name="odieresis" unicode="&#xf6;" horiz-adv-x="554" 
d="M135 589v108h94v-108h-94zM325 589v108h94v-108h-94zM277 -9q-109 0 -176.5 73.5t-67.5 182.5t67.5 182t176.5 73t176 -73t67 -182q0 -108 -67 -182t-176 -74zM277 81q69 0 104.5 47t35.5 119t-36 118.5t-104 46.5q-69 0 -105 -46.5t-36 -118.5t36 -119t105 -47z" />
    <glyph glyph-name="divide" unicode="&#xf7;" horiz-adv-x="503" 
d="M195 426v123h113v-123h-113zM51 268v86h401v-86h-401zM195 71v123h113v-123h-113z" />
    <glyph glyph-name="oslash" unicode="&#xf8;" horiz-adv-x="554" 
d="M436 445q84 -72 84 -198q0 -108 -67 -182t-176 -74q-56 0 -105 22l-36 -58h-77l57 94q-83 74 -83 198q0 109 67.5 182t176.5 73q55 0 103 -21l35 57h78zM136 247q0 -70 32 -114l164 269q-27 10 -55 10q-69 0 -105 -46.5t-36 -118.5zM277 81q69 0 104.5 47t35.5 119
q0 68 -32 114l-165 -269q25 -11 57 -11z" />
    <glyph glyph-name="ugrave" unicode="&#xf9;" horiz-adv-x="568" 
d="M317 555h-78l-136 142h110zM388 493h103v-493h-103v62q-51 -71 -152 -71q-86 0 -128.5 54t-42.5 142v306h103v-280q0 -19 1 -33.5t6.5 -34.5t15.5 -32.5t29 -22t45 -9.5q38 0 64 18t38 51t16.5 66t4.5 77v200z" />
    <glyph glyph-name="uacute" unicode="&#xfa;" horiz-adv-x="568" 
d="M460 697l-144 -142h-77l110 142h111zM388 493h103v-493h-103v62q-51 -71 -152 -71q-86 0 -128.5 54t-42.5 142v306h103v-280q0 -19 1 -33.5t6.5 -34.5t15.5 -32.5t29 -22t45 -9.5q38 0 64 18t38 51t16.5 66t4.5 77v200z" />
    <glyph glyph-name="ucircumflex" unicode="&#xfb;" horiz-adv-x="568" 
d="M278 624l-72 -81h-82l154 169l154 -169h-81zM388 493h103v-493h-103v62q-51 -71 -152 -71q-86 0 -128.5 54t-42.5 142v306h103v-280q0 -19 1 -33.5t6.5 -34.5t15.5 -32.5t29 -22t45 -9.5q38 0 64 18t38 51t16.5 66t4.5 77v200z" />
    <glyph glyph-name="udieresis" unicode="&#xfc;" horiz-adv-x="568" 
d="M230 697v-108h-94v108h94zM420 697v-108h-94v108h94zM388 493h103v-493h-103v62q-51 -71 -152 -71q-86 0 -128.5 54t-42.5 142v306h103v-280q0 -19 1 -33.5t6.5 -34.5t15.5 -32.5t29 -22t45 -9.5q38 0 64 18t38 51t16.5 66t4.5 77v200z" />
    <glyph glyph-name="yacute" unicode="&#xfd;" horiz-adv-x="507" 
d="M215 555l110 142h111l-144 -142h-77zM115 -204l86 215l-198 482h113l140 -363l134 363h113l-277 -697h-111z" />
    <glyph glyph-name="thorn" unicode="&#xfe;" horiz-adv-x="580" 
d="M330 503q99 0 155.5 -71t56.5 -186q0 -117 -57.5 -186t-154.5 -69q-46 0 -86 17.5t-63 47.5v-260h-103v901h103v-259q51 65 149 65zM307 81q65 0 98.5 44t33.5 122q0 79 -33.5 122t-98.5 43q-66 0 -100.5 -44.5t-34.5 -120.5q0 -75 34.5 -120.5t100.5 -45.5z" />
    <glyph glyph-name="ydieresis" unicode="&#xff;" horiz-adv-x="507" 
d="M112 589v108h94v-108h-94zM302 589v108h94v-108h-94zM115 -204l86 215l-198 482h113l140 -363l134 363h113l-277 -697h-111z" />
    <glyph glyph-name="Amacron" unicode="&#x100;" horiz-adv-x="657" 
d="M464 842v-61h-273v61h273zM525 0l-57 158h-279l-58 -158h-116l272 697h83l272 -697h-117zM224 255h209l-104 286z" />
    <glyph glyph-name="amacron" unicode="&#x101;" horiz-adv-x="530" 
d="M396 638v-61h-273v61h273zM261 502q96 0 151 -51t55 -141v-310h-94l-8 70q-51 -79 -159 -79q-79 0 -127 43t-48 114q0 86 68 120q50 25 150 25h115v17q0 48 -27.5 75t-76.5 27q-83 0 -139 -77l-75 63q85 104 215 104zM225 78q60 0 99.5 38t39.5 96v2h-103q-80 0 -105 -20
q-22 -15 -22 -48q0 -31 24.5 -49.5t66.5 -18.5z" />
    <glyph glyph-name="Abreve" unicode="&#x102;" horiz-adv-x="657" 
d="M329 769q-154 0 -154 132h73q0 -35 22.5 -53.5t58.5 -18.5q37 0 59 19t22 53h73q0 -132 -154 -132zM525 0l-57 158h-279l-58 -158h-116l272 697h83l272 -697h-117zM224 255h209l-104 286z" />
    <glyph glyph-name="abreve" unicode="&#x103;" horiz-adv-x="530" 
d="M260 565q-154 0 -154 132h73q0 -35 22.5 -53.5t58.5 -18.5q37 0 59 19t22 53h73q0 -132 -154 -132zM261 502q96 0 151 -51t55 -141v-310h-94l-8 70q-51 -79 -159 -79q-79 0 -127 43t-48 114q0 86 68 120q50 25 150 25h115v17q0 48 -27.5 75t-76.5 27q-83 0 -139 -77
l-75 63q85 104 215 104zM225 78q60 0 99.5 38t39.5 96v2h-103q-80 0 -105 -20q-22 -15 -22 -48q0 -31 24.5 -49.5t66.5 -18.5z" />
    <glyph glyph-name="Aogonek" unicode="&#x104;" horiz-adv-x="657" 
d="M633 -127l52 -37q-40 -55 -103 -55q-45 0 -75 26t-30 69q0 75 82 124h-34l-57 158h-279l-58 -158h-116l272 697h83l272 -697l-11 -6q-11 -5 -17.5 -9t-19 -12t-20.5 -16.5t-16.5 -19.5t-13 -24t-4.5 -27q0 -41 40 -41q31 0 53 28zM224 255h209l-104 286z" />
    <glyph glyph-name="aogonek" unicode="&#x105;" horiz-adv-x="530" 
d="M458 -127l52 -37q-40 -55 -103 -55q-45 0 -75 26t-30 69q0 75 82 124h-11l-8 70q-51 -79 -159 -79q-79 0 -127 43t-48 114q0 86 68 120q50 25 150 25h115v17q0 48 -27.5 75t-76.5 27q-83 0 -139 -77l-75 63q85 104 215 104q96 0 151 -51t55 -141v-310l-11 -6
q-11 -5 -17.5 -9t-19 -12t-20.5 -16.5t-16.5 -19.5t-13 -24t-4.5 -27q0 -41 40 -41q31 0 53 28zM225 78q60 0 99.5 38t39.5 96v2h-103q-80 0 -105 -20q-22 -15 -22 -48q0 -31 24.5 -49.5t66.5 -18.5z" />
    <glyph glyph-name="Cacute" unicode="&#x106;" horiz-adv-x="717" 
d="M348 759l110 142h111l-144 -142h-77zM380 -13q-152 0 -241.5 97.5t-89.5 264.5q0 168 90 265t243 97q109 0 186.5 -51t115.5 -149l-99 -38q-49 136 -203 136q-108 0 -167 -67.5t-59 -191.5q0 -125 59 -193t165 -68q155 0 205 139l101 -38q-38 -99 -117 -151t-189 -52z
" />
    <glyph glyph-name="cacute" unicode="&#x107;" horiz-adv-x="499" 
d="M211 555l110 142h111l-144 -142h-77zM268 -9q-111 0 -172 74t-61 180t60.5 181.5t171.5 75.5q153 0 209 -142l-98 -38q-12 42 -41.5 66t-69.5 24q-63 0 -95 -48t-32 -119t31.5 -117.5t96.5 -46.5q39 0 68.5 24t40.5 65l94 -36q-25 -69 -78 -106t-125 -37z" />
    <glyph glyph-name="Cdotaccent" unicode="&#x10a;" horiz-adv-x="717" 
d="M331 793v108h110v-108h-110zM380 -13q-152 0 -241.5 97.5t-89.5 264.5q0 168 90 265t243 97q109 0 186.5 -51t115.5 -149l-99 -38q-49 136 -203 136q-108 0 -167 -67.5t-59 -191.5q0 -125 59 -193t165 -68q155 0 205 139l101 -38q-38 -99 -117 -151t-189 -52z" />
    <glyph glyph-name="cdotaccent" unicode="&#x10b;" horiz-adv-x="499" 
d="M194 589v108h110v-108h-110zM268 -9q-111 0 -172 74t-61 180t60.5 181.5t171.5 75.5q153 0 209 -142l-98 -38q-12 42 -41.5 66t-69.5 24q-63 0 -95 -48t-32 -119t31.5 -117.5t96.5 -46.5q39 0 68.5 24t40.5 65l94 -36q-25 -69 -78 -106t-125 -37z" />
    <glyph glyph-name="Ccaron" unicode="&#x10c;" horiz-adv-x="717" 
d="M386 741l-154 160h81l73 -76l73 76h81zM380 -13q-152 0 -241.5 97.5t-89.5 264.5q0 168 90 265t243 97q109 0 186.5 -51t115.5 -149l-99 -38q-49 136 -203 136q-108 0 -167 -67.5t-59 -191.5q0 -125 59 -193t165 -68q155 0 205 139l101 -38q-38 -99 -117 -151t-189 -52z
" />
    <glyph glyph-name="ccaron" unicode="&#x10d;" horiz-adv-x="499" 
d="M249 537l-154 160h81l73 -76l73 76h81zM268 -9q-111 0 -172 74t-61 180t60.5 181.5t171.5 75.5q153 0 209 -142l-98 -38q-12 42 -41.5 66t-69.5 24q-63 0 -95 -48t-32 -119t31.5 -117.5t96.5 -46.5q39 0 68.5 24t40.5 65l94 -36q-25 -69 -78 -106t-125 -37z" />
    <glyph glyph-name="Dcaron" unicode="&#x10e;" horiz-adv-x="702" 
d="M352 741l-154 160h81l73 -76l73 76h81zM97 0v697h197q173 0 267 -92.5t94 -261.5q0 -167 -93 -255t-269 -88h-196zM204 99h79q137 0 200.5 59.5t63.5 188.5q0 128 -62 189.5t-192 61.5h-89v-499z" />
    <glyph glyph-name="dcaron" unicode="&#x10f;" horiz-adv-x="580" 
d="M399 438v259h103v-697h-103v55q-49 -64 -149 -64t-155.5 71t-55.5 185q0 118 58 187t153 69q46 0 86 -17.5t63 -47.5zM589 697h108l-104 -219h-61zM273 85q67 0 101.5 44.5t34.5 116.5q0 73 -35 118.5t-100 45.5q-64 0 -98 -43.5t-34 -120.5q0 -75 33 -118t98 -43z" />
    <glyph glyph-name="Dcroat" unicode="&#x110;" horiz-adv-x="702" 
d="M294 697q173 0 267 -92.5t94 -261.5q0 -167 -93 -255t-269 -88h-196v314h-78v69h78v314h197zM283 99q137 0 200.5 59.5t63.5 188.5q0 128 -62 189.5t-192 61.5h-89v-215h120v-69h-120v-215h79z" />
    <glyph glyph-name="dcroat" unicode="&#x111;" horiz-adv-x="580" 
d="M560 642v-69h-58v-573h-103v55q-49 -64 -149 -64t-155.5 71t-55.5 185q0 118 58 187t153 69q46 0 86 -17.5t63 -47.5v135h-144v69h144v55h103v-55h58zM273 85q67 0 101.5 44.5t34.5 116.5q0 73 -35 118.5t-100 45.5q-64 0 -98 -43.5t-34 -120.5q0 -75 33 -118t98 -43z
" />
    <glyph glyph-name="Emacron" unicode="&#x112;" horiz-adv-x="617" 
d="M190 781v61h273v-61h-273zM97 0v697h461v-99h-354v-191h325v-99h-325v-209h354v-99h-461z" />
    <glyph glyph-name="emacron" unicode="&#x113;" horiz-adv-x="523" 
d="M402 638v-61h-273v61h273zM488 259q0 -23 -3 -45h-346q3 -60 38 -95t97 -35q77 0 126 56l72 -62q-80 -87 -199 -87q-116 0 -176.5 72t-60.5 181q0 108 59 183t170 75q109 0 166 -69.5t57 -173.5zM139 297h250v2q-2 53 -35.5 85t-88.5 32q-56 0 -88 -34.5t-38 -84.5z" />
    <glyph glyph-name="Edotaccent" unicode="&#x116;" horiz-adv-x="617" 
d="M272 793v108h110v-108h-110zM97 0v697h461v-99h-354v-191h325v-99h-325v-209h354v-99h-461z" />
    <glyph glyph-name="edotaccent" unicode="&#x117;" horiz-adv-x="523" 
d="M321 697v-108h-110v108h110zM488 259q0 -23 -3 -45h-346q3 -60 38 -95t97 -35q77 0 126 56l72 -62q-80 -87 -199 -87q-116 0 -176.5 72t-60.5 181q0 108 59 183t170 75q109 0 166 -69.5t57 -173.5zM139 297h250v2q-2 53 -35.5 85t-88.5 32q-56 0 -88 -34.5t-38 -84.5z
" />
    <glyph glyph-name="Eogonek" unicode="&#x118;" horiz-adv-x="617" 
d="M549 -127l52 -37q-40 -55 -103 -55q-45 0 -75 26t-30 69q0 75 82 124h-378v697h461v-99h-354v-191h325v-99h-325v-209h354v-99l-11 -6q-11 -5 -17.5 -9t-19 -12t-20.5 -16.5t-16.5 -19.5t-13 -24t-4.5 -27q0 -41 40 -41q31 0 53 28z" />
    <glyph glyph-name="eogonek" unicode="&#x119;" horiz-adv-x="523" 
d="M488 259q0 -23 -3 -45h-346q3 -60 38 -95t97 -35q77 0 126 56l72 -62q-45 -49 -98 -70q-64 -34 -85 -66q-14 -23 -14 -46q0 -41 40 -41q31 0 53 28l52 -37q-40 -55 -103 -55q-45 0 -75 26t-30 69q0 58 55 105q-113 2 -172 74t-59 179q0 108 59 183t170 75
q109 0 166 -69.5t57 -173.5zM139 297h250v2q-2 53 -35.5 85t-88.5 32q-56 0 -88 -34.5t-38 -84.5z" />
    <glyph glyph-name="Ecaron" unicode="&#x11a;" horiz-adv-x="617" 
d="M327 741l-154 160h81l73 -76l73 76h81zM97 0v697h461v-99h-354v-191h325v-99h-325v-209h354v-99h-461z" />
    <glyph glyph-name="ecaron" unicode="&#x11b;" horiz-adv-x="523" 
d="M420 697l-154 -160l-154 160h81l73 -76l73 76h81zM488 259q0 -23 -3 -45h-346q3 -60 38 -95t97 -35q77 0 126 56l72 -62q-80 -87 -199 -87q-116 0 -176.5 72t-60.5 181q0 108 59 183t170 75q109 0 166 -69.5t57 -173.5zM139 297h250v2q-2 53 -35.5 85t-88.5 32
q-56 0 -88 -34.5t-38 -84.5z" />
    <glyph glyph-name="Gbreve" unicode="&#x11e;" horiz-adv-x="759" 
d="M379 769q-154 0 -154 132h73q0 -35 22.5 -53.5t58.5 -18.5q37 0 59 19t22 53h73q0 -132 -154 -132zM422 371h265v-371h-78l-14 82q-30 -46 -86 -70.5t-128 -24.5q-148 0 -240.5 100.5t-92.5 262.5q0 159 89.5 260t244.5 101q108 0 185.5 -52t114.5 -148l-98 -38
q-50 136 -203 136q-108 0 -167 -68t-59 -189q0 -123 60.5 -193t172.5 -70q89 0 141.5 44t52.5 129v13h-160v96z" />
    <glyph glyph-name="gbreve" unicode="&#x11f;" horiz-adv-x="516" 
d="M257 565q-154 0 -154 132h73q0 -35 22.5 -53.5t58.5 -18.5q37 0 59 19t22 53h73q0 -132 -154 -132zM260 70q111 -16 150 -33q74 -33 74 -107q0 -72 -60 -107.5t-162 -35.5q-109 0 -168 39.5t-59 114.5q0 12 2 22l74 52q-61 32 -61 100q0 60 49 97q-41 49 -41 113
q0 77 57 127t140 50q67 0 118 -34l73 63l54 -66l-70 -57q23 -40 23 -89q0 -78 -56.5 -127t-138.5 -49q-50 0 -97 21q-20 -12 -20 -34q0 -27 30 -39.5t89 -20.5zM257 416q-43 0 -70 -26t-27 -68q0 -41 25.5 -67.5t70.5 -26.5t69.5 26t24.5 68q0 43 -25 68.5t-68 25.5z
M266 -134q51 0 83 13.5t32 41.5t-31.5 39.5t-94.5 20.5q-11 1 -17 2q-16 2 -50 8l-50 -49q-1 -4 -1 -9q0 -35 37 -51t92 -16z" />
    <glyph glyph-name="Gdotaccent" unicode="&#x120;" horiz-adv-x="759" 
d="M434 901v-108h-110v108h110zM422 371h265v-371h-78l-14 82q-30 -46 -86 -70.5t-128 -24.5q-148 0 -240.5 100.5t-92.5 262.5q0 159 89.5 260t244.5 101q108 0 185.5 -52t114.5 -148l-98 -38q-50 136 -203 136q-108 0 -167 -68t-59 -189q0 -123 60.5 -193t172.5 -70
q89 0 141.5 44t52.5 129v13h-160v96z" />
    <glyph glyph-name="gdotaccent" unicode="&#x121;" horiz-adv-x="516" 
d="M312 697v-108h-110v108h110zM260 70q111 -16 150 -33q74 -33 74 -107q0 -72 -60 -107.5t-162 -35.5q-109 0 -168 39.5t-59 114.5q0 12 2 22l74 52q-61 32 -61 100q0 60 49 97q-41 49 -41 113q0 77 57 127t140 50q67 0 118 -34l73 63l54 -66l-70 -57q23 -40 23 -89
q0 -78 -56.5 -127t-138.5 -49q-50 0 -97 21q-20 -12 -20 -34q0 -27 30 -39.5t89 -20.5zM257 416q-43 0 -70 -26t-27 -68q0 -41 25.5 -67.5t70.5 -26.5t69.5 26t24.5 68q0 43 -25 68.5t-68 25.5zM266 -134q51 0 83 13.5t32 41.5t-31.5 39.5t-94.5 20.5q-11 1 -17 2
q-16 2 -50 8l-50 -49q-1 -4 -1 -9q0 -35 37 -51t92 -16z" />
    <glyph glyph-name="uni0122" unicode="&#x122;" horiz-adv-x="759" 
d="M422 371h265v-371h-78l-14 82q-30 -46 -86 -70.5t-128 -24.5q-148 0 -240.5 100.5t-92.5 262.5q0 159 89.5 260t244.5 101q108 0 185.5 -52t114.5 -148l-98 -38q-50 136 -203 136q-108 0 -167 -68t-59 -189q0 -123 60.5 -193t172.5 -70q89 0 141.5 44t52.5 129v13h-160
v96zM251 -224l74 170h107l-120 -170h-61z" />
    <glyph glyph-name="uni0123" unicode="&#x123;" horiz-adv-x="516" 
d="M348 705l-74 -152h-107l120 152h61zM260 70q111 -16 150 -33q74 -33 74 -107q0 -72 -60 -107.5t-162 -35.5q-109 0 -168 39.5t-59 114.5q0 12 2 22l74 52q-61 32 -61 100q0 60 49 97q-41 49 -41 113q0 77 57 127t140 50q67 0 118 -34l73 63l54 -66l-70 -57q23 -40 23 -89
q0 -78 -56.5 -127t-138.5 -49q-50 0 -97 21q-20 -12 -20 -34q0 -27 30 -39.5t89 -20.5zM257 416q-43 0 -70 -26t-27 -68q0 -41 25.5 -67.5t70.5 -26.5t69.5 26t24.5 68q0 43 -25 68.5t-68 25.5zM266 -134q51 0 83 13.5t32 41.5t-31.5 39.5t-94.5 20.5q-11 1 -17 2
q-16 2 -50 8l-50 -49q-1 -4 -1 -9q0 -35 37 -51t92 -16z" />
    <glyph glyph-name="Hbar" unicode="&#x126;" horiz-adv-x="732" 
d="M690 586v-61h-55v-525h-107v308h-324v-308h-107v525h-56v61h56v111h107v-111h324v111h107v-111h55zM528 407v118h-324v-118h324z" />
    <glyph glyph-name="hbar" unicode="&#x127;" horiz-adv-x="570" 
d="M334 502q82 0 126 -48.5t44 -140.5v-313h-103v287q0 64 -23.5 94.5t-73.5 30.5q-63 0 -93 -50t-30 -155v-207h-103v573h-47v69h47v55h103v-55h155v-69h-155v-141q50 70 153 70z" />
    <glyph glyph-name="Itilde" unicode="&#x128;" horiz-adv-x="300" 
d="M215 765q-27 0 -48 11.5t-31.5 26t-24 26t-27.5 11.5q-38 0 -38 -70h-60q0 63 27 98.5t75 35.5q30 0 53.5 -19t41 -37.5t33.5 -18.5q15 0 25 19t10 53h63q0 -64 -26.5 -100t-72.5 -36zM97 0v697h107v-697h-107z" />
    <glyph glyph-name="itilde" unicode="&#x129;" horiz-adv-x="257" 
d="M193 561q-27 0 -48 11.5t-31.5 26t-24 26t-27.5 11.5q-38 0 -38 -70h-60q0 63 27 98.5t75 35.5q30 0 53.5 -19t41 -37.5t33.5 -18.5q15 0 25 19t10 53h63q0 -64 -26.5 -100t-72.5 -36zM77 0v493h103v-493h-103z" />
    <glyph glyph-name="Imacron" unicode="&#x12a;" horiz-adv-x="300" 
d="M13 781v61h273v-61h-273zM97 0v697h107v-697h-107z" />
    <glyph glyph-name="imacron" unicode="&#x12b;" horiz-adv-x="257" 
d="M-9 577v61h273v-61h-273zM77 0v493h103v-493h-103z" />
    <glyph glyph-name="Iogonek" unicode="&#x12e;" horiz-adv-x="300" 
d="M195 -127l52 -37q-40 -55 -103 -55q-45 0 -75 26t-30 69q0 75 82 124h-24v697h107v-697l-11 -6q-11 -5 -17.5 -9t-19 -12t-20.5 -16.5t-16.5 -19.5t-13 -24t-4.5 -27q0 -41 40 -41q31 0 53 28z" />
    <glyph glyph-name="iogonek" unicode="&#x12f;" horiz-adv-x="257" 
d="M183 697v-108h-110v108h110zM171 -127l52 -37q-40 -55 -103 -55q-45 0 -75 26t-30 69q0 75 82 124h-20v493h103v-493l-11 -6q-11 -5 -17.5 -9t-19 -12t-20.5 -16.5t-16.5 -19.5t-13 -24t-4.5 -27q0 -41 40 -41q31 0 53 28z" />
    <glyph glyph-name="Idotaccent" unicode="&#x130;" horiz-adv-x="300" 
d="M96 793v108h110v-108h-110zM97 0v697h107v-697h-107z" />
    <glyph glyph-name="dotlessi" unicode="&#x131;" horiz-adv-x="257" 
d="M77 0v493h103v-493h-103z" />
    <glyph glyph-name="uni0136" unicode="&#x136;" horiz-adv-x="706" 
d="M424 437l265 -437h-124l-214 362l-147 -150v-212h-107v697h107v-351l335 351h141zM225 -224l74 170h107l-120 -170h-61z" />
    <glyph glyph-name="uni0137" unicode="&#x137;" horiz-adv-x="547" 
d="M78 0v697h103v-424l202 220h139l-183 -189l206 -304h-123l-153 240l-88 -96v-144h-103zM174 -224l74 170h107l-120 -170h-61z" />
    <glyph glyph-name="kgreenlandic" unicode="&#x138;" horiz-adv-x="546" 
d="M77 0v493h103v-225l207 225h134l-182 -189l205 -304h-122l-154 240l-88 -96v-144h-103z" />
    <glyph glyph-name="Lacute" unicode="&#x139;" horiz-adv-x="526" 
d="M112 759l110 142h111l-144 -142h-77zM97 0v697h107v-598h304v-99h-411z" />
    <glyph glyph-name="lacute" unicode="&#x13a;" horiz-adv-x="275" 
d="M85 759l110 142h111l-144 -142h-77zM181 -9q-50 0 -79.5 31t-29.5 92v583h103v-576q0 -39 39 -39q20 0 41 7v-84q-39 -14 -74 -14z" />
    <glyph glyph-name="uni013B" unicode="&#x13b;" horiz-adv-x="526" 
d="M97 0v697h107v-598h304v-99h-411zM175 -224l74 170h107l-120 -170h-61z" />
    <glyph glyph-name="uni013C" unicode="&#x13c;" horiz-adv-x="275" 
d="M181 -9q-50 0 -79.5 31t-29.5 92v583h103v-576q0 -39 39 -39q20 0 41 7v-84q-39 -14 -74 -14zM33 -224l74 170h107l-120 -170h-61z" />
    <glyph glyph-name="Lcaron" unicode="&#x13d;" horiz-adv-x="526" 
d="M97 0v697h107v-598h304v-99h-411zM337 478l57 219h108l-104 -219h-61z" />
    <glyph glyph-name="lcaron" unicode="&#x13e;" horiz-adv-x="275" 
d="M181 -9q-50 0 -79.5 31t-29.5 92v583h103v-576q0 -39 39 -39q20 0 41 7v-84q-39 -14 -74 -14zM212 478l57 219h108l-104 -219h-61z" />
    <glyph glyph-name="Lslash" unicode="&#x141;" horiz-adv-x="526" 
d="M204 99h304v-99h-411v221l-59 -47v107l59 47v369h107v-285l128 101v-105l-128 -102v-207z" />
    <glyph glyph-name="lslash" unicode="&#x142;" horiz-adv-x="275" 
d="M214 82q20 0 41 7v-84q-39 -14 -74 -14q-50 0 -79.5 31t-29.5 92v149l-57 -45v107l57 45v327h103v-246l67 53v-105l-67 -53v-225q0 -39 39 -39z" />
    <glyph glyph-name="Nacute" unicode="&#x143;" horiz-adv-x="722" 
d="M544 901l-144 -142h-77l110 142h111zM518 697h107v-697h-112l-309 513v-513h-107v697h111l310 -510v510z" />
    <glyph glyph-name="nacute" unicode="&#x144;" horiz-adv-x="569" 
d="M469 697l-144 -142h-77l110 142h111zM334 502q82 0 125.5 -49t43.5 -140v-313h-103v287q0 55 -19.5 90t-76.5 35q-38 0 -64 -17t-38 -48t-17 -64.5t-5 -77.5v-205h-103v493h103v-61q51 70 154 70z" />
    <glyph glyph-name="uni0145" unicode="&#x145;" horiz-adv-x="722" 
d="M518 697h107v-697h-112l-309 513v-513h-107v697h111l310 -510v510zM233 -224l74 170h107l-120 -170h-61z" />
    <glyph glyph-name="uni0146" unicode="&#x146;" horiz-adv-x="569" 
d="M334 502q82 0 125.5 -49t43.5 -140v-313h-103v287q0 55 -19.5 90t-76.5 35q-38 0 -64 -17t-38 -48t-17 -64.5t-5 -77.5v-205h-103v493h103v-61q51 70 154 70zM158 -224l74 170h107l-120 -170h-61z" />
    <glyph glyph-name="Ncaron" unicode="&#x147;" horiz-adv-x="722" 
d="M515 901l-154 -160l-154 160h81l73 -76l73 76h81zM518 697h107v-697h-112l-309 513v-513h-107v697h111l310 -510v510z" />
    <glyph glyph-name="ncaron" unicode="&#x148;" horiz-adv-x="569" 
d="M440 697l-154 -160l-154 160h81l73 -76l73 76h81zM334 502q82 0 125.5 -49t43.5 -140v-313h-103v287q0 55 -19.5 90t-76.5 35q-38 0 -64 -17t-38 -48t-17 -64.5t-5 -77.5v-205h-103v493h103v-61q51 70 154 70z" />
    <glyph glyph-name="napostrophe" unicode="&#x149;" horiz-adv-x="676" 
d="M80 697h119l-128 -281h-68zM443 502q82 0 125.5 -49t43.5 -140v-313h-103v287q0 55 -19.5 90t-76.5 35q-38 0 -64 -17t-38 -48t-17 -64.5t-5 -77.5v-205h-103v493h103v-61q51 70 154 70z" />
    <glyph glyph-name="Eng" unicode="&#x14a;" horiz-adv-x="723" 
d="M518 697h107v-701q0 -76 -39.5 -125t-122.5 -49q-35 0 -71 7l1 69q19 -5 42 -5q43 0 65.5 20t22.5 49q0 21 -10 38l-309 508v-508h-107v697h111l310 -506v506z" />
    <glyph glyph-name="eng" unicode="&#x14b;" horiz-adv-x="569" 
d="M334 502q82 0 125.5 -49.5t43.5 -139.5v-403q0 -62 -28.5 -92.5t-78.5 -30.5q-33 0 -75 14v83q20 -7 41 -7q38 0 38 39v371q0 24 -2.5 41t-11 39t-29.5 33.5t-53 11.5q-39 0 -65 -17t-38 -48.5t-16.5 -64t-4.5 -75.5v-207h-103v493h103v-62q50 71 154 71z" />
    <glyph glyph-name="Omacron" unicode="&#x14c;" horiz-adv-x="753" 
d="M239 781v61h273v-61h-273zM377 -13q-147 0 -238 99.5t-91 261.5q0 163 91 262.5t238 99.5t237.5 -99.5t90.5 -262.5q0 -162 -90.5 -261.5t-237.5 -99.5zM377 89q101 0 161 70t60 189q0 120 -60 190t-161 70q-102 0 -162 -70t-60 -190t60 -189.5t162 -69.5z" />
    <glyph glyph-name="omacron" unicode="&#x14d;" horiz-adv-x="554" 
d="M139 577v61h273v-61h-273zM277 -9q-109 0 -176.5 73.5t-67.5 182.5t67.5 182t176.5 73t176 -73t67 -182q0 -108 -67 -182t-176 -74zM277 81q69 0 104.5 47t35.5 119t-36 118.5t-104 46.5q-69 0 -105 -46.5t-36 -118.5t36 -119t105 -47z" />
    <glyph glyph-name="Ohungarumlaut" unicode="&#x150;" horiz-adv-x="753" 
d="M246 742l110 159h93l-126 -159h-77zM431 742l110 159h110l-144 -159h-76zM377 -13q-147 0 -238 99.5t-91 261.5q0 163 91 262.5t238 99.5t237.5 -99.5t90.5 -262.5q0 -162 -90.5 -261.5t-237.5 -99.5zM377 89q101 0 161 70t60 189q0 120 -60 190t-161 70q-102 0 -162 -70
t-60 -190t60 -189.5t162 -69.5z" />
    <glyph glyph-name="ohungarumlaut" unicode="&#x151;" horiz-adv-x="554" 
d="M146 538l110 159h93l-126 -159h-77zM331 538l110 159h110l-144 -159h-76zM277 -9q-109 0 -176.5 73.5t-67.5 182.5t67.5 182t176.5 73t176 -73t67 -182q0 -108 -67 -182t-176 -74zM277 81q69 0 104.5 47t35.5 119t-36 118.5t-104 46.5q-69 0 -105 -46.5t-36 -118.5
t36 -119t105 -47z" />
    <glyph glyph-name="OE" unicode="&#x152;" horiz-adv-x="1120" 
d="M1061 598h-355v-191h326v-99h-326v-209h355v-99h-462v71q-87 -84 -222 -84q-147 0 -238 99.5t-91 261.5q0 163 91 262.5t238 99.5q134 0 222 -83v70h462v-99zM377 89q101 0 161 70t60 189q0 120 -60 190t-161 70q-102 0 -162 -70t-60 -190t60 -189.5t162 -69.5z" />
    <glyph glyph-name="oe" unicode="&#x153;" horiz-adv-x="909" 
d="M874 259q0 -23 -3 -45h-346q3 -60 38 -95t97 -35q77 0 126 56l72 -62q-80 -87 -199 -87q-128 0 -191 91q-71 -91 -191 -91q-109 0 -176.5 73.5t-67.5 182.5t67.5 182t176.5 73q121 0 192 -92q62 92 182 92q109 0 166 -69.5t57 -173.5zM525 297h250v2q-2 53 -35.5 85
t-88.5 32q-56 0 -88 -34.5t-38 -84.5zM277 81q69 0 104.5 47t35.5 119t-36 118.5t-104 46.5q-69 0 -105 -46.5t-36 -118.5t36 -119t105 -47z" />
    <glyph glyph-name="Racute" unicode="&#x154;" horiz-adv-x="626" 
d="M496 901l-144 -142h-77l110 142h111zM605 0h-125l-170 296h-44h-63v-296h-106v697h218q235 0 235 -198q0 -150 -134 -190zM203 394h101q70 0 104 24.5t34 78.5t-34 77.5t-104 23.5h-101v-204z" />
    <glyph glyph-name="racute" unicode="&#x155;" horiz-adv-x="404" 
d="M385 697l-144 -142h-77l110 142h111zM317 502q49 0 91 -25l-50 -90q-29 17 -61 17q-56 0 -86.5 -37t-30.5 -110v-257h-103v493h104v-81q18 44 55.5 67t80.5 23z" />
    <glyph glyph-name="uni0156" unicode="&#x156;" horiz-adv-x="626" 
d="M416 309l189 -309h-125l-170 296h-44h-63v-296h-106v697h218q235 0 235 -198q0 -150 -134 -190zM203 394h101q70 0 104 24.5t34 78.5t-34 77.5t-104 23.5h-101v-204zM185 -224l74 170h107l-120 -170h-61z" />
    <glyph glyph-name="uni0157" unicode="&#x157;" horiz-adv-x="404" 
d="M317 502q49 0 91 -25l-50 -90q-29 17 -61 17q-56 0 -86.5 -37t-30.5 -110v-257h-103v493h104v-81q18 44 55.5 67t80.5 23zM75 -224l74 170h107l-120 -170h-61z" />
    <glyph glyph-name="Rcaron" unicode="&#x158;" horiz-adv-x="626" 
d="M467 901l-154 -160l-154 160h81l73 -76l73 76h81zM605 0h-125l-170 296h-44h-63v-296h-106v697h218q235 0 235 -198q0 -150 -134 -190zM203 394h101q70 0 104 24.5t34 78.5t-34 77.5t-104 23.5h-101v-204z" />
    <glyph glyph-name="rcaron" unicode="&#x159;" horiz-adv-x="404" 
d="M357 697l-154 -160l-154 160h81l73 -76l73 76h81zM317 502q49 0 91 -25l-50 -90q-29 17 -61 17q-56 0 -86.5 -37t-30.5 -110v-257h-103v493h104v-81q18 44 55.5 67t80.5 23z" />
    <glyph glyph-name="Sacute" unicode="&#x15a;" horiz-adv-x="563" 
d="M243 759l110 142h111l-144 -142h-77zM290 -12q-102 0 -173.5 56t-86.5 149l107 26q7 -64 48.5 -100t106.5 -36q59 0 93 28t34 76q0 43 -32.5 72t-115.5 61q-108 41 -151.5 86.5t-43.5 118.5q0 83 58 134t152 51q143 0 208 -122l-89 -55q-40 82 -122 82q-43 0 -71.5 -25.5
t-28.5 -61.5q0 -38 31.5 -64.5t113.5 -57.5q112 -43 155 -89.5t43 -120.5q0 -95 -64.5 -151.5t-171.5 -56.5z" />
    <glyph glyph-name="sacute" unicode="&#x15b;" horiz-adv-x="454" 
d="M192 555l110 142h111l-144 -142h-77zM230 -9q-75 0 -131 38t-74 97l83 37q31 -85 118 -85q42 0 66 19.5t24 47.5q0 27 -27 42.5t-66 25t-78 22t-66 44t-27 81.5q0 67 50.5 104.5t126.5 37.5q127 0 183 -105l-80 -44q-36 66 -107 66q-34 0 -54.5 -14t-20.5 -37
q0 -24 27.5 -38.5t67 -24.5t78.5 -24t66.5 -46.5t27.5 -83.5q0 -78 -55 -119t-132 -41z" />
    <glyph glyph-name="Scedilla" unicode="&#x15e;" horiz-adv-x="563" 
d="M526 196q0 -91 -60.5 -147.5t-161.5 -60.5l-31 -42q34 -7 54 -17q47 -27 47 -79q0 -46 -30.5 -76.5t-78.5 -30.5q-51 0 -87 37l33 50q24 -27 56 -27q22 0 34.5 12t12.5 33q0 41 -55 52q-32 5 -67 5l53 86q-86 12 -144 66t-71 136l107 26q7 -64 48.5 -100t106.5 -36
q59 0 93 28t34 76q0 43 -32.5 72t-115.5 61q-108 41 -151.5 86.5t-43.5 118.5q0 83 58 134t152 51q143 0 208 -122l-89 -55q-40 82 -122 82q-43 0 -71.5 -25.5t-28.5 -61.5q0 -38 31.5 -64.5t113.5 -57.5q112 -43 155 -89.5t43 -120.5z" />
    <glyph glyph-name="scedilla" unicode="&#x15f;" horiz-adv-x="454" 
d="M417 151q0 -71 -46.5 -111.5t-115.5 -47.5l-33 -46q34 -7 54 -17q47 -27 47 -79q0 -46 -30.5 -76.5t-78.5 -30.5q-51 0 -87 37l33 50q24 -27 56 -27q22 0 34.5 12t12.5 33q0 41 -55 52q-32 5 -67 5l54 88q-63 9 -108.5 45t-61.5 88l83 37q31 -85 118 -85q42 0 66 19.5
t24 47.5q0 27 -27 42.5t-66 25t-78 22t-66 44t-27 81.5q0 67 50.5 104.5t126.5 37.5q127 0 183 -105l-80 -44q-36 66 -107 66q-34 0 -54.5 -14t-20.5 -37q0 -24 27.5 -38.5t67 -24.5t78.5 -24t66.5 -46.5t27.5 -83.5z" />
    <glyph glyph-name="Scaron" unicode="&#x160;" horiz-adv-x="563" 
d="M282 741l-154 160h81l73 -76l73 76h81zM290 -12q-102 0 -173.5 56t-86.5 149l107 26q7 -64 48.5 -100t106.5 -36q59 0 93 28t34 76q0 43 -32.5 72t-115.5 61q-108 41 -151.5 86.5t-43.5 118.5q0 83 58 134t152 51q143 0 208 -122l-89 -55q-40 82 -122 82
q-43 0 -71.5 -25.5t-28.5 -61.5q0 -38 31.5 -64.5t113.5 -57.5q112 -43 155 -89.5t43 -120.5q0 -95 -64.5 -151.5t-171.5 -56.5z" />
    <glyph glyph-name="scaron" unicode="&#x161;" horiz-adv-x="454" 
d="M230 537l-154 160h81l73 -76l73 76h81zM230 -9q-75 0 -131 38t-74 97l83 37q31 -85 118 -85q42 0 66 19.5t24 47.5q0 27 -27 42.5t-66 25t-78 22t-66 44t-27 81.5q0 67 50.5 104.5t126.5 37.5q127 0 183 -105l-80 -44q-36 66 -107 66q-34 0 -54.5 -14t-20.5 -37
q0 -24 27.5 -38.5t67 -24.5t78.5 -24t66.5 -46.5t27.5 -83.5q0 -78 -55 -119t-132 -41z" />
    <glyph glyph-name="uni0162" unicode="&#x162;" horiz-adv-x="593" 
d="M350 0h-23l-39 -54q34 -7 54 -17q47 -27 47 -79q0 -46 -30.5 -76.5t-78.5 -30.5q-51 0 -87 37l33 50q24 -27 56 -27q22 0 34.5 12t12.5 33q0 41 -55 52q-32 5 -67 5l58 95h-23v598h-225v99h559v-99h-226v-598z" />
    <glyph glyph-name="uni0163" unicode="&#x163;" horiz-adv-x="355" 
d="M256 -71q47 -27 47 -79q0 -46 -30.5 -76.5t-78.5 -30.5q-51 0 -87 37l33 50q24 -27 56 -27q22 0 34.5 12t12.5 33q0 41 -55 52q-32 5 -67 5l58 95q-83 27 -83 131v279h-81v83h81v106l103 77v-183h121v-83h-121v-270q0 -62 62 -62q24 0 59 11l1 -84q-45 -14 -85 -14h-1
l-33 -45q34 -7 54 -17z" />
    <glyph glyph-name="Tcaron" unicode="&#x164;" horiz-adv-x="593" 
d="M296 741l-154 160h81l73 -76l73 76h81zM242 0v598h-225v99h559v-99h-226v-598h-108z" />
    <glyph glyph-name="tcaron" unicode="&#x165;" horiz-adv-x="355" 
d="M418 785l-104 -219h-61l57 219h108zM261 78q24 0 59 11l1 -84q-45 -14 -85 -14q-63 0 -101.5 34.5t-38.5 105.5v279h-81v83h81v106l103 77v-183h121v-83h-121v-270q0 -62 62 -62z" />
    <glyph glyph-name="Tbar" unicode="&#x166;" horiz-adv-x="593" 
d="M576 598h-226v-215h98v-69h-98v-314h-108v314h-99v69h99v215h-225v99h559v-99z" />
    <glyph glyph-name="tbar" unicode="&#x167;" horiz-adv-x="355" 
d="M320 89l1 -84q-45 -14 -85 -14q-63 0 -101.5 34.5t-38.5 105.5v81h-82v69h82v129h-81v83h81v106l103 77v-183h121v-83h-121v-129h120v-69h-120v-72q0 -62 62 -62q24 0 59 11z" />
    <glyph glyph-name="Utilde" unicode="&#x168;" horiz-adv-x="687" 
d="M409 765q-27 0 -48 11.5t-31.5 26t-24 26t-27.5 11.5q-38 0 -38 -70h-60q0 63 27 98.5t75 35.5q30 0 53.5 -19t41 -37.5t33.5 -18.5q15 0 25 19t10 53h63q0 -64 -26.5 -100t-72.5 -36zM343 -13q-129 0 -195 66.5t-66 198.5v445h107v-433q0 -93 36 -133t118 -40
t118.5 40.5t36.5 133.5v432h107v-440q0 -134 -66.5 -202t-195.5 -68z" />
    <glyph glyph-name="utilde" unicode="&#x169;" horiz-adv-x="568" 
d="M211 636q-38 0 -38 -70h-60q0 63 27 98.5t75 35.5q30 0 53.5 -19t41 -37.5t33.5 -18.5q15 0 25 19t10 53h63q0 -64 -26.5 -100t-72.5 -36q-27 0 -48 11.5t-31.5 26t-24 26t-27.5 11.5zM388 493h103v-493h-103v62q-51 -71 -152 -71q-86 0 -128.5 54t-42.5 142v306h103
v-280q0 -19 1 -33.5t6.5 -34.5t15.5 -32.5t29 -22t45 -9.5q38 0 64 18t38 51t16.5 66t4.5 77v200z" />
    <glyph glyph-name="Umacron" unicode="&#x16a;" horiz-adv-x="687" 
d="M207 781v61h273v-61h-273zM343 -13q-129 0 -195 66.5t-66 198.5v445h107v-433q0 -93 36 -133t118 -40t118.5 40.5t36.5 133.5v432h107v-440q0 -134 -66.5 -202t-195.5 -68z" />
    <glyph glyph-name="umacron" unicode="&#x16b;" horiz-adv-x="568" 
d="M413 638v-61h-273v61h273zM388 493h103v-493h-103v62q-51 -71 -152 -71q-86 0 -128.5 54t-42.5 142v306h103v-280q0 -19 1 -33.5t6.5 -34.5t15.5 -32.5t29 -22t45 -9.5q38 0 64 18t38 51t16.5 66t4.5 77v200z" />
    <glyph glyph-name="Uring" unicode="&#x16e;" horiz-adv-x="687" 
d="M344 679q-45 0 -76.5 32t-31.5 76q0 45 32 77t76 32t76.5 -32t32.5 -77q0 -44 -32 -76t-77 -32zM344 735q23 0 37.5 15t14.5 38t-14 37t-38 14q-23 0 -37.5 -14t-14.5 -37q0 -22 15 -37.5t37 -15.5zM343 -13q-129 0 -195 66.5t-66 198.5v445h107v-433q0 -93 36 -133
t118 -40t118.5 40.5t36.5 133.5v432h107v-440q0 -134 -66.5 -202t-195.5 -68z" />
    <glyph glyph-name="uring" unicode="&#x16f;" horiz-adv-x="568" 
d="M277 531q-45 0 -76.5 32t-31.5 76q0 45 32 77t76 32t76.5 -32t32.5 -77q0 -44 -32 -76t-77 -32zM277 691q-23 0 -37.5 -14t-14.5 -37q0 -22 15 -37.5t37 -15.5q23 0 37.5 15t14.5 38t-14 37t-38 14zM388 493h103v-493h-103v62q-51 -71 -152 -71q-86 0 -128.5 54
t-42.5 142v306h103v-280q0 -19 1 -33.5t6.5 -34.5t15.5 -32.5t29 -22t45 -9.5q38 0 64 18t38 51t16.5 66t4.5 77v200z" />
    <glyph glyph-name="Uhungarumlaut" unicode="&#x170;" horiz-adv-x="687" 
d="M213 742l110 159h93l-126 -159h-77zM398 742l110 159h110l-144 -159h-76zM343 -13q-129 0 -195 66.5t-66 198.5v445h107v-433q0 -93 36 -133t118 -40t118.5 40.5t36.5 133.5v432h107v-440q0 -134 -66.5 -202t-195.5 -68z" />
    <glyph glyph-name="uhungarumlaut" unicode="&#x171;" horiz-adv-x="568" 
d="M350 697l-126 -159h-77l110 159h93zM408 538h-76l110 159h110zM388 293v200h103v-493h-103v62q-51 -71 -152 -71q-86 0 -128.5 54t-42.5 142v306h103v-280q0 -19 1 -33.5t6.5 -34.5t15.5 -32.5t29 -22t45 -9.5q38 0 64 18t38 51t16.5 66t4.5 77z" />
    <glyph glyph-name="Uogonek" unicode="&#x172;" horiz-adv-x="687" 
d="M498 697h107v-440q0 -231 -195 -265q-87 -46 -87 -106q0 -41 40 -41q31 0 53 28l52 -37q-40 -55 -103 -55q-45 0 -75 26t-30 69q0 64 63 111q-241 11 -241 265v445h107v-433q0 -93 36 -133t118 -40t118.5 40.5t36.5 133.5v432z" />
    <glyph glyph-name="uogonek" unicode="&#x173;" horiz-adv-x="568" 
d="M482 -127l52 -37q-40 -55 -103 -55q-45 0 -75 26t-30 69q0 75 82 124h-20v62q-51 -71 -152 -71q-86 0 -128.5 54t-42.5 142v306h103v-280q0 -19 1 -33.5t6.5 -34.5t15.5 -32.5t29 -22t45 -9.5q38 0 64 18t38 51t16.5 66t4.5 77v200h103v-493l-11 -6q-11 -5 -17.5 -9
t-19 -12t-20.5 -16.5t-16.5 -19.5t-13 -24t-4.5 -27q0 -41 40 -41q31 0 53 28z" />
    <glyph glyph-name="Wcircumflex" unicode="&#x174;" horiz-adv-x="986" 
d="M339 747l154 169l154 -169h-81l-73 81l-72 -81h-82zM228 0l-207 697h112l154 -534l160 495h92l161 -495l153 534h112l-207 -697h-105l-160 488l-160 -488h-105z" />
    <glyph glyph-name="wcircumflex" unicode="&#x175;" horiz-adv-x="728" 
d="M210 543l154 169l154 -169h-81l-73 81l-72 -81h-82zM162 0l-150 493h110l91 -336l106 336h89l105 -335l93 335h109l-149 -493h-94l-108 348l-109 -348h-93z" />
    <glyph glyph-name="Ycircumflex" unicode="&#x176;" horiz-adv-x="653" 
d="M173 747l154 169l154 -169h-81l-73 81l-72 -81h-82zM273 0v270l-265 427h126l191 -324l193 324h127l-264 -427v-270h-108z" />
    <glyph glyph-name="ycircumflex" unicode="&#x177;" horiz-adv-x="507" 
d="M100 543l154 169l154 -169h-81l-73 81l-72 -81h-82zM115 -204l86 215l-198 482h113l140 -363l134 363h113l-277 -697h-111z" />
    <glyph glyph-name="Ydieresis" unicode="&#x178;" horiz-adv-x="653" 
d="M185 793v108h94v-108h-94zM375 793v108h94v-108h-94zM273 0v270l-265 427h126l191 -324l193 324h127l-264 -427v-270h-108z" />
    <glyph glyph-name="Zacute" unicode="&#x179;" horiz-adv-x="632" 
d="M499 901l-144 -142h-77l110 142h111zM591 697v-79l-412 -519h412v-99h-558v76l416 522h-393v99h535z" />
    <glyph glyph-name="zacute" unicode="&#x17a;" horiz-adv-x="467" 
d="M416 697l-144 -142h-77l110 142h111zM431 493v-76l-265 -330h265v-87h-401v70l275 336h-262v87h388z" />
    <glyph glyph-name="Zdotaccent" unicode="&#x17b;" horiz-adv-x="632" 
d="M371 901v-108h-110v108h110zM591 697v-79l-412 -519h412v-99h-558v76l416 522h-393v99h535z" />
    <glyph glyph-name="zdotaccent" unicode="&#x17c;" horiz-adv-x="467" 
d="M288 697v-108h-110v108h110zM431 493v-76l-265 -330h265v-87h-401v70l275 336h-262v87h388z" />
    <glyph glyph-name="Zcaron" unicode="&#x17d;" horiz-adv-x="632" 
d="M470 901l-154 -160l-154 160h81l73 -76l73 76h81zM591 697v-79l-412 -519h412v-99h-558v76l416 522h-393v99h535z" />
    <glyph glyph-name="zcaron" unicode="&#x17e;" horiz-adv-x="467" 
d="M387 697l-154 -160l-154 160h81l73 -76l73 76h81zM431 493v-76l-265 -330h265v-87h-401v70l275 336h-262v87h388z" />
    <glyph glyph-name="florin" unicode="&#x192;" horiz-adv-x="476" 
d="M45 -218v79q75 0 103.5 31t28.5 110v413h-87v78h87v63q0 68 41 112t102 44q59 0 117 -49l-56 -66q-33 28 -61 28q-24 0 -40 -17t-16 -52v-63h119v-78h-119v-421q0 -212 -219 -212z" />
    <glyph glyph-name="Ohorn" unicode="&#x1a0;" horiz-adv-x="753" 
d="M690 697h79v-42q0 -121 -90 -152q26 -70 26 -155q0 -162 -90.5 -261.5t-237.5 -99.5t-238 99.5t-91 261.5q0 163 91 262.5t238 99.5q88 0 157.5 -37t112.5 -105q43 15 43 79v50zM377 89q101 0 161 70t60 189q0 120 -60 190t-161 70q-102 0 -162 -70t-60 -190t60 -189.5
t162 -69.5z" />
    <glyph glyph-name="ohorn" unicode="&#x1a1;" horiz-adv-x="554" 
d="M526 552h79v-42q0 -60 -26 -102t-79 -54q20 -51 20 -107q0 -108 -67 -182t-176 -74t-176.5 73.5t-67.5 182.5t67.5 182t176.5 73q117 0 185 -84q64 5 64 84v50zM277 81q69 0 104.5 47t35.5 119t-36 118.5t-104 46.5q-69 0 -105 -46.5t-36 -118.5t36 -119t105 -47z" />
    <glyph glyph-name="Uhorn" unicode="&#x1af;" horiz-adv-x="687" 
d="M668 697h79v-42q0 -70 -35 -114t-107 -47v-237q0 -134 -66.5 -202t-195.5 -68t-195 66.5t-66 198.5v445h107v-433q0 -93 36 -133t118 -40t118.5 40.5t36.5 133.5v432h107v-134q63 5 63 84v50z" />
    <glyph glyph-name="uhorn" unicode="&#x1b0;" horiz-adv-x="568" 
d="M494 627h79v-42q0 -115 -82 -149v-436h-103v62q-51 -71 -152 -71q-86 0 -128.5 54t-42.5 142v306h103v-280q0 -19 1 -33.5t6.5 -34.5t15.5 -32.5t29 -22t45 -9.5q38 0 64 18t38 51t16.5 66t4.5 77v200h35q71 0 71 84v50z" />
    <glyph glyph-name="uni01CD" unicode="&#x1cd;" horiz-adv-x="657" 
d="M483 901l-154 -160l-154 160h81l73 -76l73 76h81zM525 0l-57 158h-279l-58 -158h-116l272 697h83l272 -697h-117zM224 255h209l-104 286z" />
    <glyph glyph-name="uni01CE" unicode="&#x1ce;" horiz-adv-x="530" 
d="M414 697l-154 -160l-154 160h81l73 -76l73 76h81zM261 502q96 0 151 -51t55 -141v-310h-94l-8 70q-51 -79 -159 -79q-79 0 -127 43t-48 114q0 86 68 120q50 25 150 25h115v17q0 48 -27.5 75t-76.5 27q-83 0 -139 -77l-75 63q85 104 215 104zM225 78q60 0 99.5 38t39.5 96
v2h-103q-80 0 -105 -20q-22 -15 -22 -48q0 -31 24.5 -49.5t66.5 -18.5z" />
    <glyph glyph-name="uni01CF" unicode="&#x1cf;" horiz-adv-x="300" 
d="M151 741l-154 160h81l73 -76l73 76h81zM97 0v697h107v-697h-107z" />
    <glyph glyph-name="uni01D0" unicode="&#x1d0;" horiz-adv-x="257" 
d="M128 537l-154 160h81l73 -76l73 76h81zM77 0v493h103v-493h-103z" />
    <glyph glyph-name="uni01D1" unicode="&#x1d1;" horiz-adv-x="753" 
d="M377 741l-154 160h81l73 -76l73 76h81zM377 -13q-147 0 -238 99.5t-91 261.5q0 163 91 262.5t238 99.5t237.5 -99.5t90.5 -262.5q0 -162 -90.5 -261.5t-237.5 -99.5zM377 89q101 0 161 70t60 189q0 120 -60 190t-161 70q-102 0 -162 -70t-60 -190t60 -189.5t162 -69.5z
" />
    <glyph glyph-name="uni01D2" unicode="&#x1d2;" horiz-adv-x="554" 
d="M277 537l-154 160h81l73 -76l73 76h81zM277 -9q-109 0 -176.5 73.5t-67.5 182.5t67.5 182t176.5 73t176 -73t67 -182q0 -108 -67 -182t-176 -74zM277 81q69 0 104.5 47t35.5 119t-36 118.5t-104 46.5q-69 0 -105 -46.5t-36 -118.5t36 -119t105 -47z" />
    <glyph glyph-name="uni01D3" unicode="&#x1d3;" horiz-adv-x="687" 
d="M344 741l-154 160h81l73 -76l73 76h81zM343 -13q-129 0 -195 66.5t-66 198.5v445h107v-433q0 -93 36 -133t118 -40t118.5 40.5t36.5 133.5v432h107v-440q0 -134 -66.5 -202t-195.5 -68z" />
    <glyph glyph-name="uni01D4" unicode="&#x1d4;" horiz-adv-x="568" 
d="M432 697l-154 -160l-154 160h81l73 -76l73 76h81zM388 493h103v-493h-103v62q-51 -71 -152 -71q-86 0 -128.5 54t-42.5 142v306h103v-280q0 -19 1 -33.5t6.5 -34.5t15.5 -32.5t29 -22t45 -9.5q38 0 64 18t38 51t16.5 66t4.5 77v200z" />
    <glyph glyph-name="uni01D5" unicode="&#x1d5;" horiz-adv-x="687" 
d="M207 985v61h273v-61h-273zM202 793v108h94v-108h-94zM392 793v108h94v-108h-94zM343 -13q-129 0 -195 66.5t-66 198.5v445h107v-433q0 -93 36 -133t118 -40t118.5 40.5t36.5 133.5v432h107v-440q0 -134 -66.5 -202t-195.5 -68z" />
    <glyph glyph-name="uni01D6" unicode="&#x1d6;" horiz-adv-x="568" 
d="M413 842v-61h-273v61h273zM230 697v-108h-94v108h94zM326 589v108h94v-108h-94zM388 493h103v-493h-103v62q-51 -71 -152 -71q-86 0 -128.5 54t-42.5 142v306h103v-280q0 -19 1 -33.5t6.5 -34.5t15.5 -32.5t29 -22t45 -9.5q38 0 64 18t38 51t16.5 66t4.5 77v200z" />
    <glyph glyph-name="uni01D7" unicode="&#x1d7;" horiz-adv-x="687" 
d="M306 963l110 142h111l-144 -142h-77zM202 793v108h94v-108h-94zM392 793v108h94v-108h-94zM343 -13q-129 0 -195 66.5t-66 198.5v445h107v-433q0 -93 36 -133t118 -40t118.5 40.5t36.5 133.5v432h107v-440q0 -134 -66.5 -202t-195.5 -68z" />
    <glyph glyph-name="uni01D8" unicode="&#x1d8;" horiz-adv-x="568" 
d="M460 901l-144 -142h-77l110 142h111zM230 697v-108h-94v108h94zM420 589h-94v108h94v-108zM388 493h103v-493h-103v62q-51 -71 -152 -71q-86 0 -128.5 54t-42.5 142v306h103v-280q0 -19 1 -33.5t6.5 -34.5t15.5 -32.5t29 -22t45 -9.5q38 0 64 18t38 51t16.5 66t4.5 77
v200z" />
    <glyph glyph-name="uni01D9" unicode="&#x1d9;" horiz-adv-x="687" 
d="M344 945l-154 160h81l73 -76l73 76h81zM202 793v108h94v-108h-94zM392 793v108h94v-108h-94zM343 -13q-129 0 -195 66.5t-66 198.5v445h107v-433q0 -93 36 -133t118 -40t118.5 40.5t36.5 133.5v432h107v-440q0 -134 -66.5 -202t-195.5 -68z" />
    <glyph glyph-name="uni01DA" unicode="&#x1da;" horiz-adv-x="568" 
d="M432 901l-154 -160l-154 160h81l73 -76l73 76h81zM230 589h-94v108h94v-108zM420 589h-94v108h94v-108zM388 493h103v-493h-103v62q-51 -71 -152 -71q-86 0 -128.5 54t-42.5 142v306h103v-280q0 -19 1 -33.5t6.5 -34.5t15.5 -32.5t29 -22t45 -9.5q38 0 64 18t38 51
t16.5 66t4.5 77v200z" />
    <glyph glyph-name="uni01DB" unicode="&#x1db;" horiz-adv-x="687" 
d="M305 963l-136 142h110l104 -142h-78zM202 793v108h94v-108h-94zM392 793v108h94v-108h-94zM343 -13q-129 0 -195 66.5t-66 198.5v445h107v-433q0 -93 36 -133t118 -40t118.5 40.5t36.5 133.5v432h107v-440q0 -134 -66.5 -202t-195.5 -68z" />
    <glyph glyph-name="uni01DC" unicode="&#x1dc;" horiz-adv-x="568" 
d="M317 759h-78l-136 142h110zM230 589h-94v108h94v-108zM420 697v-108h-94v108h94zM388 493h103v-493h-103v62q-51 -71 -152 -71q-86 0 -128.5 54t-42.5 142v306h103v-280q0 -19 1 -33.5t6.5 -34.5t15.5 -32.5t29 -22t45 -9.5q38 0 64 18t38 51t16.5 66t4.5 77v200z" />
    <glyph glyph-name="uni0218" unicode="&#x218;" horiz-adv-x="563" 
d="M290 -12q-102 0 -173.5 56t-86.5 149l107 26q7 -64 48.5 -100t106.5 -36q59 0 93 28t34 76q0 43 -32.5 72t-115.5 61q-108 41 -151.5 86.5t-43.5 118.5q0 83 58 134t152 51q143 0 208 -122l-89 -55q-40 82 -122 82q-43 0 -71.5 -25.5t-28.5 -61.5q0 -38 31.5 -64.5
t113.5 -57.5q112 -43 155 -89.5t43 -120.5q0 -95 -64.5 -151.5t-171.5 -56.5zM154 -224l74 170h107l-120 -170h-61z" />
    <glyph glyph-name="uni0219" unicode="&#x219;" horiz-adv-x="454" 
d="M230 -9q-75 0 -131 38t-74 97l83 37q31 -85 118 -85q42 0 66 19.5t24 47.5q0 27 -27 42.5t-66 25t-78 22t-66 44t-27 81.5q0 67 50.5 104.5t126.5 37.5q127 0 183 -105l-80 -44q-36 66 -107 66q-34 0 -54.5 -14t-20.5 -37q0 -24 27.5 -38.5t67 -24.5t78.5 -24t66.5 -46.5
t27.5 -83.5q0 -78 -55 -119t-132 -41zM102 -224l74 170h107l-120 -170h-61z" />
    <glyph glyph-name="uni021A" unicode="&#x21a;" horiz-adv-x="593" 
d="M242 0v598h-225v99h559v-99h-226v-598h-108zM168 -224l74 170h107l-120 -170h-61z" />
    <glyph glyph-name="uni021B" unicode="&#x21b;" horiz-adv-x="355" 
d="M96 131v279h-81v83h81v106l103 77v-183h121v-83h-121v-270q0 -62 62 -62q24 0 59 11l1 -84q-45 -14 -85 -14q-63 0 -101.5 34.5t-38.5 105.5zM82 -224l74 170h107l-120 -170h-61z" />
    <glyph glyph-name="uni0237" unicode="&#x237;" horiz-adv-x="258" 
d="M72 -213q-34 0 -74 14v83q21 -7 41 -7q39 0 39 39v577h102v-583q0 -61 -29.5 -92t-78.5 -31z" />
    <glyph glyph-name="circumflex" unicode="&#x2c6;" horiz-adv-x="332" 
d="M12 543l154 169l154 -169h-81l-73 81l-72 -81h-82z" />
    <glyph glyph-name="caron" unicode="&#x2c7;" horiz-adv-x="336" 
d="M168 537l-154 160h81l73 -76l73 76h81z" />
    <glyph glyph-name="breve" unicode="&#x2d8;" horiz-adv-x="408" 
d="M204 565q-154 0 -154 132h73q0 -35 22.5 -53.5t58.5 -18.5q37 0 59 19t22 53h73q0 -132 -154 -132z" />
    <glyph glyph-name="dotaccent" unicode="&#x2d9;" horiz-adv-x="260" 
d="M75 589v108h110v-108h-110z" />
    <glyph glyph-name="ring" unicode="&#x2da;" horiz-adv-x="313" 
d="M156 531q-45 0 -76.5 32t-31.5 76q0 45 32 77t76 32t76.5 -32t32.5 -77q0 -44 -32 -76t-77 -32zM156 587q23 0 37.5 15t14.5 38t-14 37t-38 14q-23 0 -37.5 -14t-14.5 -37q0 -22 15 -37.5t37 -15.5z" />
    <glyph glyph-name="ogonek" unicode="&#x2db;" horiz-adv-x="287" 
d="M155 -223q-48 0 -78.5 27t-30.5 72q0 50 35 85t56 40l81 -1q-31 -9 -70.5 -39.5t-39.5 -71.5q0 -48 45 -48q34 0 57 32l53 -36q-42 -60 -108 -60z" />
    <glyph glyph-name="tilde" unicode="&#x2dc;" horiz-adv-x="437" 
d="M283 561q-27 0 -48 11.5t-31.5 26t-24 26t-27.5 11.5q-38 0 -38 -70h-60q0 63 27 98.5t75 35.5q30 0 53.5 -19t41 -37.5t33.5 -18.5q15 0 25 19t10 53h63q0 -64 -26.5 -100t-72.5 -36z" />
    <glyph glyph-name="hungarumlaut" unicode="&#x2dd;" horiz-adv-x="444" 
d="M23 538l110 159h93l-126 -159h-77zM208 538l110 159h110l-144 -159h-76z" />
    <glyph glyph-name="uni02F5" unicode="&#x2f5;" horiz-adv-x="549" 
d="M199 334l-145 159h111l111 -159h-77zM411 334l-145 159h110l111 -159h-76z" />
    <glyph glyph-name="uni02F6" unicode="&#x2f6;" horiz-adv-x="549" 
d="M62 334l111 159h111l-146 -159h-76zM273 334l111 159h111l-145 -159h-77z" />
    <glyph glyph-name="gravecomb" unicode="&#x300;" 
d="M-103 555l-136 142h110l104 -142h-78z" />
    <glyph glyph-name="acutecomb" unicode="&#x301;" 
d="M-238 555l110 142h111l-144 -142h-77z" />
    <glyph glyph-name="uni0302" unicode="&#x302;" 
d="M-320 543l154 169l154 -169h-81l-73 81l-72 -81h-82z" />
    <glyph glyph-name="tildecomb" unicode="&#x303;" 
d="M-154 561q-27 0 -48 11.5t-31.5 26t-24 26t-27.5 11.5q-38 0 -38 -70h-60q0 63 27 98.5t75 35.5q30 0 53.5 -19t41 -37.5t33.5 -18.5q15 0 25 19t10 53h63q0 -64 -26.5 -100t-72.5 -36z" />
    <glyph glyph-name="uni0304" unicode="&#x304;" 
d="M-346 577v61h273v-61h-273z" />
    <glyph glyph-name="uni0306" unicode="&#x306;" 
d="M-204 565q-154 0 -154 132h73q0 -35 22.5 -53.5t58.5 -18.5q37 0 59 19t22 53h73q0 -132 -154 -132z" />
    <glyph glyph-name="uni0307" unicode="&#x307;" 
d="M-185 589v108h110v-108h-110z" />
    <glyph glyph-name="uni0308" unicode="&#x308;" 
d="M-358 589v108h94v-108h-94zM-168 589v108h94v-108h-94z" />
    <glyph glyph-name="hookabovecomb" unicode="&#x309;" 
d="M-168 532l-13 46q20 3 32.5 6t23.5 12t11 24q0 41 -80 41h-15v57h15q66 0 106 -25.5t40 -71.5q0 -20 -8.5 -35t-18.5 -23.5t-30 -15.5t-30.5 -9t-32.5 -6z" />
    <glyph glyph-name="uni030A" unicode="&#x30a;" 
d="M-157 531q-45 0 -76.5 32t-31.5 76q0 45 32 77t76 32t76.5 -32t32.5 -77q0 -44 -32 -76t-77 -32zM-157 587q23 0 37.5 15t14.5 38t-14 37t-38 14q-23 0 -37.5 -14t-14.5 -37q0 -22 15 -37.5t37 -15.5z" />
    <glyph glyph-name="uni030B" unicode="&#x30b;" 
d="M-421 538l110 159h93l-126 -159h-77zM-236 538l110 159h110l-144 -159h-76z" />
    <glyph glyph-name="uni030C" unicode="&#x30c;" 
d="M-168 537l-154 160h81l73 -76l73 76h81z" />
    <glyph glyph-name="uni030F" unicode="&#x30f;" 
d="M-284 538l-144 159h110l110 -159h-76zM-100 538l-126 159h93l110 -159h-77z" />
    <glyph glyph-name="uni0312" unicode="&#x312;" 
d="M-221 553l120 152h61l-74 -152h-107z" />
    <glyph glyph-name="uni031B" unicode="&#x31b;" 
d="M-203 494v69q71 0 71 84v50h79v-42q0 -72 -37 -116.5t-113 -44.5z" />
    <glyph glyph-name="dotbelowcomb" unicode="&#x323;" 
d="M-185 -173v108h110v-108h-110z" />
    <glyph glyph-name="uni0326" unicode="&#x326;" 
d="M-203 -224l74 170h107l-120 -170h-61z" />
    <glyph glyph-name="uni0327" unicode="&#x327;" 
d="M-151 -257q-51 0 -87 37l33 50q24 -27 56 -27q22 0 34.5 12t12.5 33q0 41 -55 52q-32 5 -67 5l58 95h62l-39 -54q34 -7 54 -17q47 -27 47 -79q0 -46 -30.5 -76.5t-78.5 -30.5z" />
    <glyph glyph-name="uni0328" unicode="&#x328;" 
d="M-128 -219q-45 0 -75 26t-30 69q0 76 84 125l81 -1l-11 -6q-11 -5 -17.5 -9t-19 -12t-20.5 -16.5t-16.5 -19.5t-13 -24t-4.5 -27q0 -41 40 -41q31 0 53 28l52 -37q-40 -55 -103 -55z" />
    <glyph glyph-name="uni0335" unicode="&#x335;" 
d="M-379 256v69h305v-69h-305z" />
    <glyph glyph-name="uni0336" unicode="&#x336;" 
d="M-722 250v61h649v-61h-649z" />
    <glyph glyph-name="uni0337" unicode="&#x337;" 
d="M-257 217v107l227 179v-105z" />
    <glyph glyph-name="uni0338" unicode="&#x338;" 
d="M-425 0l356 583h78l-357 -583h-77z" />
    <glyph glyph-name="uni0394" unicode="&#x394;" horiz-adv-x="613" 
d="M18 0l278 697h26l279 -697h-583zM145 87h330l-166 432z" />
    <glyph glyph-name="uni03A9" unicode="&#x3a9;" horiz-adv-x="786" 
d="M584 83h151v-83h-280v89q178 73 178 265q0 110 -64.5 178t-172.5 68t-172 -68t-64 -177q0 -189 178 -266v-89h-280v83h152q-65 45 -103.5 119t-38.5 154q0 141 93 236t236 95q142 0 234.5 -95.5t92.5 -236.5q0 -80 -38 -154.5t-102 -117.5z" />
    <glyph glyph-name="uni03BC" unicode="&#x3bc;" horiz-adv-x="582" 
d="M78 -165v658h102v-286q0 -56 27 -88.5t76 -32.5q56 0 87.5 32.5t31.5 97.5v277h103v-493h-103v66q-52 -75 -148 -75q-60 0 -93 30v-186h-83z" />
    <glyph glyph-name="pi" unicode="&#x3c0;" horiz-adv-x="548" 
d="M458 -9q-111 0 -111 115v300h-168v-406h-87v406h-57v87h467v-87h-69v-286q0 -53 34 -53q13 0 25 8l28 -68q-26 -16 -62 -16z" />
    <glyph glyph-name="Wgrave" unicode="&#x1e80;" horiz-adv-x="986" 
d="M454 759l-136 142h110l104 -142h-78zM228 0l-207 697h112l154 -534l160 495h92l161 -495l153 534h112l-207 -697h-105l-160 488l-160 -488h-105z" />
    <glyph glyph-name="wgrave" unicode="&#x1e81;" horiz-adv-x="728" 
d="M325 555l-136 142h110l104 -142h-78zM162 0l-150 493h110l91 -336l106 336h89l105 -335l93 335h109l-149 -493h-94l-108 348l-109 -348h-93z" />
    <glyph glyph-name="Wacute" unicode="&#x1e82;" horiz-adv-x="986" 
d="M455 759l110 142h111l-144 -142h-77zM228 0l-207 697h112l154 -534l160 495h92l161 -495l153 534h112l-207 -697h-105l-160 488l-160 -488h-105z" />
    <glyph glyph-name="wacute" unicode="&#x1e83;" horiz-adv-x="728" 
d="M325 555l110 142h111l-144 -142h-77zM162 0l-150 493h110l91 -336l106 336h89l105 -335l93 335h109l-149 -493h-94l-108 348l-109 -348h-93z" />
    <glyph glyph-name="Wdieresis" unicode="&#x1e84;" horiz-adv-x="986" 
d="M352 793v108h94v-108h-94zM542 793v108h94v-108h-94zM228 0l-207 697h112l154 -534l160 495h92l161 -495l153 534h112l-207 -697h-105l-160 488l-160 -488h-105z" />
    <glyph glyph-name="wdieresis" unicode="&#x1e85;" horiz-adv-x="728" 
d="M222 589v108h94v-108h-94zM412 589v108h94v-108h-94zM162 0l-150 493h110l91 -336l106 336h89l105 -335l93 335h109l-149 -493h-94l-108 348l-109 -348h-93z" />
    <glyph glyph-name="uni1E9E" unicode="&#x1e9e;" horiz-adv-x="684" 
d="M462 -13q-79 0 -136.5 39.5t-76.5 99.5l91 48q36 -87 125 -87q72 0 72 54q0 28 -25.5 45t-62.5 27.5t-74 23.5t-62.5 42t-25.5 75q0 14 3 27t5.5 21.5t10.5 21t11.5 17t15 17.5t13.5 16l102 119h-113q-80 0 -113.5 -38.5t-33.5 -123.5v-431h-107v431q0 40 4 72t19.5 70
t41.5 63.5t74.5 43t114.5 17.5h251v-90l-167 -196q-24 -28 -24 -49q0 -19 19 -32.5t48 -20t62.5 -18.5t62.5 -27t48 -46t19 -74q0 -68 -54 -112.5t-138 -44.5z" />
    <glyph glyph-name="uni1EA0" unicode="&#x1ea0;" horiz-adv-x="657" 
d="M642 0h-117l-57 158h-279l-58 -158h-116l272 697h83zM224 255h209l-104 286zM274 -173v108h110v-108h-110z" />
    <glyph glyph-name="uni1EA1" unicode="&#x1ea1;" horiz-adv-x="530" 
d="M261 502q96 0 151 -51t55 -141v-310h-94l-8 70q-51 -79 -159 -79q-79 0 -127 43t-48 114q0 86 68 120q50 25 150 25h115v17q0 48 -27.5 75t-76.5 27q-83 0 -139 -77l-75 63q85 104 215 104zM225 78q60 0 99.5 38t39.5 96v2h-103q-80 0 -105 -20q-22 -15 -22 -48
q0 -31 24.5 -49.5t66.5 -18.5zM205 -173v108h110v-108h-110z" />
    <glyph glyph-name="uni1EA2" unicode="&#x1ea2;" horiz-adv-x="657" 
d="M374 824q0 41 -80 41h-15v57h15q66 0 106 -25.5t40 -71.5q0 -20 -8.5 -35t-18.5 -23.5t-30 -15.5t-30.5 -9t-32.5 -6l-13 46q20 3 32.5 6t23.5 12t11 24zM525 0l-57 158h-279l-58 -158h-116l272 697h83l272 -697h-117zM224 255h209l-104 286z" />
    <glyph glyph-name="uni1EA3" unicode="&#x1ea3;" horiz-adv-x="530" 
d="M305 620q0 41 -80 41h-15v57h15q66 0 106 -25.5t40 -71.5q0 -20 -8.5 -35t-18.5 -23.5t-30 -15.5t-30.5 -9t-32.5 -6l-13 46q20 3 32.5 6t23.5 12t11 24zM261 502q96 0 151 -51t55 -141v-310h-94l-8 70q-51 -79 -159 -79q-79 0 -127 43t-48 114q0 86 68 120q50 25 150 25
h115v17q0 48 -27.5 75t-76.5 27q-83 0 -139 -77l-75 63q85 104 215 104zM225 78q60 0 99.5 38t39.5 96v2h-103q-80 0 -105 -20q-22 -15 -22 -48q0 -31 24.5 -49.5t66.5 -18.5z" />
    <glyph glyph-name="uni1EA4" unicode="&#x1ea4;" horiz-adv-x="657" 
d="M511 1089l-144 -142h-77l110 142h111zM329 828l-72 -81h-82l154 169l154 -169h-81zM525 0l-57 158h-279l-58 -158h-116l272 697h83l272 -697h-117zM224 255h209l-104 286z" />
    <glyph glyph-name="uni1EA5" unicode="&#x1ea5;" horiz-adv-x="530" 
d="M443 885l-144 -142h-77l110 142h111zM260 624l-72 -81h-82l154 169l154 -169h-81zM261 502q96 0 151 -51t55 -141v-310h-94l-8 70q-51 -79 -159 -79q-79 0 -127 43t-48 114q0 86 68 120q50 25 150 25h115v17q0 48 -27.5 75t-76.5 27q-83 0 -139 -77l-75 63
q85 104 215 104zM225 78q60 0 99.5 38t39.5 96v2h-103q-80 0 -105 -20q-22 -15 -22 -48q0 -31 24.5 -49.5t66.5 -18.5z" />
    <glyph glyph-name="uni1EA6" unicode="&#x1ea6;" horiz-adv-x="657" 
d="M368 947h-78l-136 142h110zM175 747l154 169l154 -169h-81l-73 81l-72 -81h-82zM525 0l-57 158h-279l-58 -158h-116l272 697h83l272 -697h-117zM224 255h209l-104 286z" />
    <glyph glyph-name="uni1EA7" unicode="&#x1ea7;" horiz-adv-x="530" 
d="M299 743h-78l-136 142h110zM106 543l154 169l154 -169h-81l-73 81l-72 -81h-82zM261 502q96 0 151 -51t55 -141v-310h-94l-8 70q-51 -79 -159 -79q-79 0 -127 43t-48 114q0 86 68 120q50 25 150 25h115v17q0 48 -27.5 75t-76.5 27q-83 0 -139 -77l-75 63q85 104 215 104z
M225 78q60 0 99.5 38t39.5 96v2h-103q-80 0 -105 -20q-22 -15 -22 -48q0 -31 24.5 -49.5t66.5 -18.5z" />
    <glyph glyph-name="uni1EA8" unicode="&#x1ea8;" horiz-adv-x="657" 
d="M374 1012q0 41 -80 41h-15v57h15q66 0 106 -25.5t40 -71.5q0 -20 -8.5 -35t-18.5 -23.5t-30 -15.5t-30.5 -9t-32.5 -6l-13 46q20 3 32.5 6t23.5 12t11 24zM329 828l-72 -81h-82l154 169l154 -169h-81zM525 0l-57 158h-279l-58 -158h-116l272 697h83l272 -697h-117z
M224 255h209l-104 286z" />
    <glyph glyph-name="uni1EA9" unicode="&#x1ea9;" horiz-adv-x="530" 
d="M305 808q0 41 -80 41h-15v57h15q66 0 106 -25.5t40 -71.5q0 -20 -8.5 -35t-18.5 -23.5t-30 -15.5t-30.5 -9t-32.5 -6l-13 46q20 3 32.5 6t23.5 12t11 24zM260 624l-72 -81h-82l154 169l154 -169h-81zM261 502q96 0 151 -51t55 -141v-310h-94l-8 70q-51 -79 -159 -79
q-79 0 -127 43t-48 114q0 86 68 120q50 25 150 25h115v17q0 48 -27.5 75t-76.5 27q-83 0 -139 -77l-75 63q85 104 215 104zM225 78q60 0 99.5 38t39.5 96v2h-103q-80 0 -105 -20q-22 -15 -22 -48q0 -31 24.5 -49.5t66.5 -18.5z" />
    <glyph glyph-name="uni1EAA" unicode="&#x1eaa;" horiz-adv-x="657" 
d="M262 1028q-38 0 -38 -70h-60q0 63 27 98.5t75 35.5q30 0 53.5 -19t41 -37.5t33.5 -18.5q15 0 25 19t10 53h63q0 -64 -26.5 -100t-72.5 -36q-27 0 -48 11.5t-31.5 26t-24 26t-27.5 11.5zM175 747l154 169l154 -169h-81l-73 81l-72 -81h-82zM525 0l-57 158h-279l-58 -158
h-116l272 697h83l272 -697h-117zM224 255h209l-104 286z" />
    <glyph glyph-name="uni1EAB" unicode="&#x1eab;" horiz-adv-x="530" 
d="M194 824q-38 0 -38 -70h-60q0 63 27 98.5t75 35.5q30 0 53.5 -19t41 -37.5t33.5 -18.5q15 0 25 19t10 53h63q0 -64 -26.5 -100t-72.5 -36q-27 0 -48 11.5t-31.5 26t-24 26t-27.5 11.5zM106 543l154 169l154 -169h-81l-73 81l-72 -81h-82zM261 502q96 0 151 -51t55 -141
v-310h-94l-8 70q-51 -79 -159 -79q-79 0 -127 43t-48 114q0 86 68 120q50 25 150 25h115v17q0 48 -27.5 75t-76.5 27q-83 0 -139 -77l-75 63q85 104 215 104zM225 78q60 0 99.5 38t39.5 96v2h-103q-80 0 -105 -20q-22 -15 -22 -48q0 -31 24.5 -49.5t66.5 -18.5z" />
    <glyph glyph-name="uni1EAC" unicode="&#x1eac;" horiz-adv-x="657" 
d="M329 828l-72 -81h-82l154 169l154 -169h-81zM642 0h-117l-57 158h-279l-58 -158h-116l272 697h83zM224 255h209l-104 286zM274 -173v108h110v-108h-110z" />
    <glyph glyph-name="uni1EAD" unicode="&#x1ead;" horiz-adv-x="530" 
d="M260 624l-72 -81h-82l154 169l154 -169h-81zM261 502q96 0 151 -51t55 -141v-310h-94l-8 70q-51 -79 -159 -79q-79 0 -127 43t-48 114q0 86 68 120q50 25 150 25h115v17q0 48 -27.5 75t-76.5 27q-83 0 -139 -77l-75 63q85 104 215 104zM225 78q60 0 99.5 38t39.5 96v2
h-103q-80 0 -105 -20q-22 -15 -22 -48q0 -31 24.5 -49.5t66.5 -18.5zM205 -173v108h110v-108h-110z" />
    <glyph glyph-name="uni1EAE" unicode="&#x1eae;" horiz-adv-x="657" 
d="M511 1105l-144 -142h-77l110 142h111zM329 769q-154 0 -154 132h73q0 -35 22.5 -53.5t58.5 -18.5q37 0 59 19t22 53h73q0 -132 -154 -132zM525 0l-57 158h-279l-58 -158h-116l272 697h83l272 -697h-117zM224 255h209l-104 286z" />
    <glyph glyph-name="uni1EAF" unicode="&#x1eaf;" horiz-adv-x="530" 
d="M443 901l-144 -142h-77l110 142h111zM260 565q-154 0 -154 132h73q0 -35 22.5 -53.5t58.5 -18.5q37 0 59 19t22 53h73q0 -132 -154 -132zM261 502q96 0 151 -51t55 -141v-310h-94l-8 70q-51 -79 -159 -79q-79 0 -127 43t-48 114q0 86 68 120q50 25 150 25h115v17
q0 48 -27.5 75t-76.5 27q-83 0 -139 -77l-75 63q85 104 215 104zM225 78q60 0 99.5 38t39.5 96v2h-103q-80 0 -105 -20q-22 -15 -22 -48q0 -31 24.5 -49.5t66.5 -18.5z" />
    <glyph glyph-name="uni1EB0" unicode="&#x1eb0;" horiz-adv-x="657" 
d="M368 963h-78l-136 142h110zM248 901q0 -35 22.5 -53.5t58.5 -18.5q37 0 59 19t22 53h73q0 -132 -154 -132t-154 132h73zM525 0l-57 158h-279l-58 -158h-116l272 697h83l272 -697h-117zM224 255h209l-104 286z" />
    <glyph glyph-name="uni1EB1" unicode="&#x1eb1;" horiz-adv-x="530" 
d="M299 759h-78l-136 142h110zM179 697q0 -35 22.5 -53.5t58.5 -18.5q37 0 59 19t22 53h73q0 -132 -154 -132t-154 132h73zM261 502q96 0 151 -51t55 -141v-310h-94l-8 70q-51 -79 -159 -79q-79 0 -127 43t-48 114q0 86 68 120q50 25 150 25h115v17q0 48 -27.5 75t-76.5 27
q-83 0 -139 -77l-75 63q85 104 215 104zM225 78q60 0 99.5 38t39.5 96v2h-103q-80 0 -105 -20q-22 -15 -22 -48q0 -31 24.5 -49.5t66.5 -18.5z" />
    <glyph glyph-name="uni1EB2" unicode="&#x1eb2;" horiz-adv-x="657" 
d="M374 1028q0 41 -80 41h-15v57h15q66 0 106 -25.5t40 -71.5q0 -20 -8.5 -35t-18.5 -23.5t-30 -15.5t-30.5 -9t-32.5 -6l-13 46q20 3 32.5 6t23.5 12t11 24zM329 769q-154 0 -154 132h73q0 -35 22.5 -53.5t58.5 -18.5q37 0 59 19t22 53h73q0 -132 -154 -132zM525 0l-57 158
h-279l-58 -158h-116l272 697h83l272 -697h-117zM224 255h209l-104 286z" />
    <glyph glyph-name="uni1EB3" unicode="&#x1eb3;" horiz-adv-x="530" 
d="M305 824q0 41 -80 41h-15v57h15q66 0 106 -25.5t40 -71.5q0 -20 -8.5 -35t-18.5 -23.5t-30 -15.5t-30.5 -9t-32.5 -6l-13 46q20 3 32.5 6t23.5 12t11 24zM260 565q-154 0 -154 132h73q0 -35 22.5 -53.5t58.5 -18.5q37 0 59 19t22 53h73q0 -132 -154 -132zM261 502
q96 0 151 -51t55 -141v-310h-94l-8 70q-51 -79 -159 -79q-79 0 -127 43t-48 114q0 86 68 120q50 25 150 25h115v17q0 48 -27.5 75t-76.5 27q-83 0 -139 -77l-75 63q85 104 215 104zM225 78q60 0 99.5 38t39.5 96v2h-103q-80 0 -105 -20q-22 -15 -22 -48q0 -31 24.5 -49.5
t66.5 -18.5z" />
    <glyph glyph-name="uni1EB4" unicode="&#x1eb4;" horiz-adv-x="657" 
d="M262 1044q-38 0 -38 -70h-60q0 63 27 98.5t75 35.5q30 0 53.5 -19t41 -37.5t33.5 -18.5q15 0 25 19t10 53h63q0 -64 -26.5 -100t-72.5 -36q-27 0 -48 11.5t-31.5 26t-24 26t-27.5 11.5zM329 829q37 0 59 19t22 53h73q0 -132 -154 -132t-154 132h73q0 -35 22.5 -53.5
t58.5 -18.5zM525 0l-57 158h-279l-58 -158h-116l272 697h83l272 -697h-117zM224 255h209l-104 286z" />
    <glyph glyph-name="uni1EB5" unicode="&#x1eb5;" horiz-adv-x="530" 
d="M194 840q-38 0 -38 -70h-60q0 63 27 98.5t75 35.5q30 0 53.5 -19t41 -37.5t33.5 -18.5q15 0 25 19t10 53h63q0 -64 -26.5 -100t-72.5 -36q-27 0 -48 11.5t-31.5 26t-24 26t-27.5 11.5zM260 625q37 0 59 19t22 53h73q0 -132 -154 -132t-154 132h73q0 -35 22.5 -53.5
t58.5 -18.5zM261 502q96 0 151 -51t55 -141v-310h-94l-8 70q-51 -79 -159 -79q-79 0 -127 43t-48 114q0 86 68 120q50 25 150 25h115v17q0 48 -27.5 75t-76.5 27q-83 0 -139 -77l-75 63q85 104 215 104zM225 78q60 0 99.5 38t39.5 96v2h-103q-80 0 -105 -20q-22 -15 -22 -48
q0 -31 24.5 -49.5t66.5 -18.5z" />
    <glyph glyph-name="uni1EB6" unicode="&#x1eb6;" horiz-adv-x="657" 
d="M329 769q-154 0 -154 132h73q0 -35 22.5 -53.5t58.5 -18.5q37 0 59 19t22 53h73q0 -132 -154 -132zM642 0h-117l-57 158h-279l-58 -158h-116l272 697h83zM224 255h209l-104 286zM274 -173v108h110v-108h-110z" />
    <glyph glyph-name="uni1EB7" unicode="&#x1eb7;" horiz-adv-x="530" 
d="M260 565q-154 0 -154 132h73q0 -35 22.5 -53.5t58.5 -18.5q37 0 59 19t22 53h73q0 -132 -154 -132zM261 502q96 0 151 -51t55 -141v-310h-94l-8 70q-51 -79 -159 -79q-79 0 -127 43t-48 114q0 86 68 120q50 25 150 25h115v17q0 48 -27.5 75t-76.5 27q-83 0 -139 -77
l-75 63q85 104 215 104zM225 78q60 0 99.5 38t39.5 96v2h-103q-80 0 -105 -20q-22 -15 -22 -48q0 -31 24.5 -49.5t66.5 -18.5zM205 -173v108h110v-108h-110z" />
    <glyph glyph-name="uni1EB8" unicode="&#x1eb8;" horiz-adv-x="617" 
d="M97 0v697h461v-99h-354v-191h325v-99h-325v-209h354v-99h-461zM272 -173v108h110v-108h-110z" />
    <glyph glyph-name="uni1EB9" unicode="&#x1eb9;" horiz-adv-x="523" 
d="M488 259q0 -23 -3 -45h-346q3 -60 38 -95t97 -35q77 0 126 56l72 -62q-80 -87 -199 -87q-116 0 -176.5 72t-60.5 181q0 108 59 183t170 75q109 0 166 -69.5t57 -173.5zM139 297h250v2q-2 53 -35.5 85t-88.5 32q-56 0 -88 -34.5t-38 -84.5zM218 -173v108h110v-108h-110z
" />
    <glyph glyph-name="uni1EBA" unicode="&#x1eba;" horiz-adv-x="617" 
d="M319 736l-13 46q20 3 32.5 6t23.5 12t11 24q0 41 -80 41h-15v57h15q66 0 106 -25.5t40 -71.5q0 -20 -8.5 -35t-18.5 -23.5t-30 -15.5t-30.5 -9t-32.5 -6zM97 0v697h461v-99h-354v-191h325v-99h-325v-209h354v-99h-461z" />
    <glyph glyph-name="uni1EBB" unicode="&#x1ebb;" horiz-adv-x="523" 
d="M312 620q0 41 -80 41h-15v57h15q66 0 106 -25.5t40 -71.5q0 -20 -8.5 -35t-18.5 -23.5t-30 -15.5t-30.5 -9t-32.5 -6l-13 46q20 3 32.5 6t23.5 12t11 24zM488 259q0 -23 -3 -45h-346q3 -60 38 -95t97 -35q77 0 126 56l72 -62q-80 -87 -199 -87q-116 0 -176.5 72
t-60.5 181q0 108 59 183t170 75q109 0 166 -69.5t57 -173.5zM139 297h250v2q-2 53 -35.5 85t-88.5 32q-56 0 -88 -34.5t-38 -84.5z" />
    <glyph glyph-name="uni1EBC" unicode="&#x1ebc;" horiz-adv-x="617" 
d="M392 765q-27 0 -48 11.5t-31.5 26t-24 26t-27.5 11.5q-38 0 -38 -70h-60q0 63 27 98.5t75 35.5q30 0 53.5 -19t41 -37.5t33.5 -18.5q15 0 25 19t10 53h63q0 -64 -26.5 -100t-72.5 -36zM97 0v697h461v-99h-354v-191h325v-99h-325v-209h354v-99h-461z" />
    <glyph glyph-name="uni1EBD" unicode="&#x1ebd;" horiz-adv-x="523" 
d="M200 636q-38 0 -38 -70h-60q0 63 27 98.5t75 35.5q30 0 53.5 -19t41 -37.5t33.5 -18.5q15 0 25 19t10 53h63q0 -64 -26.5 -100t-72.5 -36q-27 0 -48 11.5t-31.5 26t-24 26t-27.5 11.5zM488 259q0 -23 -3 -45h-346q3 -60 38 -95t97 -35q77 0 126 56l72 -62
q-80 -87 -199 -87q-116 0 -176.5 72t-60.5 181q0 108 59 183t170 75q109 0 166 -69.5t57 -173.5zM139 297h250v2q-2 53 -35.5 85t-88.5 32q-56 0 -88 -34.5t-38 -84.5z" />
    <glyph glyph-name="uni1EBE" unicode="&#x1ebe;" horiz-adv-x="617" 
d="M289 947l110 142h111l-144 -142h-77zM173 747l154 169l154 -169h-81l-73 81l-72 -81h-82zM97 0v697h461v-99h-354v-191h325v-99h-325v-209h354v-99h-461z" />
    <glyph glyph-name="uni1EBF" unicode="&#x1ebf;" horiz-adv-x="523" 
d="M449 885l-144 -142h-77l110 142h111zM266 624l-72 -81h-82l154 169l154 -169h-81zM488 259q0 -23 -3 -45h-346q3 -60 38 -95t97 -35q77 0 126 56l72 -62q-80 -87 -199 -87q-116 0 -176.5 72t-60.5 181q0 108 59 183t170 75q109 0 166 -69.5t57 -173.5zM139 297h250v2
q-2 53 -35.5 85t-88.5 32q-56 0 -88 -34.5t-38 -84.5z" />
    <glyph glyph-name="uni1EC0" unicode="&#x1ec0;" horiz-adv-x="617" 
d="M288 947l-136 142h110l104 -142h-78zM173 747l154 169l154 -169h-81l-73 81l-72 -81h-82zM97 0v697h461v-99h-354v-191h325v-99h-325v-209h354v-99h-461z" />
    <glyph glyph-name="uni1EC1" unicode="&#x1ec1;" horiz-adv-x="523" 
d="M305 743h-78l-136 142h110zM112 543l154 169l154 -169h-81l-73 81l-72 -81h-82zM488 259q0 -23 -3 -45h-346q3 -60 38 -95t97 -35q77 0 126 56l72 -62q-80 -87 -199 -87q-116 0 -176.5 72t-60.5 181q0 108 59 183t170 75q109 0 166 -69.5t57 -173.5zM139 297h250v2
q-2 53 -35.5 85t-88.5 32q-56 0 -88 -34.5t-38 -84.5z" />
    <glyph glyph-name="uni1EC2" unicode="&#x1ec2;" horiz-adv-x="617" 
d="M319 924l-13 46q20 3 32.5 6t23.5 12t11 24q0 41 -80 41h-15v57h15q66 0 106 -25.5t40 -71.5q0 -20 -8.5 -35t-18.5 -23.5t-30 -15.5t-30.5 -9t-32.5 -6zM173 747l154 169l154 -169h-81l-73 81l-72 -81h-82zM97 0v697h461v-99h-354v-191h325v-99h-325v-209h354v-99h-461z
" />
    <glyph glyph-name="uni1EC3" unicode="&#x1ec3;" horiz-adv-x="523" 
d="M312 808q0 41 -80 41h-15v57h15q66 0 106 -25.5t40 -71.5q0 -20 -8.5 -35t-18.5 -23.5t-30 -15.5t-30.5 -9t-32.5 -6l-13 46q20 3 32.5 6t23.5 12t11 24zM266 624l-72 -81h-82l154 169l154 -169h-81zM488 259q0 -23 -3 -45h-346q3 -60 38 -95t97 -35q77 0 126 56l72 -62
q-80 -87 -199 -87q-116 0 -176.5 72t-60.5 181q0 108 59 183t170 75q109 0 166 -69.5t57 -173.5zM139 297h250v2q-2 53 -35.5 85t-88.5 32q-56 0 -88 -34.5t-38 -84.5z" />
    <glyph glyph-name="uni1EC4" unicode="&#x1ec4;" horiz-adv-x="617" 
d="M392 953q-27 0 -48 11.5t-31.5 26t-24 26t-27.5 11.5q-38 0 -38 -70h-60q0 63 27 98.5t75 35.5q30 0 53.5 -19t41 -37.5t33.5 -18.5q15 0 25 19t10 53h63q0 -64 -26.5 -100t-72.5 -36zM173 747l154 169l154 -169h-81l-73 81l-72 -81h-82zM97 0v697h461v-99h-354v-191h325
v-99h-325v-209h354v-99h-461z" />
    <glyph glyph-name="uni1EC5" unicode="&#x1ec5;" horiz-adv-x="523" 
d="M200 824q-38 0 -38 -70h-60q0 63 27 98.5t75 35.5q30 0 53.5 -19t41 -37.5t33.5 -18.5q15 0 25 19t10 53h63q0 -64 -26.5 -100t-72.5 -36q-27 0 -48 11.5t-31.5 26t-24 26t-27.5 11.5zM112 543l154 169l154 -169h-81l-73 81l-72 -81h-82zM488 259q0 -23 -3 -45h-346
q3 -60 38 -95t97 -35q77 0 126 56l72 -62q-80 -87 -199 -87q-116 0 -176.5 72t-60.5 181q0 108 59 183t170 75q109 0 166 -69.5t57 -173.5zM139 297h250v2q-2 53 -35.5 85t-88.5 32q-56 0 -88 -34.5t-38 -84.5z" />
    <glyph glyph-name="uni1EC6" unicode="&#x1ec6;" horiz-adv-x="617" 
d="M173 747l154 169l154 -169h-81l-73 81l-72 -81h-82zM97 0v697h461v-99h-354v-191h325v-99h-325v-209h354v-99h-461zM272 -173v108h110v-108h-110z" />
    <glyph glyph-name="uni1EC7" unicode="&#x1ec7;" horiz-adv-x="523" 
d="M266 624l-72 -81h-82l154 169l154 -169h-81zM488 259q0 -23 -3 -45h-346q3 -60 38 -95t97 -35q77 0 126 56l72 -62q-80 -87 -199 -87q-116 0 -176.5 72t-60.5 181q0 108 59 183t170 75q109 0 166 -69.5t57 -173.5zM139 297h250v2q-2 53 -35.5 85t-88.5 32
q-56 0 -88 -34.5t-38 -84.5zM218 -173v108h110v-108h-110z" />
    <glyph glyph-name="uni1EC8" unicode="&#x1ec8;" horiz-adv-x="300" 
d="M142 736l-13 46q20 3 32.5 6t23.5 12t11 24q0 41 -80 41h-15v57h15q66 0 106 -25.5t40 -71.5q0 -20 -8.5 -35t-18.5 -23.5t-30 -15.5t-30.5 -9t-32.5 -6zM97 0v697h107v-697h-107z" />
    <glyph glyph-name="uni1EC9" unicode="&#x1ec9;" horiz-adv-x="257" 
d="M120 532l-13 46q20 3 32.5 6t23.5 12t11 24q0 41 -80 41h-15v57h15q66 0 106 -25.5t40 -71.5q0 -20 -8.5 -35t-18.5 -23.5t-30 -15.5t-30.5 -9t-32.5 -6zM77 0v493h103v-493h-103z" />
    <glyph glyph-name="uni1ECA" unicode="&#x1eca;" horiz-adv-x="300" 
d="M97 0v697h107v-697h-107zM96 -173v108h110v-108h-110z" />
    <glyph glyph-name="uni1ECB" unicode="&#x1ecb;" horiz-adv-x="257" 
d="M73 589v108h110v-108h-110zM77 0v493h103v-493h-103zM73 -173v108h110v-108h-110z" />
    <glyph glyph-name="uni1ECC" unicode="&#x1ecc;" horiz-adv-x="753" 
d="M377 -13q-147 0 -238 99.5t-91 261.5q0 163 91 262.5t238 99.5t237.5 -99.5t90.5 -262.5q0 -162 -90.5 -261.5t-237.5 -99.5zM377 89q101 0 161 70t60 189q0 120 -60 190t-161 70q-102 0 -162 -70t-60 -190t60 -189.5t162 -69.5zM322 -173v108h110v-108h-110z" />
    <glyph glyph-name="uni1ECD" unicode="&#x1ecd;" horiz-adv-x="554" 
d="M277 -9q-109 0 -176.5 73.5t-67.5 182.5t67.5 182t176.5 73t176 -73t67 -182q0 -108 -67 -182t-176 -74zM277 81q69 0 104.5 47t35.5 119t-36 118.5t-104 46.5q-69 0 -105 -46.5t-36 -118.5t36 -119t105 -47zM222 -173v108h110v-108h-110z" />
    <glyph glyph-name="uni1ECE" unicode="&#x1ece;" horiz-adv-x="753" 
d="M368 736l-13 46q20 3 32.5 6t23.5 12t11 24q0 41 -80 41h-15v57h15q66 0 106 -25.5t40 -71.5q0 -20 -8.5 -35t-18.5 -23.5t-30 -15.5t-30.5 -9t-32.5 -6zM377 -13q-147 0 -238 99.5t-91 261.5q0 163 91 262.5t238 99.5t237.5 -99.5t90.5 -262.5q0 -162 -90.5 -261.5
t-237.5 -99.5zM377 89q101 0 161 70t60 189q0 120 -60 190t-161 70q-102 0 -162 -70t-60 -190t60 -189.5t162 -69.5z" />
    <glyph glyph-name="uni1ECF" unicode="&#x1ecf;" horiz-adv-x="554" 
d="M268 532l-13 46q20 3 32.5 6t23.5 12t11 24q0 41 -80 41h-15v57h15q66 0 106 -25.5t40 -71.5q0 -20 -8.5 -35t-18.5 -23.5t-30 -15.5t-30.5 -9t-32.5 -6zM277 -9q-109 0 -176.5 73.5t-67.5 182.5t67.5 182t176.5 73t176 -73t67 -182q0 -108 -67 -182t-176 -74zM277 81
q69 0 104.5 47t35.5 119t-36 118.5t-104 46.5q-69 0 -105 -46.5t-36 -118.5t36 -119t105 -47z" />
    <glyph glyph-name="uni1ED0" unicode="&#x1ed0;" horiz-adv-x="753" 
d="M338 947l110 142h111l-144 -142h-77zM223 747l154 169l154 -169h-81l-73 81l-72 -81h-82zM377 -13q-147 0 -238 99.5t-91 261.5q0 163 91 262.5t238 99.5t237.5 -99.5t90.5 -262.5q0 -162 -90.5 -261.5t-237.5 -99.5zM377 89q101 0 161 70t60 189q0 120 -60 190t-161 70
q-102 0 -162 -70t-60 -190t60 -189.5t162 -69.5z" />
    <glyph glyph-name="uni1ED1" unicode="&#x1ed1;" horiz-adv-x="554" 
d="M238 743l110 142h111l-144 -142h-77zM123 543l154 169l154 -169h-81l-73 81l-72 -81h-82zM277 -9q-109 0 -176.5 73.5t-67.5 182.5t67.5 182t176.5 73t176 -73t67 -182q0 -108 -67 -182t-176 -74zM277 81q69 0 104.5 47t35.5 119t-36 118.5t-104 46.5q-69 0 -105 -46.5
t-36 -118.5t36 -119t105 -47z" />
    <glyph glyph-name="uni1ED2" unicode="&#x1ed2;" horiz-adv-x="753" 
d="M338 947l-136 142h110l104 -142h-78zM223 747l154 169l154 -169h-81l-73 81l-72 -81h-82zM377 -13q-147 0 -238 99.5t-91 261.5q0 163 91 262.5t238 99.5t237.5 -99.5t90.5 -262.5q0 -162 -90.5 -261.5t-237.5 -99.5zM377 89q101 0 161 70t60 189q0 120 -60 190t-161 70
q-102 0 -162 -70t-60 -190t60 -189.5t162 -69.5z" />
    <glyph glyph-name="uni1ED3" unicode="&#x1ed3;" horiz-adv-x="554" 
d="M238 743l-136 142h110l104 -142h-78zM123 543l154 169l154 -169h-81l-73 81l-72 -81h-82zM277 -9q-109 0 -176.5 73.5t-67.5 182.5t67.5 182t176.5 73t176 -73t67 -182q0 -108 -67 -182t-176 -74zM277 81q69 0 104.5 47t35.5 119t-36 118.5t-104 46.5q-69 0 -105 -46.5
t-36 -118.5t36 -119t105 -47z" />
    <glyph glyph-name="uni1ED4" unicode="&#x1ed4;" horiz-adv-x="753" 
d="M368 924l-13 46q20 3 32.5 6t23.5 12t11 24q0 41 -80 41h-15v57h15q66 0 106 -25.5t40 -71.5q0 -20 -8.5 -35t-18.5 -23.5t-30 -15.5t-30.5 -9t-32.5 -6zM223 747l154 169l154 -169h-81l-73 81l-72 -81h-82zM377 -13q-147 0 -238 99.5t-91 261.5q0 163 91 262.5t238 99.5
t237.5 -99.5t90.5 -262.5q0 -162 -90.5 -261.5t-237.5 -99.5zM377 89q101 0 161 70t60 189q0 120 -60 190t-161 70q-102 0 -162 -70t-60 -190t60 -189.5t162 -69.5z" />
    <glyph glyph-name="uni1ED5" unicode="&#x1ed5;" horiz-adv-x="554" 
d="M268 720l-13 46q20 3 32.5 6t23.5 12t11 24q0 41 -80 41h-15v57h15q66 0 106 -25.5t40 -71.5q0 -20 -8.5 -35t-18.5 -23.5t-30 -15.5t-30.5 -9t-32.5 -6zM123 543l154 169l154 -169h-81l-73 81l-72 -81h-82zM277 -9q-109 0 -176.5 73.5t-67.5 182.5t67.5 182t176.5 73
t176 -73t67 -182q0 -108 -67 -182t-176 -74zM277 81q69 0 104.5 47t35.5 119t-36 118.5t-104 46.5q-69 0 -105 -46.5t-36 -118.5t36 -119t105 -47z" />
    <glyph glyph-name="uni1ED6" unicode="&#x1ed6;" horiz-adv-x="753" 
d="M441 953q-27 0 -48 11.5t-31.5 26t-24 26t-27.5 11.5q-38 0 -38 -70h-60q0 63 27 98.5t75 35.5q30 0 53.5 -19t41 -37.5t33.5 -18.5q15 0 25 19t10 53h63q0 -64 -26.5 -100t-72.5 -36zM223 747l154 169l154 -169h-81l-73 81l-72 -81h-82zM377 -13q-147 0 -238 99.5
t-91 261.5q0 163 91 262.5t238 99.5t237.5 -99.5t90.5 -262.5q0 -162 -90.5 -261.5t-237.5 -99.5zM377 89q101 0 161 70t60 189q0 120 -60 190t-161 70q-102 0 -162 -70t-60 -190t60 -189.5t162 -69.5z" />
    <glyph glyph-name="uni1ED7" unicode="&#x1ed7;" horiz-adv-x="554" 
d="M341 749q-27 0 -48 11.5t-31.5 26t-24 26t-27.5 11.5q-38 0 -38 -70h-60q0 63 27 98.5t75 35.5q30 0 53.5 -19t41 -37.5t33.5 -18.5q15 0 25 19t10 53h63q0 -64 -26.5 -100t-72.5 -36zM123 543l154 169l154 -169h-81l-73 81l-72 -81h-82zM277 -9q-109 0 -176.5 73.5
t-67.5 182.5t67.5 182t176.5 73t176 -73t67 -182q0 -108 -67 -182t-176 -74zM277 81q69 0 104.5 47t35.5 119t-36 118.5t-104 46.5q-69 0 -105 -46.5t-36 -118.5t36 -119t105 -47z" />
    <glyph glyph-name="uni1ED8" unicode="&#x1ed8;" horiz-adv-x="753" 
d="M223 747l154 169l154 -169h-81l-73 81l-72 -81h-82zM377 -13q-147 0 -238 99.5t-91 261.5q0 163 91 262.5t238 99.5t237.5 -99.5t90.5 -262.5q0 -162 -90.5 -261.5t-237.5 -99.5zM377 89q101 0 161 70t60 189q0 120 -60 190t-161 70q-102 0 -162 -70t-60 -190t60 -189.5
t162 -69.5zM322 -173v108h110v-108h-110z" />
    <glyph glyph-name="uni1ED9" unicode="&#x1ed9;" horiz-adv-x="554" 
d="M123 543l154 169l154 -169h-81l-73 81l-72 -81h-82zM277 -9q-109 0 -176.5 73.5t-67.5 182.5t67.5 182t176.5 73t176 -73t67 -182q0 -108 -67 -182t-176 -74zM277 81q69 0 104.5 47t35.5 119t-36 118.5t-104 46.5q-69 0 -105 -46.5t-36 -118.5t36 -119t105 -47zM222 -173
v108h110v-108h-110z" />
    <glyph glyph-name="uni1EDA" unicode="&#x1eda;" horiz-adv-x="753" 
d="M559 901l-144 -142h-77l110 142h111zM690 697h79v-42q0 -121 -90 -152q26 -70 26 -155q0 -162 -90.5 -261.5t-237.5 -99.5t-238 99.5t-91 261.5q0 163 91 262.5t238 99.5q88 0 157.5 -37t112.5 -105q43 15 43 79v50zM377 89q101 0 161 70t60 189q0 120 -60 190t-161 70
q-102 0 -162 -70t-60 -190t60 -189.5t162 -69.5z" />
    <glyph glyph-name="uni1EDB" unicode="&#x1edb;" horiz-adv-x="554" 
d="M459 697l-144 -142h-77l110 142h111zM526 552h79v-42q0 -60 -26 -102t-79 -54q20 -51 20 -107q0 -108 -67 -182t-176 -74t-176.5 73.5t-67.5 182.5t67.5 182t176.5 73q117 0 185 -84q64 5 64 84v50zM277 81q69 0 104.5 47t35.5 119t-36 118.5t-104 46.5q-69 0 -105 -46.5
t-36 -118.5t36 -119t105 -47z" />
    <glyph glyph-name="uni1EDC" unicode="&#x1edc;" horiz-adv-x="753" 
d="M416 759h-78l-136 142h110zM690 697h79v-42q0 -121 -90 -152q26 -70 26 -155q0 -162 -90.5 -261.5t-237.5 -99.5t-238 99.5t-91 261.5q0 163 91 262.5t238 99.5q88 0 157.5 -37t112.5 -105q43 15 43 79v50zM377 89q101 0 161 70t60 189q0 120 -60 190t-161 70
q-102 0 -162 -70t-60 -190t60 -189.5t162 -69.5z" />
    <glyph glyph-name="uni1EDD" unicode="&#x1edd;" horiz-adv-x="554" 
d="M316 555h-78l-136 142h110zM526 552h79v-42q0 -60 -26 -102t-79 -54q20 -51 20 -107q0 -108 -67 -182t-176 -74t-176.5 73.5t-67.5 182.5t67.5 182t176.5 73q117 0 185 -84q64 5 64 84v50zM277 81q69 0 104.5 47t35.5 119t-36 118.5t-104 46.5q-69 0 -105 -46.5
t-36 -118.5t36 -119t105 -47z" />
    <glyph glyph-name="uni1EDE" unicode="&#x1ede;" horiz-adv-x="753" 
d="M422 824q0 41 -80 41h-15v57h15q66 0 106 -25.5t40 -71.5q0 -20 -8.5 -35t-18.5 -23.5t-30 -15.5t-30.5 -9t-32.5 -6l-13 46q20 3 32.5 6t23.5 12t11 24zM690 697h79v-42q0 -121 -90 -152q26 -70 26 -155q0 -162 -90.5 -261.5t-237.5 -99.5t-238 99.5t-91 261.5
q0 163 91 262.5t238 99.5q88 0 157.5 -37t112.5 -105q43 15 43 79v50zM377 89q101 0 161 70t60 189q0 120 -60 190t-161 70q-102 0 -162 -70t-60 -190t60 -189.5t162 -69.5z" />
    <glyph glyph-name="uni1EDF" unicode="&#x1edf;" horiz-adv-x="554" 
d="M322 620q0 41 -80 41h-15v57h15q66 0 106 -25.5t40 -71.5q0 -20 -8.5 -35t-18.5 -23.5t-30 -15.5t-30.5 -9t-32.5 -6l-13 46q20 3 32.5 6t23.5 12t11 24zM526 552h79v-42q0 -60 -26 -102t-79 -54q20 -51 20 -107q0 -108 -67 -182t-176 -74t-176.5 73.5t-67.5 182.5
t67.5 182t176.5 73q117 0 185 -84q64 5 64 84v50zM277 81q69 0 104.5 47t35.5 119t-36 118.5t-104 46.5q-69 0 -105 -46.5t-36 -118.5t36 -119t105 -47z" />
    <glyph glyph-name="uni1EE0" unicode="&#x1ee0;" horiz-adv-x="753" 
d="M310 840q-38 0 -38 -70h-60q0 63 27 98.5t75 35.5q30 0 53.5 -19t41 -37.5t33.5 -18.5q15 0 25 19t10 53h63q0 -64 -26.5 -100t-72.5 -36q-27 0 -48 11.5t-31.5 26t-24 26t-27.5 11.5zM690 697h79v-42q0 -121 -90 -152q26 -70 26 -155q0 -162 -90.5 -261.5t-237.5 -99.5
t-238 99.5t-91 261.5q0 163 91 262.5t238 99.5q88 0 157.5 -37t112.5 -105q43 15 43 79v50zM377 89q101 0 161 70t60 189q0 120 -60 190t-161 70q-102 0 -162 -70t-60 -190t60 -189.5t162 -69.5z" />
    <glyph glyph-name="uni1EE1" unicode="&#x1ee1;" horiz-adv-x="554" 
d="M210 636q-38 0 -38 -70h-60q0 63 27 98.5t75 35.5q30 0 53.5 -19t41 -37.5t33.5 -18.5q15 0 25 19t10 53h63q0 -64 -26.5 -100t-72.5 -36q-27 0 -48 11.5t-31.5 26t-24 26t-27.5 11.5zM526 552h79v-42q0 -60 -26 -102t-79 -54q20 -51 20 -107q0 -108 -67 -182t-176 -74
t-176.5 73.5t-67.5 182.5t67.5 182t176.5 73q117 0 185 -84q64 5 64 84v50zM277 81q69 0 104.5 47t35.5 119t-36 118.5t-104 46.5q-69 0 -105 -46.5t-36 -118.5t36 -119t105 -47z" />
    <glyph glyph-name="uni1EE2" unicode="&#x1ee2;" horiz-adv-x="753" 
d="M690 697h79v-42q0 -121 -90 -152q26 -70 26 -155q0 -162 -90.5 -261.5t-237.5 -99.5t-238 99.5t-91 261.5q0 163 91 262.5t238 99.5q88 0 157.5 -37t112.5 -105q43 15 43 79v50zM377 89q101 0 161 70t60 189q0 120 -60 190t-161 70q-102 0 -162 -70t-60 -190t60 -189.5
t162 -69.5zM322 -173v108h110v-108h-110z" />
    <glyph glyph-name="uni1EE3" unicode="&#x1ee3;" horiz-adv-x="554" 
d="M526 552h79v-42q0 -60 -26 -102t-79 -54q20 -51 20 -107q0 -108 -67 -182t-176 -74t-176.5 73.5t-67.5 182.5t67.5 182t176.5 73q117 0 185 -84q64 5 64 84v50zM277 81q69 0 104.5 47t35.5 119t-36 118.5t-104 46.5q-69 0 -105 -46.5t-36 -118.5t36 -119t105 -47z
M222 -173v108h110v-108h-110z" />
    <glyph glyph-name="uni1EE4" unicode="&#x1ee4;" horiz-adv-x="687" 
d="M343 -13q-129 0 -195 66.5t-66 198.5v445h107v-433q0 -93 36 -133t118 -40t118.5 40.5t36.5 133.5v432h107v-440q0 -134 -66.5 -202t-195.5 -68zM289 -173v108h110v-108h-110z" />
    <glyph glyph-name="uni1EE5" unicode="&#x1ee5;" horiz-adv-x="568" 
d="M388 493h103v-493h-103v62q-51 -71 -152 -71q-86 0 -128.5 54t-42.5 142v306h103v-280q0 -19 1 -33.5t6.5 -34.5t15.5 -32.5t29 -22t45 -9.5q38 0 64 18t38 51t16.5 66t4.5 77v200zM229 -173v108h110v-108h-110z" />
    <glyph glyph-name="uni1EE6" unicode="&#x1ee6;" horiz-adv-x="687" 
d="M335 736l-13 46q20 3 32.5 6t23.5 12t11 24q0 41 -80 41h-15v57h15q66 0 106 -25.5t40 -71.5q0 -20 -8.5 -35t-18.5 -23.5t-30 -15.5t-30.5 -9t-32.5 -6zM343 -13q-129 0 -195 66.5t-66 198.5v445h107v-433q0 -93 36 -133t118 -40t118.5 40.5t36.5 133.5v432h107v-440
q0 -134 -66.5 -202t-195.5 -68z" />
    <glyph glyph-name="uni1EE7" unicode="&#x1ee7;" horiz-adv-x="568" 
d="M323 620q0 41 -80 41h-15v57h15q66 0 106 -25.5t40 -71.5q0 -20 -8.5 -35t-18.5 -23.5t-30 -15.5t-30.5 -9t-32.5 -6l-13 46q20 3 32.5 6t23.5 12t11 24zM388 493h103v-493h-103v62q-51 -71 -152 -71q-86 0 -128.5 54t-42.5 142v306h103v-280q0 -19 1 -33.5t6.5 -34.5
t15.5 -32.5t29 -22t45 -9.5q38 0 64 18t38 51t16.5 66t4.5 77v200z" />
    <glyph glyph-name="uni1EE8" unicode="&#x1ee8;" horiz-adv-x="687" 
d="M527 901l-144 -142h-77l110 142h111zM668 697h79v-42q0 -70 -35 -114t-107 -47v-237q0 -134 -66.5 -202t-195.5 -68t-195 66.5t-66 198.5v445h107v-433q0 -93 36 -133t118 -40t118.5 40.5t36.5 133.5v432h107v-134q63 5 63 84v50z" />
    <glyph glyph-name="uni1EE9" unicode="&#x1ee9;" horiz-adv-x="568" 
d="M460 697l-144 -142h-77l110 142h111zM494 627h79v-42q0 -115 -82 -149v-436h-103v62q-51 -71 -152 -71q-86 0 -128.5 54t-42.5 142v306h103v-280q0 -19 1 -33.5t6.5 -34.5t15.5 -32.5t29 -22t45 -9.5q38 0 64 18t38 51t16.5 66t4.5 77v200h35q71 0 71 84v50z" />
    <glyph glyph-name="uni1EEA" unicode="&#x1eea;" horiz-adv-x="687" 
d="M383 759h-78l-136 142h110zM668 697h79v-42q0 -70 -35 -114t-107 -47v-237q0 -134 -66.5 -202t-195.5 -68t-195 66.5t-66 198.5v445h107v-433q0 -93 36 -133t118 -40t118.5 40.5t36.5 133.5v432h107v-134q63 5 63 84v50z" />
    <glyph glyph-name="uni1EEB" unicode="&#x1eeb;" horiz-adv-x="568" 
d="M317 555h-78l-136 142h110zM494 627h79v-42q0 -115 -82 -149v-436h-103v62q-51 -71 -152 -71q-86 0 -128.5 54t-42.5 142v306h103v-280q0 -19 1 -33.5t6.5 -34.5t15.5 -32.5t29 -22t45 -9.5q38 0 64 18t38 51t16.5 66t4.5 77v200h35q71 0 71 84v50z" />
    <glyph glyph-name="uni1EEC" unicode="&#x1eec;" horiz-adv-x="687" 
d="M389 824q0 41 -80 41h-15v57h15q66 0 106 -25.5t40 -71.5q0 -20 -8.5 -35t-18.5 -23.5t-30 -15.5t-30.5 -9t-32.5 -6l-13 46q20 3 32.5 6t23.5 12t11 24zM668 697h79v-42q0 -70 -35 -114t-107 -47v-237q0 -134 -66.5 -202t-195.5 -68t-195 66.5t-66 198.5v445h107v-433
q0 -93 36 -133t118 -40t118.5 40.5t36.5 133.5v432h107v-134q63 5 63 84v50z" />
    <glyph glyph-name="uni1EED" unicode="&#x1eed;" horiz-adv-x="568" 
d="M323 620q0 41 -80 41h-15v57h15q66 0 106 -25.5t40 -71.5q0 -20 -8.5 -35t-18.5 -23.5t-30 -15.5t-30.5 -9t-32.5 -6l-13 46q20 3 32.5 6t23.5 12t11 24zM494 627h79v-42q0 -115 -82 -149v-436h-103v62q-51 -71 -152 -71q-86 0 -128.5 54t-42.5 142v306h103v-280
q0 -19 1 -33.5t6.5 -34.5t15.5 -32.5t29 -22t45 -9.5q38 0 64 18t38 51t16.5 66t4.5 77v200h35q71 0 71 84v50z" />
    <glyph glyph-name="uni1EEE" unicode="&#x1eee;" horiz-adv-x="687" 
d="M278 840q-38 0 -38 -70h-60q0 63 27 98.5t75 35.5q30 0 53.5 -19t41 -37.5t33.5 -18.5q15 0 25 19t10 53h63q0 -64 -26.5 -100t-72.5 -36q-27 0 -48 11.5t-31.5 26t-24 26t-27.5 11.5zM668 697h79v-42q0 -70 -35 -114t-107 -47v-237q0 -134 -66.5 -202t-195.5 -68
t-195 66.5t-66 198.5v445h107v-433q0 -93 36 -133t118 -40t118.5 40.5t36.5 133.5v432h107v-134q63 5 63 84v50z" />
    <glyph glyph-name="uni1EEF" unicode="&#x1eef;" horiz-adv-x="568" 
d="M211 636q-38 0 -38 -70h-60q0 63 27 98.5t75 35.5q30 0 53.5 -19t41 -37.5t33.5 -18.5q15 0 25 19t10 53h63q0 -64 -26.5 -100t-72.5 -36q-27 0 -48 11.5t-31.5 26t-24 26t-27.5 11.5zM494 627h79v-42q0 -115 -82 -149v-436h-103v62q-51 -71 -152 -71q-86 0 -128.5 54
t-42.5 142v306h103v-280q0 -19 1 -33.5t6.5 -34.5t15.5 -32.5t29 -22t45 -9.5q38 0 64 18t38 51t16.5 66t4.5 77v200h35q71 0 71 84v50z" />
    <glyph glyph-name="uni1EF0" unicode="&#x1ef0;" horiz-adv-x="687" 
d="M668 697h79v-42q0 -70 -35 -114t-107 -47v-237q0 -134 -66.5 -202t-195.5 -68t-195 66.5t-66 198.5v445h107v-433q0 -93 36 -133t118 -40t118.5 40.5t36.5 133.5v432h107v-134q63 5 63 84v50zM289 -173v108h110v-108h-110z" />
    <glyph glyph-name="uni1EF1" unicode="&#x1ef1;" horiz-adv-x="568" 
d="M494 627h79v-42q0 -115 -82 -149v-436h-103v62q-51 -71 -152 -71q-86 0 -128.5 54t-42.5 142v306h103v-280q0 -19 1 -33.5t6.5 -34.5t15.5 -32.5t29 -22t45 -9.5q38 0 64 18t38 51t16.5 66t4.5 77v200h35q71 0 71 84v50zM229 -173v108h110v-108h-110z" />
    <glyph glyph-name="Ygrave" unicode="&#x1ef2;" horiz-adv-x="653" 
d="M288 759l-136 142h110l104 -142h-78zM273 0v270l-265 427h126l191 -324l193 324h127l-264 -427v-270h-108z" />
    <glyph glyph-name="ygrave" unicode="&#x1ef3;" horiz-adv-x="507" 
d="M215 555l-136 142h110l104 -142h-78zM115 -204l86 215l-198 482h113l140 -363l134 363h113l-277 -697h-111z" />
    <glyph glyph-name="uni1EF4" unicode="&#x1ef4;" horiz-adv-x="653" 
d="M273 0v270l-265 427h126l191 -324l193 324h127l-264 -427v-270h-108zM272 -173v108h110v-108h-110z" />
    <glyph glyph-name="uni1EF5" unicode="&#x1ef5;" horiz-adv-x="507" 
d="M115 -204l86 215l-198 482h113l140 -363l134 363h113l-277 -697h-111zM354 -204v108h110v-108h-110z" />
    <glyph glyph-name="uni1EF6" unicode="&#x1ef6;" horiz-adv-x="653" 
d="M318 736l-13 46q20 3 32.5 6t23.5 12t11 24q0 41 -80 41h-15v57h15q66 0 106 -25.5t40 -71.5q0 -20 -8.5 -35t-18.5 -23.5t-30 -15.5t-30.5 -9t-32.5 -6zM273 0v270l-265 427h126l191 -324l193 324h127l-264 -427v-270h-108z" />
    <glyph glyph-name="uni1EF7" unicode="&#x1ef7;" horiz-adv-x="507" 
d="M245 532l-13 46q20 3 32.5 6t23.5 12t11 24q0 41 -80 41h-15v57h15q66 0 106 -25.5t40 -71.5q0 -20 -8.5 -35t-18.5 -23.5t-30 -15.5t-30.5 -9t-32.5 -6zM115 -204l86 215l-198 482h113l140 -363l134 363h113l-277 -697h-111z" />
    <glyph glyph-name="uni1EF8" unicode="&#x1ef8;" horiz-adv-x="653" 
d="M391 765q-27 0 -48 11.5t-31.5 26t-24 26t-27.5 11.5q-38 0 -38 -70h-60q0 63 27 98.5t75 35.5q30 0 53.5 -19t41 -37.5t33.5 -18.5q15 0 25 19t10 53h63q0 -64 -26.5 -100t-72.5 -36zM273 0v270l-265 427h126l191 -324l193 324h127l-264 -427v-270h-108z" />
    <glyph glyph-name="uni1EF9" unicode="&#x1ef9;" horiz-adv-x="507" 
d="M318 561q-27 0 -48 11.5t-31.5 26t-24 26t-27.5 11.5q-38 0 -38 -70h-60q0 63 27 98.5t75 35.5q30 0 53.5 -19t41 -37.5t33.5 -18.5q15 0 25 19t10 53h63q0 -64 -26.5 -100t-72.5 -36zM115 -204l86 215l-198 482h113l140 -363l134 363h113l-277 -697h-111z" />
    <glyph glyph-name="endash" unicode="&#x2013;" horiz-adv-x="519" 
d="M74 261v77h371v-77h-371z" />
    <glyph glyph-name="emdash" unicode="&#x2014;" horiz-adv-x="1010" 
d="M0 261v77h1010v-77h-1010z" />
    <glyph glyph-name="uni2015" unicode="&#x2015;" horiz-adv-x="762" 
d="M74 261v77h614v-77h-614z" />
    <glyph glyph-name="quoteleft" unicode="&#x2018;" horiz-adv-x="284" 
d="M33 415l128 282h69l-78 -282h-119z" />
    <glyph glyph-name="quoteright" unicode="&#x2019;" horiz-adv-x="285" 
d="M54 416l77 281h119l-128 -281h-68z" />
    <glyph glyph-name="quotesinglbase" unicode="&#x201a;" horiz-adv-x="285" 
d="M54 -151l77 281h119l-128 -281h-68z" />
    <glyph glyph-name="quotedblleft" unicode="&#x201c;" horiz-adv-x="469" 
d="M33 415l128 282h69l-78 -282h-119zM217 415l128 282h69l-78 -282h-119z" />
    <glyph glyph-name="quotedblright" unicode="&#x201d;" horiz-adv-x="469" 
d="M54 416l77 281h119l-128 -281h-68zM238 416l77 281h120l-129 -281h-68z" />
    <glyph glyph-name="quotedblbase" unicode="&#x201e;" horiz-adv-x="477" 
d="M54 -151l77 281h119l-128 -281h-68zM247 -151l77 281h119l-128 -281h-68z" />
    <glyph glyph-name="dagger" unicode="&#x2020;" horiz-adv-x="394" 
d="M150 -101v512h-114v94h114v192h93v-192h114v-94h-114v-512h-93z" />
    <glyph glyph-name="daggerdbl" unicode="&#x2021;" horiz-adv-x="443" 
d="M175 -101v192h-114v94h114v226h-114v94h114v192h93v-192h114v-94h-114v-226h114v-94h-114v-192h-93z" />
    <glyph glyph-name="bullet" unicode="&#x2022;" horiz-adv-x="390" 
d="M195 120q-49 0 -83 34.5t-34 82.5q0 49 34 83.5t83 34.5t83 -34.5t34 -83.5q0 -48 -34 -82.5t-83 -34.5z" />
    <glyph glyph-name="uni2023" unicode="&#x2023;" horiz-adv-x="448" 
d="M108 80v358l307 -179z" />
    <glyph glyph-name="twodotenleader" unicode="&#x2025;" horiz-adv-x="521" 
d="M106 0v123h104v-123h-104zM310 0v123h104v-123h-104z" />
    <glyph glyph-name="ellipsis" unicode="&#x2026;" horiz-adv-x="731" 
d="M106 0v123h111v-123h-111zM310 0v123h111v-123h-111zM514 0v123h111v-123h-111z" />
    <glyph glyph-name="perthousand" unicode="&#x2030;" horiz-adv-x="1033" 
d="M190 387q-64 0 -102.5 45.5t-38.5 113.5t38 114t100 46q60 0 99.5 -46t39.5 -115q0 -67 -38.5 -112.5t-97.5 -45.5zM117 0l412 697h73l-411 -697h-74zM190 457q29 0 47.5 25t18.5 63q0 40 -19 65.5t-50 25.5q-33 0 -50.5 -25t-17.5 -65q0 -39 18.5 -64t52.5 -25zM533 -9
q-64 0 -102 46t-38 114t37.5 113.5t99.5 45.5q61 0 100.5 -45.5t39.5 -114.5q0 -68 -39 -113.5t-98 -45.5zM850 -9q-63 0 -101.5 46t-38.5 114t37.5 113.5t99.5 45.5q61 0 100.5 -45.5t39.5 -114.5q0 -68 -39 -113.5t-98 -45.5zM533 61q30 0 48.5 25t18.5 64q0 40 -19 65
t-51 25q-31 0 -49 -25t-18 -64q0 -40 18.5 -65t51.5 -25zM850 61q29 0 48 25t19 64q0 40 -19 65t-51 25t-49.5 -25t-17.5 -64q0 -40 18.5 -65t51.5 -25z" />
    <glyph glyph-name="uni2031" unicode="&#x2031;" horiz-adv-x="1350" 
d="M190 387q-64 0 -102.5 45.5t-38.5 113.5t38 114t100 46q60 0 99.5 -46t39.5 -115q0 -67 -38.5 -112.5t-97.5 -45.5zM117 0l412 697h73l-411 -697h-74zM190 457q29 0 47.5 25t18.5 63q0 40 -19 65.5t-50 25.5q-33 0 -50.5 -25t-17.5 -65q0 -39 18.5 -64t52.5 -25zM533 -9
q-64 0 -102 46t-38 114t37.5 113.5t99.5 45.5q61 0 100.5 -45.5t39.5 -114.5q0 -68 -39 -113.5t-98 -45.5zM850 -9q-63 0 -101.5 46t-38.5 114t37.5 113.5t99.5 45.5q61 0 100.5 -45.5t39.5 -114.5q0 -68 -39 -113.5t-98 -45.5zM1168 -9q-64 0 -102.5 45.5t-38.5 114.5
q0 68 38 113.5t100 45.5q60 0 99.5 -46t39.5 -114t-39 -113.5t-97 -45.5zM533 61q30 0 48.5 25t18.5 64q0 40 -19 65t-51 25q-31 0 -49 -25t-18 -64q0 -40 18.5 -65t51.5 -25zM850 61q29 0 48 25t19 64q0 40 -19 65t-51 25t-49.5 -25t-17.5 -64q0 -40 18.5 -65t51.5 -25z
M1168 61q29 0 47.5 25t18.5 64q0 40 -18.5 65t-50.5 25q-33 0 -50.5 -25t-17.5 -64q0 -40 18.5 -65t52.5 -25z" />
    <glyph glyph-name="guilsinglleft" unicode="&#x2039;" horiz-adv-x="309" 
d="M236 67l-221 185l221 185v-97l-107 -88l107 -88v-97z" />
    <glyph glyph-name="guilsinglright" unicode="&#x203a;" horiz-adv-x="309" 
d="M72 67v97l106 88l-106 88v97l220 -185z" />
    <glyph glyph-name="fraction" unicode="&#x2044;" horiz-adv-x="155" 
d="M-165 0l411 697h73l-411 -697h-73z" />
    <glyph glyph-name="Euro" unicode="&#x20ac;" horiz-adv-x="705" 
d="M594 144l56 -89q-81 -64 -207 -64t-209 68t-110 184h-63l1 70h51q-1 12 -1 38q0 16 2 44h-51v69h63q28 111 111.5 176.5t206.5 65.5q127 0 204 -61l-56 -89q-57 49 -148 49q-77 0 -130 -37.5t-77 -103.5h288l-1 -69h-303q-3 -21 -3 -44q0 -14 2 -38h304l-1 -70h-289
q23 -70 76.5 -110t132.5 -40q92 0 151 51z" />
    <glyph glyph-name="uni20B1" unicode="&#x20b1;" horiz-adv-x="676" 
d="M632 521v-50h-47q-8 -82 -69 -129.5t-164 -47.5h-112v-294h-107v471h-60v50h60v176h219q218 0 233 -176h47zM240 597v-76h237q-14 76 -126 76h-111zM351 394q113 0 126 77h-237v-77h111z" />
    <glyph glyph-name="uni20B3" unicode="&#x20b3;" horiz-adv-x="807" 
d="M90 0l51 131h-63v92h99l30 77h-129v92h166l119 305h82l119 -305h165v-92h-129l29 -77h100v-92h-63l51 -131h-116l-47 131h-299l-48 -131h-117zM351 392h107l-54 149zM289 223h231l-28 77h-175z" />
    <glyph glyph-name="uni20B4" unicode="&#x20b4;" horiz-adv-x="720" 
d="M545 473h105v-74h-580v74h373q20 22 20 51q0 38 -28.5 62.5t-71.5 24.5q-83 0 -122 -79l-89 55q32 60 89.5 89.5t126.5 29.5q83 0 138.5 -47.5t55.5 -116.5q0 -33 -17 -69zM70 262v74h580v-74h-382q-40 -36 -40 -79q0 -41 34 -68t92 -27q57 0 97.5 28t53.5 82l103 -33
q-23 -83 -93.5 -128t-158.5 -45q-102 0 -166.5 52t-64.5 129q0 45 25 89h-80z" />
    <glyph glyph-name="uni20B8" unicode="&#x20b8;" horiz-adv-x="692" 
d="M67 609v88h558v-88h-558zM293 0v441h-226v88h558v-88h-225v-441h-107z" />
    <glyph glyph-name="uni20BD" unicode="&#x20bd;" horiz-adv-x="671" 
d="M163 0v138h-89v81h89v83h-89v92h89v303h210q108 0 175 -54t67 -149q0 -94 -66 -143t-176 -49h-104v-83h163v-81h-163v-138h-106zM269 394h104q136 0 136 100q0 49 -34 76t-102 27h-104v-203z" />
    <glyph glyph-name="uni2116" unicode="&#x2116;" horiz-adv-x="1211" 
d="M534 178v519h103v-697h-109l-309 522v-522h-103v697h108zM937 161q-90 0 -147.5 62t-57.5 151t57.5 150t147.5 61t148 -61t58 -150t-58 -151t-148 -62zM937 511q-57 0 -87 -39t-30 -98q0 -60 30 -99.5t87 -39.5t87 39.5t30 99.5q0 59 -30 98t-87 39zM735 0v78h396v-78
h-396z" />
    <glyph glyph-name="trademark" unicode="&#x2122;" horiz-adv-x="751" 
d="M144 432v205h-74v60h211v-60h-72v-205h-65zM336 432v265h106l45 -166l45 166h104v-265h-65v198l-63 -192h-41l-66 192v-198h-65z" />
    <glyph glyph-name="uni2126" unicode="&#x2126;" horiz-adv-x="826" 
d="M601 83h151v-83h-280v89q178 73 178 265q0 110 -64.5 178t-172.5 68t-172 -68t-64 -177q0 -189 178 -266v-89h-280v83h152q-65 45 -103.5 119t-38.5 154q0 141 93 236t236 95q142 0 234.5 -95.5t92.5 -236.5q0 -80 -38 -154.5t-102 -117.5z" />
    <glyph glyph-name="arrowleft" unicode="&#x2190;" horiz-adv-x="1137" 
d="M551 25l-521 290l521 288l35 -69l-324 -179l833 -1v-79l-834 1l325 -182z" />
    <glyph glyph-name="arrowright" unicode="&#x2192;" horiz-adv-x="1095" 
d="M543 9l-34 69l327 184l-836 -1v77h836l-327 183l34 69l522 -290z" />
    <glyph glyph-name="partialdiff" unicode="&#x2202;" horiz-adv-x="645" 
d="M282 -6q-104 0 -164 63t-60 163q0 120 79 199t186 79q80 0 146 -70q0 48 -12 82q-27 119 -136 119q-94 0 -127 -85l-76 25q26 65 81.5 100.5t131.5 35.5q122 0 182 -90t60 -241q0 -168 -77 -274t-214 -106zM288 83q80 0 129 55t53 128q2 59 -32.5 103.5t-101.5 44.5
q-85 0 -133.5 -57.5t-48.5 -135.5q0 -66 38.5 -102t95.5 -36z" />
    <glyph glyph-name="uni2206" unicode="&#x2206;" horiz-adv-x="651" 
d="M34 0l278 697h27l278 -697h-583zM161 87h330l-166 432z" />
    <glyph glyph-name="product" unicode="&#x220f;" horiz-adv-x="664" 
d="M124 0v610h-44v87h504v-87h-44v-610h-87v610h-242v-610h-87z" />
    <glyph glyph-name="summation" unicode="&#x2211;" horiz-adv-x="642" 
d="M582 697v-98h-361l248 -251l-248 -250h361v-98h-533v52l280 296l-280 297v52h533z" />
    <glyph glyph-name="minus" unicode="&#x2212;" horiz-adv-x="619" 
d="M113 268v86h392v-86h-392z" />
    <glyph glyph-name="radical" unicode="&#x221a;" horiz-adv-x="605" 
d="M248 -103l-136 373h-77v86h140l78 -236l228 577h93z" />
    <glyph glyph-name="infinity" unicode="&#x221e;" horiz-adv-x="953" 
d="M270 175q-89 0 -141.5 52.5t-52.5 134.5t52.5 134.5t141.5 52.5q55 0 109 -31t96 -86q44 56 99 86.5t109 30.5q88 0 140.5 -52.5t52.5 -134.5t-52.5 -134.5t-140.5 -52.5q-55 0 -109.5 30.5t-98.5 85.5q-42 -55 -96.5 -85.5t-108.5 -30.5zM283 259q36 0 76 26.5t70 76.5
q-31 50 -71 76.5t-75 26.5q-52 0 -83.5 -27.5t-31.5 -75.5t31.5 -75.5t83.5 -27.5zM669 259q52 0 83.5 27.5t31.5 75.5t-31.5 75.5t-83.5 27.5q-36 0 -76.5 -27.5t-71.5 -75.5q32 -50 71.5 -76.5t76.5 -26.5z" />
    <glyph glyph-name="integral" unicode="&#x222b;" horiz-adv-x="461" 
d="M29 -228v87q86 0 120 32t34 106v563q0 65 42.5 108.5t103.5 43.5q59 0 108 -41l-55 -67q-25 21 -53 21q-25 0 -42 -17.5t-17 -50.5v-563q0 -107 -64 -164.5t-177 -57.5z" />
    <glyph glyph-name="approxequal" unicode="&#x2248;" horiz-adv-x="610" 
d="M392 348q-39 0 -66 18.5t-39 40t-30 40t-41 18.5q-24 0 -37.5 -24.5t-13.5 -65.5h-78q0 72 35.5 115.5t93.5 43.5q32 0 56.5 -12t38 -29t24.5 -34t25 -29t32 -12q23 0 37.5 28t14.5 72h79q0 -75 -36 -122.5t-95 -47.5zM392 112q-39 0 -66 18.5t-39 40t-30 40t-41 18.5
q-24 0 -37.5 -24t-13.5 -66h-78q0 72 35.5 116t93.5 44q32 0 56.5 -12t38 -29t24.5 -34.5t25 -29.5t32 -12q23 0 37.5 28.5t14.5 72.5h79q0 -76 -36 -123.5t-95 -47.5z" />
    <glyph glyph-name="notequal" unicode="&#x2260;" horiz-adv-x="614" 
d="M64 0l107 183h-86v86h138l74 126h-212v86h264l127 216h72l-126 -216h105v-86h-157l-74 -126h231v-86h-282l-108 -183h-73z" />
    <glyph glyph-name="lessequal" unicode="&#x2264;" horiz-adv-x="668" 
d="M563 89l-522 297l522 298l39 -68l-403 -230l403 -229zM66 -78v78h541v-78h-541z" />
    <glyph glyph-name="greaterequal" unicode="&#x2265;" horiz-adv-x="668" 
d="M105 89l-38 68l402 229l-402 230l38 68l522 -298zM61 -78v78h541v-78h-541z" />
    <glyph glyph-name="lozenge" unicode="&#x25ca;" horiz-adv-x="595" 
d="M228 0l-187 348l187 349h140l187 -349l-187 -348h-140zM291 55h13l148 293l-148 294h-13l-149 -294z" />
    <glyph glyph-name="uniF8FF" unicode="&#xf8ff;" horiz-adv-x="853" 
d="M426 -10q-157 0 -267.5 111t-110.5 267t110.5 267t267.5 111t267.5 -111t110.5 -267t-110.5 -267t-267.5 -111zM426 26q142 0 242 100.5t100 241.5t-100 241.5t-242 100.5t-242 -100.5t-100 -241.5t100 -241.5t242 -100.5zM210 217q-8 0 -13 5.5t-5 12.5v265q0 8 5 13
t13 5t13 -5t5 -13v-265q0 -7 -5 -12.5t-13 -5.5zM426 217q-8 0 -13 5.5t-5 12.5v265q0 8 5 13t13 5t13 -5t5 -13v-265q0 -7 -5 -12.5t-13 -5.5zM644 217q-8 0 -13 5l-145 134q-5 4 -5 12q0 7 5 12l143 131q7 7 14 7q6 0 11.5 -4.5t5.5 -12.5q0 -7 -5 -12l-132 -121l132 -122
q5 -5 5 -12q0 -6 -4.5 -11.5t-11.5 -5.5zM282 350q-8 0 -13 5t-5 13t5 13t13 5h72q8 0 13 -5t5 -13t-5 -13t-13 -5h-72z" />
    <glyph glyph-name="uni1EB6.ss03" horiz-adv-x="657" 
d="M329 769q-154 0 -154 132h73q0 -35 22.5 -53.5t58.5 -18.5q37 0 59 19t22 53h73q0 -132 -154 -132zM642 0h-117l-57 158h-279l-58 -158h-116l272 697h83zM224 255h209l-104 286zM328 -48q29 0 48.5 -19t19.5 -48t-19.5 -49t-48.5 -20q-28 0 -47.5 20t-19.5 49t19.5 48
t47.5 19z" />
    <glyph glyph-name="uni1EAC.ss03" horiz-adv-x="657" 
d="M329 828l-72 -81h-82l154 169l154 -169h-81zM642 0h-117l-57 158h-279l-58 -158h-116l272 697h83zM224 255h209l-104 286zM328 -48q29 0 48.5 -19t19.5 -48t-19.5 -49t-48.5 -20q-28 0 -47.5 20t-19.5 49t19.5 48t47.5 19z" />
    <glyph glyph-name="Adieresis.ss03" horiz-adv-x="657" 
d="M234 774q-28 0 -47.5 20t-19.5 48q0 29 19 48.5t48 19.5t48.5 -19.5t19.5 -48.5t-19.5 -48.5t-48.5 -19.5zM423 774q-28 0 -48 20t-20 48q0 29 19.5 48.5t48.5 19.5t48.5 -19.5t19.5 -48.5q0 -28 -19.5 -48t-48.5 -20zM525 0l-57 158h-279l-58 -158h-116l272 697h83
l272 -697h-117zM224 255h209l-104 286z" />
    <glyph glyph-name="uni1EA0.ss03" horiz-adv-x="657" 
d="M642 0h-117l-57 158h-279l-58 -158h-116l272 697h83zM224 255h209l-104 286zM328 -48q29 0 48.5 -19t19.5 -48t-19.5 -49t-48.5 -20q-28 0 -47.5 20t-19.5 49t19.5 48t47.5 19z" />
    <glyph glyph-name="Cdotaccent.ss03" horiz-adv-x="717" 
d="M386 774q-28 0 -47.5 20t-19.5 48q0 29 19 48.5t48 19.5t48.5 -19.5t19.5 -48.5t-19.5 -48.5t-48.5 -19.5zM380 -13q-152 0 -241.5 97.5t-89.5 264.5q0 168 90 265t243 97q109 0 186.5 -51t115.5 -149l-99 -38q-49 136 -203 136q-108 0 -167 -67.5t-59 -191.5
q0 -125 59 -193t165 -68q155 0 205 139l101 -38q-38 -99 -117 -151t-189 -52z" />
    <glyph glyph-name="uni1EC6.ss03" horiz-adv-x="617" 
d="M173 747l154 169l154 -169h-81l-73 81l-72 -81h-82zM97 0v697h461v-99h-354v-191h325v-99h-325v-209h354v-99h-461zM327 -184q-28 0 -47.5 20t-19.5 49t19 48t48 19t48.5 -19t19.5 -48t-19.5 -49t-48.5 -20z" />
    <glyph glyph-name="Edieresis.ss03" horiz-adv-x="617" 
d="M233 774q-28 0 -47.5 20t-19.5 48q0 29 19 48.5t48 19.5t48.5 -19.5t19.5 -48.5t-19.5 -48.5t-48.5 -19.5zM422 774q-28 0 -48 20t-20 48q0 29 19.5 48.5t48.5 19.5t48.5 -19.5t19.5 -48.5q0 -28 -20 -48t-48 -20zM97 0v697h461v-99h-354v-191h325v-99h-325v-209h354v-99
h-461z" />
    <glyph glyph-name="Edotaccent.ss03" horiz-adv-x="617" 
d="M327 774q-28 0 -47.5 20t-19.5 48q0 29 19 48.5t48 19.5t48.5 -19.5t19.5 -48.5t-19.5 -48.5t-48.5 -19.5zM97 0v697h461v-99h-354v-191h325v-99h-325v-209h354v-99h-461z" />
    <glyph glyph-name="uni1EB8.ss03" horiz-adv-x="617" 
d="M97 0v697h461v-99h-354v-191h325v-99h-325v-209h354v-99h-461zM327 -184q-28 0 -47.5 20t-19.5 49t19 48t48 19t48.5 -19t19.5 -48t-19.5 -49t-48.5 -20z" />
    <glyph glyph-name="Gdotaccent.ss03" horiz-adv-x="759" 
d="M379 774q-28 0 -47.5 20t-19.5 48q0 29 19 48.5t48 19.5t48.5 -19.5t19.5 -48.5t-19.5 -48.5t-48.5 -19.5zM422 371h265v-371h-78l-14 82q-30 -46 -86 -70.5t-128 -24.5q-148 0 -240.5 100.5t-92.5 262.5q0 159 89.5 260t244.5 101q108 0 185.5 -52t114.5 -148l-98 -38
q-50 136 -203 136q-108 0 -167 -68t-59 -189q0 -123 60.5 -193t172.5 -70q89 0 141.5 44t52.5 129v13h-160v96z" />
    <glyph glyph-name="Idieresis.ss03" horiz-adv-x="300" 
d="M56 774q-28 0 -47.5 20t-19.5 48q0 29 19 48.5t48 19.5t48.5 -19.5t19.5 -48.5t-19.5 -48.5t-48.5 -19.5zM245 774q-28 0 -48 20t-20 48q0 29 19.5 48.5t48.5 19.5t48.5 -19.5t19.5 -48.5q0 -28 -19.5 -48t-48.5 -20zM97 0v697h107v-697h-107z" />
    <glyph glyph-name="uni1ECA.ss03" horiz-adv-x="300" 
d="M97 0v697h107v-697h-107zM150 -184q-28 0 -47.5 20t-19.5 49t19.5 48t47.5 19q29 0 48.5 -19t19.5 -48t-19.5 -49t-48.5 -20z" />
    <glyph glyph-name="uni1ED8.ss03" horiz-adv-x="753" 
d="M223 747l154 169l154 -169h-81l-73 81l-72 -81h-82zM377 -13q-147 0 -238 99.5t-91 261.5q0 163 91 262.5t238 99.5t237.5 -99.5t90.5 -262.5q0 -162 -90.5 -261.5t-237.5 -99.5zM377 89q101 0 161 70t60 189q0 120 -60 190t-161 70q-102 0 -162 -70t-60 -190t60 -189.5
t162 -69.5zM376 -184q-28 0 -47.5 20t-19.5 49t19.5 48t47.5 19q29 0 48.5 -19t19.5 -48t-19.5 -49t-48.5 -20z" />
    <glyph glyph-name="Odieresis.ss03" horiz-adv-x="753" 
d="M282 774q-28 0 -47.5 20t-19.5 48q0 29 19 48.5t48 19.5t48.5 -19.5t19.5 -48.5t-19.5 -48.5t-48.5 -19.5zM471 774q-28 0 -48 20t-20 48q0 29 19.5 48.5t48.5 19.5t48.5 -19.5t19.5 -48.5q0 -28 -19.5 -48t-48.5 -20zM377 -13q-147 0 -238 99.5t-91 261.5
q0 163 91 262.5t238 99.5t237.5 -99.5t90.5 -262.5q0 -162 -90.5 -261.5t-237.5 -99.5zM377 89q101 0 161 70t60 189q0 120 -60 190t-161 70q-102 0 -162 -70t-60 -190t60 -189.5t162 -69.5z" />
    <glyph glyph-name="uni1ECC.ss03" horiz-adv-x="753" 
d="M377 -13q-147 0 -238 99.5t-91 261.5q0 163 91 262.5t238 99.5t237.5 -99.5t90.5 -262.5q0 -162 -90.5 -261.5t-237.5 -99.5zM377 89q101 0 161 70t60 189q0 120 -60 190t-161 70q-102 0 -162 -70t-60 -190t60 -189.5t162 -69.5zM376 -184q-28 0 -47.5 20t-19.5 49
t19.5 48t47.5 19q29 0 48.5 -19t19.5 -48t-19.5 -49t-48.5 -20z" />
    <glyph glyph-name="uni1EE2.ss03" horiz-adv-x="753" 
d="M690 697h79v-42q0 -121 -90 -152q26 -70 26 -155q0 -162 -90.5 -261.5t-237.5 -99.5t-238 99.5t-91 261.5q0 163 91 262.5t238 99.5q88 0 157.5 -37t112.5 -105q43 15 43 79v50zM377 89q101 0 161 70t60 189q0 120 -60 190t-161 70q-102 0 -162 -70t-60 -190t60 -189.5
t162 -69.5zM376 -48q29 0 48.5 -19t19.5 -48t-19.5 -49t-48.5 -20q-28 0 -47.5 20t-19.5 49t19.5 48t47.5 19z" />
    <glyph glyph-name="Udieresis.ss03" horiz-adv-x="687" 
d="M249 774q-28 0 -47.5 20t-19.5 48q0 29 19 48.5t48 19.5t48.5 -19.5t19.5 -48.5t-19.5 -48.5t-48.5 -19.5zM438 774q-28 0 -48 20t-20 48q0 29 19.5 48.5t48.5 19.5t48.5 -19.5t19.5 -48.5q0 -28 -20 -48t-48 -20zM343 -13q-129 0 -195 66.5t-66 198.5v445h107v-433
q0 -93 36 -133t118 -40t118.5 40.5t36.5 133.5v432h107v-440q0 -134 -66.5 -202t-195.5 -68z" />
    <glyph glyph-name="uni01D7.ss03" horiz-adv-x="687" 
d="M306 972l110 142h111l-144 -142h-77zM249 774q-28 0 -47.5 20t-19.5 48q0 29 19 48.5t48 19.5t48.5 -19.5t19.5 -48.5t-19.5 -48.5t-48.5 -19.5zM438 774q-28 0 -48 20t-20 48q0 29 19.5 48.5t48.5 19.5t48.5 -19.5t19.5 -48.5q0 -28 -20 -48t-48 -20zM343 -13
q-129 0 -195 66.5t-66 198.5v445h107v-433q0 -93 36 -133t118 -40t118.5 40.5t36.5 133.5v432h107v-440q0 -134 -66.5 -202t-195.5 -68z" />
    <glyph glyph-name="uni01D9.ss03" horiz-adv-x="687" 
d="M344 954l-154 160h81l73 -76l73 76h81zM249 774q-28 0 -47.5 20t-19.5 48q0 29 19 48.5t48 19.5t48.5 -19.5t19.5 -48.5t-19.5 -48.5t-48.5 -19.5zM438 774q-28 0 -48 20t-20 48q0 29 19.5 48.5t48.5 19.5t48.5 -19.5t19.5 -48.5q0 -28 -20 -48t-48 -20zM343 -13
q-129 0 -195 66.5t-66 198.5v445h107v-433q0 -93 36 -133t118 -40t118.5 40.5t36.5 133.5v432h107v-440q0 -134 -66.5 -202t-195.5 -68z" />
    <glyph glyph-name="uni01DB.ss03" horiz-adv-x="687" 
d="M305 972l-136 142h110l104 -142h-78zM249 774q-28 0 -47.5 20t-19.5 48q0 29 19 48.5t48 19.5t48.5 -19.5t19.5 -48.5t-19.5 -48.5t-48.5 -19.5zM438 774q-28 0 -48 20t-20 48q0 29 19.5 48.5t48.5 19.5t48.5 -19.5t19.5 -48.5q0 -28 -20 -48t-48 -20zM343 -13
q-129 0 -195 66.5t-66 198.5v445h107v-433q0 -93 36 -133t118 -40t118.5 40.5t36.5 133.5v432h107v-440q0 -134 -66.5 -202t-195.5 -68z" />
    <glyph glyph-name="uni01D5.ss03" horiz-adv-x="687" 
d="M207 994v61h273v-61h-273zM249 774q-28 0 -47.5 20t-19.5 48q0 29 19 48.5t48 19.5t48.5 -19.5t19.5 -48.5t-19.5 -48.5t-48.5 -19.5zM438 774q-28 0 -48 20t-20 48q0 29 19.5 48.5t48.5 19.5t48.5 -19.5t19.5 -48.5q0 -28 -20 -48t-48 -20zM343 -13q-129 0 -195 66.5
t-66 198.5v445h107v-433q0 -93 36 -133t118 -40t118.5 40.5t36.5 133.5v432h107v-440q0 -134 -66.5 -202t-195.5 -68z" />
    <glyph glyph-name="uni1EE4.ss03" horiz-adv-x="687" 
d="M343 -13q-129 0 -195 66.5t-66 198.5v445h107v-433q0 -93 36 -133t118 -40t118.5 40.5t36.5 133.5v432h107v-440q0 -134 -66.5 -202t-195.5 -68zM344 -184q-28 0 -47.5 20t-19.5 49t19.5 48t47.5 19q29 0 48.5 -19t19.5 -48t-19.5 -49t-48.5 -20z" />
    <glyph glyph-name="uni1EF0.ss03" horiz-adv-x="687" 
d="M668 697h79v-42q0 -70 -35 -114t-107 -47v-237q0 -134 -66.5 -202t-195.5 -68t-195 66.5t-66 198.5v445h107v-433q0 -93 36 -133t118 -40t118.5 40.5t36.5 133.5v432h107v-134q63 5 63 84v50zM344 -48q29 0 48.5 -19t19.5 -48t-19.5 -49t-48.5 -20q-28 0 -47.5 20
t-19.5 49t19.5 48t47.5 19z" />
    <glyph glyph-name="Wdieresis.ss03" horiz-adv-x="986" 
d="M399 774q-28 0 -47.5 20t-19.5 48q0 29 19 48.5t48 19.5t48.5 -19.5t19.5 -48.5t-19.5 -48.5t-48.5 -19.5zM588 774q-28 0 -48 20t-20 48q0 29 19.5 48.5t48.5 19.5t48.5 -19.5t19.5 -48.5q0 -28 -20 -48t-48 -20zM228 0l-207 697h112l154 -534l160 495h92l161 -495
l153 534h112l-207 -697h-105l-160 488l-160 -488h-105z" />
    <glyph glyph-name="Ydieresis.ss03" horiz-adv-x="653" 
d="M232 774q-28 0 -47.5 20t-19.5 48q0 29 19 48.5t48 19.5t48.5 -19.5t19.5 -48.5t-19.5 -48.5t-48.5 -19.5zM421 774q-28 0 -48 20t-20 48q0 29 19.5 48.5t48.5 19.5t48.5 -19.5t19.5 -48.5q0 -28 -19.5 -48t-48.5 -20zM273 0v270l-265 427h126l191 -324l193 324h127
l-264 -427v-270h-108z" />
    <glyph glyph-name="uni1EF4.ss03" horiz-adv-x="653" 
d="M273 0v270l-265 427h126l191 -324l193 324h127l-264 -427v-270h-108zM326 -184q-28 0 -47.5 20t-19.5 49t19.5 48t47.5 19q29 0 48.5 -19t19.5 -48t-19.5 -49t-48.5 -20z" />
    <glyph glyph-name="Zdotaccent.ss03" horiz-adv-x="632" 
d="M316 774q-28 0 -47.5 20t-19.5 48q0 29 19 48.5t48 19.5t48.5 -19.5t19.5 -48.5t-19.5 -48.5t-48.5 -19.5zM591 697v-79l-412 -519h412v-99h-558v76l416 522h-393v99h535z" />
    <glyph glyph-name="i.loclTRK" horiz-adv-x="257" 
d="M73 589v108h110v-108h-110zM77 0v493h103v-493h-103z" />
    <glyph glyph-name="g.ss01" horiz-adv-x="580" 
d="M399 493h103v-470q0 -114 -62.5 -176t-172.5 -62q-146 0 -219 111l79 65q19 -36 55 -61t89 -25q59 0 93.5 33.5t34.5 94.5v68q-51 -67 -147 -67q-102 0 -158.5 70t-56.5 180t57 179.5t156 69.5q98 0 149 -66v56zM273 98q66 0 100 43.5t34 112.5t-34.5 112.5t-99.5 43.5
q-64 0 -98 -42t-34 -114t34 -114t98 -42z" />
    <glyph glyph-name="gbreve.ss01" horiz-adv-x="580" 
d="M290 565q-154 0 -154 132h73q0 -35 22.5 -53.5t58.5 -18.5q37 0 59 19t22 53h73q0 -132 -154 -132zM399 493h103v-470q0 -114 -62.5 -176t-172.5 -62q-146 0 -219 111l79 65q19 -36 55 -61t89 -25q59 0 93.5 33.5t34.5 94.5v68q-51 -67 -147 -67q-102 0 -158.5 70
t-56.5 180t57 179.5t156 69.5q98 0 149 -66v56zM273 98q66 0 100 43.5t34 112.5t-34.5 112.5t-99.5 43.5q-64 0 -98 -42t-34 -114t34 -114t98 -42z" />
    <glyph glyph-name="uni0123.ss01" horiz-adv-x="580" 
d="M380 705l-74 -152h-107l120 152h61zM399 493h103v-470q0 -114 -62.5 -176t-172.5 -62q-146 0 -219 111l79 65q19 -36 55 -61t89 -25q59 0 93.5 33.5t34.5 94.5v68q-51 -67 -147 -67q-102 0 -158.5 70t-56.5 180t57 179.5t156 69.5q98 0 149 -66v56zM273 98q66 0 100 43.5
t34 112.5t-34.5 112.5t-99.5 43.5q-64 0 -98 -42t-34 -114t34 -114t98 -42z" />
    <glyph glyph-name="gdotaccent.ss01" horiz-adv-x="580" 
d="M345 697v-108h-110v108h110zM399 493h103v-470q0 -114 -62.5 -176t-172.5 -62q-146 0 -219 111l79 65q19 -36 55 -61t89 -25q59 0 93.5 33.5t34.5 94.5v68q-51 -67 -147 -67q-102 0 -158.5 70t-56.5 180t57 179.5t156 69.5q98 0 149 -66v56zM273 98q66 0 100 43.5
t34 112.5t-34.5 112.5t-99.5 43.5q-64 0 -98 -42t-34 -114t34 -114t98 -42z" />
    <glyph glyph-name="g.ss02" horiz-adv-x="528" 
d="M333 80q68 0 115 -35t47 -103q0 -72 -56 -113.5t-163 -41.5q-109 0 -177.5 36t-68.5 114q0 27 7 42l71 34q-66 38 -66 105q-2 66 59 105q-32 45 -32 102q0 77 56 127t140 50q68 0 118 -34l75 65l53 -66l-73 -60q21 -37 21 -86q0 -78 -56 -126.5t-138 -48.5q-58 0 -105 25
q-22 -16 -22 -44t26 -37.5t72 -9.5h97zM266 420q-43 0 -68.5 -27.5t-25.5 -69.5t25 -68t69 -26q43 0 68 26.5t25 67.5q0 42 -25 69.5t-68 27.5zM269 -134q128 0 128 69q0 59 -88 59h-134l-49 -44v-12q0 -28 31.5 -50t111.5 -22z" />
    <glyph glyph-name="gbreve.ss02" horiz-adv-x="528" 
d="M265 565q-154 0 -154 132h73q0 -35 22.5 -53.5t58.5 -18.5q37 0 59 19t22 53h73q0 -132 -154 -132zM333 80q68 0 115 -35t47 -103q0 -72 -56 -113.5t-163 -41.5q-109 0 -177.5 36t-68.5 114q0 27 7 42l71 34q-66 38 -66 105q-2 66 59 105q-32 45 -32 102q0 77 56 127
t140 50q68 0 118 -34l75 65l53 -66l-73 -60q21 -37 21 -86q0 -78 -56 -126.5t-138 -48.5q-58 0 -105 25q-22 -16 -22 -44t26 -37.5t72 -9.5h97zM266 420q-43 0 -68.5 -27.5t-25.5 -69.5t25 -68t69 -26q43 0 68 26.5t25 67.5q0 42 -25 69.5t-68 27.5zM269 -134q128 0 128 69
q0 59 -88 59h-134l-49 -44v-12q0 -28 31.5 -50t111.5 -22z" />
    <glyph glyph-name="uni0123.ss02" horiz-adv-x="528" 
d="M355 705l-74 -152h-107l120 152h61zM333 80q68 0 115 -35t47 -103q0 -72 -56 -113.5t-163 -41.5q-109 0 -177.5 36t-68.5 114q0 27 7 42l71 34q-66 38 -66 105q-2 66 59 105q-32 45 -32 102q0 77 56 127t140 50q68 0 118 -34l75 65l53 -66l-73 -60q21 -37 21 -86
q0 -78 -56 -126.5t-138 -48.5q-58 0 -105 25q-22 -16 -22 -44t26 -37.5t72 -9.5h97zM266 420q-43 0 -68.5 -27.5t-25.5 -69.5t25 -68t69 -26q43 0 68 26.5t25 67.5q0 42 -25 69.5t-68 27.5zM269 -134q128 0 128 69q0 59 -88 59h-134l-49 -44v-12q0 -28 31.5 -50t111.5 -22z
" />
    <glyph glyph-name="gdotaccent.ss02" horiz-adv-x="528" 
d="M320 697v-108h-110v108h110zM333 80q68 0 115 -35t47 -103q0 -72 -56 -113.5t-163 -41.5q-109 0 -177.5 36t-68.5 114q0 27 7 42l71 34q-66 38 -66 105q-2 66 59 105q-32 45 -32 102q0 77 56 127t140 50q68 0 118 -34l75 65l53 -66l-73 -60q21 -37 21 -86
q0 -78 -56 -126.5t-138 -48.5q-58 0 -105 25q-22 -16 -22 -44t26 -37.5t72 -9.5h97zM266 420q-43 0 -68.5 -27.5t-25.5 -69.5t25 -68t69 -26q43 0 68 26.5t25 67.5q0 42 -25 69.5t-68 27.5zM269 -134q128 0 128 69q0 59 -88 59h-134l-49 -44v-12q0 -28 31.5 -50t111.5 -22z
" />
    <glyph glyph-name="uni1EB7.ss03" horiz-adv-x="530" 
d="M260 565q-154 0 -154 132h73q0 -35 22.5 -53.5t58.5 -18.5q37 0 59 19t22 53h73q0 -132 -154 -132zM261 502q96 0 151 -51t55 -141v-310h-94l-8 70q-51 -79 -159 -79q-79 0 -127 43t-48 114q0 86 68 120q50 25 150 25h115v17q0 48 -27.5 75t-76.5 27q-83 0 -139 -77
l-75 63q85 104 215 104zM225 78q60 0 99.5 38t39.5 96v2h-103q-80 0 -105 -20q-22 -15 -22 -48q0 -31 24.5 -49.5t66.5 -18.5zM260 -48q29 0 48.5 -19t19.5 -48t-19.5 -49t-48.5 -20q-28 0 -47.5 20t-19.5 49t19.5 48t47.5 19z" />
    <glyph glyph-name="uni1EAD.ss03" horiz-adv-x="530" 
d="M260 624l-72 -81h-82l154 169l154 -169h-81zM261 502q96 0 151 -51t55 -141v-310h-94l-8 70q-51 -79 -159 -79q-79 0 -127 43t-48 114q0 86 68 120q50 25 150 25h115v17q0 48 -27.5 75t-76.5 27q-83 0 -139 -77l-75 63q85 104 215 104zM225 78q60 0 99.5 38t39.5 96v2
h-103q-80 0 -105 -20q-22 -15 -22 -48q0 -31 24.5 -49.5t66.5 -18.5zM260 -48q29 0 48.5 -19t19.5 -48t-19.5 -49t-48.5 -20q-28 0 -47.5 20t-19.5 49t19.5 48t47.5 19z" />
    <glyph glyph-name="adieresis.ss03" horiz-adv-x="530" 
d="M165 570q-28 0 -47.5 20t-19.5 48q0 29 19 48.5t48 19.5t48.5 -19.5t19.5 -48.5t-19.5 -48.5t-48.5 -19.5zM354 570q-28 0 -48 20t-20 48q0 29 19.5 48.5t48.5 19.5t48.5 -19.5t19.5 -48.5q0 -28 -20 -48t-48 -20zM261 502q96 0 151 -51t55 -141v-310h-94l-8 70
q-51 -79 -159 -79q-79 0 -127 43t-48 114q0 86 68 120q50 25 150 25h115v17q0 48 -27.5 75t-76.5 27q-83 0 -139 -77l-75 63q85 104 215 104zM225 78q60 0 99.5 38t39.5 96v2h-103q-80 0 -105 -20q-22 -15 -22 -48q0 -31 24.5 -49.5t66.5 -18.5z" />
    <glyph glyph-name="uni1EA1.ss03" horiz-adv-x="530" 
d="M261 502q96 0 151 -51t55 -141v-310h-94l-8 70q-51 -79 -159 -79q-79 0 -127 43t-48 114q0 86 68 120q50 25 150 25h115v17q0 48 -27.5 75t-76.5 27q-83 0 -139 -77l-75 63q85 104 215 104zM225 78q60 0 99.5 38t39.5 96v2h-103q-80 0 -105 -20q-22 -15 -22 -48
q0 -31 24.5 -49.5t66.5 -18.5zM260 -48q29 0 48.5 -19t19.5 -48t-19.5 -49t-48.5 -20q-28 0 -47.5 20t-19.5 49t19.5 48t47.5 19z" />
    <glyph glyph-name="cdotaccent.ss03" horiz-adv-x="499" 
d="M249 570q-28 0 -47.5 20t-19.5 48q0 29 19 48.5t48 19.5t48.5 -19.5t19.5 -48.5t-19.5 -48.5t-48.5 -19.5zM268 -9q-111 0 -172 74t-61 180t60.5 181.5t171.5 75.5q153 0 209 -142l-98 -38q-12 42 -41.5 66t-69.5 24q-63 0 -95 -48t-32 -119t31.5 -117.5t96.5 -46.5
q39 0 68.5 24t40.5 65l94 -36q-25 -69 -78 -106t-125 -37z" />
    <glyph glyph-name="uni1EC7.ss03" horiz-adv-x="523" 
d="M266 624l-72 -81h-82l154 169l154 -169h-81zM488 259q0 -23 -3 -45h-346q3 -60 38 -95t97 -35q77 0 126 56l72 -62q-80 -87 -199 -87q-116 0 -176.5 72t-60.5 181q0 108 59 183t170 75q109 0 166 -69.5t57 -173.5zM139 297h250v2q-2 53 -35.5 85t-88.5 32
q-56 0 -88 -34.5t-38 -84.5zM273 -48q29 0 48.5 -19t19.5 -48t-19.5 -49t-48.5 -20q-28 0 -47.5 20t-19.5 49t19 48t48 19z" />
    <glyph glyph-name="edieresis.ss03" horiz-adv-x="523" 
d="M172 570q-28 0 -47.5 20t-19.5 48q0 29 19 48.5t48 19.5t48.5 -19.5t19.5 -48.5t-19.5 -48.5t-48.5 -19.5zM361 570q-28 0 -48 20t-20 48q0 29 19.5 48.5t48.5 19.5t48.5 -19.5t19.5 -48.5q0 -28 -19.5 -48t-48.5 -20zM488 259q0 -23 -3 -45h-346q3 -60 38 -95t97 -35
q77 0 126 56l72 -62q-80 -87 -199 -87q-116 0 -176.5 72t-60.5 181q0 108 59 183t170 75q109 0 166 -69.5t57 -173.5zM139 297h250v2q-2 53 -35.5 85t-88.5 32q-56 0 -88 -34.5t-38 -84.5z" />
    <glyph glyph-name="edotaccent.ss03" horiz-adv-x="523" 
d="M266 570q-28 0 -47.5 20t-19.5 48q0 29 19 48.5t48 19.5t48.5 -19.5t19.5 -48.5t-19.5 -48.5t-48.5 -19.5zM488 259q0 -23 -3 -45h-346q3 -60 38 -95t97 -35q77 0 126 56l72 -62q-80 -87 -199 -87q-116 0 -176.5 72t-60.5 181q0 108 59 183t170 75q109 0 166 -69.5
t57 -173.5zM139 297h250v2q-2 53 -35.5 85t-88.5 32q-56 0 -88 -34.5t-38 -84.5z" />
    <glyph glyph-name="gdotaccent.ss03" horiz-adv-x="516" 
d="M257 570q-28 0 -47.5 20t-19.5 48q0 29 19 48.5t48 19.5t48.5 -19.5t19.5 -48.5t-19.5 -48.5t-48.5 -19.5zM260 70q111 -16 150 -33q74 -33 74 -107q0 -72 -60 -107.5t-162 -35.5q-109 0 -168 39.5t-59 114.5q0 12 2 22l74 52q-61 32 -61 100q0 60 49 97q-41 49 -41 113
q0 77 57 127t140 50q67 0 118 -34l73 63l54 -66l-70 -57q23 -40 23 -89q0 -78 -56.5 -127t-138.5 -49q-50 0 -97 21q-20 -12 -20 -34q0 -27 30 -39.5t89 -20.5zM257 416q-43 0 -70 -26t-27 -68q0 -41 25.5 -67.5t70.5 -26.5t69.5 26t24.5 68q0 43 -25 68.5t-68 25.5z
M266 -134q51 0 83 13.5t32 41.5t-31.5 39.5t-94.5 20.5q-11 1 -17 2q-16 2 -50 8l-50 -49q-1 -4 -1 -9q0 -35 37 -51t92 -16z" />
    <glyph glyph-name="i.ss03" horiz-adv-x="257" 
d="M128 570q-28 0 -47.5 20t-19.5 48q0 29 19 48.5t48 19.5t48.5 -19.5t19.5 -48.5t-19.5 -48.5t-48.5 -19.5zM77 0v493h103v-493h-103z" />
    <glyph glyph-name="idieresis.ss03" horiz-adv-x="257" 
d="M34 570q-28 0 -47.5 20t-19.5 48q0 29 19 48.5t48 19.5t48.5 -19.5t19.5 -48.5t-19.5 -48.5t-48.5 -19.5zM223 570q-28 0 -48 20t-20 48q0 29 19.5 48.5t48.5 19.5t48.5 -19.5t19.5 -48.5q0 -28 -19.5 -48t-48.5 -20zM77 0v493h103v-493h-103z" />
    <glyph glyph-name="i.loclTRK.ss03" horiz-adv-x="257" 
d="M128 570q-28 0 -47.5 20t-19.5 48q0 29 19 48.5t48 19.5t48.5 -19.5t19.5 -48.5t-19.5 -48.5t-48.5 -19.5zM77 0v493h103v-493h-103z" />
    <glyph glyph-name="uni1ECB.ss03" horiz-adv-x="257" 
d="M128 570q-28 0 -47.5 20t-19.5 48q0 29 19 48.5t48 19.5t48.5 -19.5t19.5 -48.5t-19.5 -48.5t-48.5 -19.5zM77 0v493h103v-493h-103zM128 -184q-28 0 -47.5 20t-19.5 49t19.5 48t47.5 19q29 0 48.5 -19t19.5 -48t-19.5 -49t-48.5 -20z" />
    <glyph glyph-name="iogonek.ss03" horiz-adv-x="257" 
d="M128 570q-28 0 -47.5 20t-19.5 48q0 29 19 48.5t48 19.5t48.5 -19.5t19.5 -48.5t-19.5 -48.5t-48.5 -19.5zM171 -127l52 -37q-40 -55 -103 -55q-45 0 -75 26t-30 69q0 75 82 124h-20v493h103v-493l-11 -6q-11 -5 -17.5 -9t-19 -12t-20.5 -16.5t-16.5 -19.5t-13 -24
t-4.5 -27q0 -41 40 -41q31 0 53 28z" />
    <glyph glyph-name="j.ss03" horiz-adv-x="258" 
d="M129 570q-28 0 -47.5 20t-19.5 48q0 29 19 48.5t48 19.5t48.5 -19.5t19.5 -48.5t-19.5 -48.5t-48.5 -19.5zM72 -213q-34 0 -74 14v83q21 -7 41 -7q39 0 39 39v577h102v-583q0 -61 -29.5 -92t-78.5 -31z" />
    <glyph glyph-name="uni1ED9.ss03" horiz-adv-x="554" 
d="M123 543l154 169l154 -169h-81l-73 81l-72 -81h-82zM277 -9q-109 0 -176.5 73.5t-67.5 182.5t67.5 182t176.5 73t176 -73t67 -182q0 -108 -67 -182t-176 -74zM277 81q69 0 104.5 47t35.5 119t-36 118.5t-104 46.5q-69 0 -105 -46.5t-36 -118.5t36 -119t105 -47zM276 -184
q-28 0 -47.5 20t-19.5 49t19.5 48t47.5 19q29 0 48.5 -19t19.5 -48t-19.5 -49t-48.5 -20z" />
    <glyph glyph-name="odieresis.ss03" horiz-adv-x="554" 
d="M182 570q-28 0 -47.5 20t-19.5 48q0 29 19 48.5t48 19.5t48.5 -19.5t19.5 -48.5t-19.5 -48.5t-48.5 -19.5zM371 570q-28 0 -48 20t-20 48q0 29 19.5 48.5t48.5 19.5t48.5 -19.5t19.5 -48.5q0 -28 -19.5 -48t-48.5 -20zM277 -9q-109 0 -176.5 73.5t-67.5 182.5t67.5 182
t176.5 73t176 -73t67 -182q0 -108 -67 -182t-176 -74zM277 81q69 0 104.5 47t35.5 119t-36 118.5t-104 46.5q-69 0 -105 -46.5t-36 -118.5t36 -119t105 -47z" />
    <glyph glyph-name="uni1EE3.ss03" horiz-adv-x="554" 
d="M526 552h79v-42q0 -60 -26 -102t-79 -54q20 -51 20 -107q0 -108 -67 -182t-176 -74t-176.5 73.5t-67.5 182.5t67.5 182t176.5 73q117 0 185 -84q64 5 64 84v50zM277 81q69 0 104.5 47t35.5 119t-36 118.5t-104 46.5q-69 0 -105 -46.5t-36 -118.5t36 -119t105 -47z
M276 -48q29 0 48.5 -19t19.5 -48t-19.5 -49t-48.5 -20q-28 0 -47.5 20t-19.5 49t19.5 48t47.5 19z" />
    <glyph glyph-name="gdotaccent.ss01.ss03" horiz-adv-x="580" 
d="M290 570q-28 0 -47.5 20t-19.5 48q0 29 19 48.5t48 19.5t48.5 -19.5t19.5 -48.5t-19.5 -48.5t-48.5 -19.5zM399 493h103v-470q0 -114 -62.5 -176t-172.5 -62q-146 0 -219 111l79 65q19 -36 55 -61t89 -25q59 0 93.5 33.5t34.5 94.5v68q-51 -67 -147 -67q-102 0 -158.5 70
t-56.5 180t57 179.5t156 69.5q98 0 149 -66v56zM273 98q66 0 100 43.5t34 112.5t-34.5 112.5t-99.5 43.5q-64 0 -98 -42t-34 -114t34 -114t98 -42z" />
    <glyph glyph-name="gdotaccent.ss02.ss03" horiz-adv-x="528" 
d="M264 570q-28 0 -47.5 20t-19.5 48q0 29 19 48.5t48 19.5t48.5 -19.5t19.5 -48.5t-19.5 -48.5t-48.5 -19.5zM333 80q68 0 115 -35t47 -103q0 -72 -56 -113.5t-163 -41.5q-109 0 -177.5 36t-68.5 114q0 27 7 42l71 34q-66 38 -66 105q-2 66 59 105q-32 45 -32 102
q0 77 56 127t140 50q68 0 118 -34l75 65l53 -66l-73 -60q21 -37 21 -86q0 -78 -56 -126.5t-138 -48.5q-58 0 -105 25q-22 -16 -22 -44t26 -37.5t72 -9.5h97zM266 420q-43 0 -68.5 -27.5t-25.5 -69.5t25 -68t69 -26q43 0 68 26.5t25 67.5q0 42 -25 69.5t-68 27.5zM269 -134
q128 0 128 69q0 59 -88 59h-134l-49 -44v-12q0 -28 31.5 -50t111.5 -22z" />
    <glyph glyph-name="udieresis.ss03" horiz-adv-x="568" 
d="M183 570q-28 0 -47.5 20t-19.5 48q0 29 19 48.5t48 19.5t48.5 -19.5t19.5 -48.5t-19.5 -48.5t-48.5 -19.5zM372 570q-28 0 -48 20t-20 48q0 29 19.5 48.5t48.5 19.5t48.5 -19.5t19.5 -48.5q0 -28 -20 -48t-48 -20zM388 493h103v-493h-103v62q-51 -71 -152 -71
q-86 0 -128.5 54t-42.5 142v306h103v-280q0 -19 1 -33.5t6.5 -34.5t15.5 -32.5t29 -22t45 -9.5q38 0 64 18t38 51t16.5 66t4.5 77v200z" />
    <glyph glyph-name="uni01D8.ss03" horiz-adv-x="568" 
d="M460 910l-144 -142h-77l110 142h111zM183 570q-28 0 -47.5 20t-19.5 48q0 29 19 48.5t48 19.5t48.5 -19.5t19.5 -48.5t-19.5 -48.5t-48.5 -19.5zM304 638q0 29 19.5 48.5t48.5 19.5t48.5 -19.5t19.5 -48.5q0 -28 -20 -48t-48 -20t-48 20t-20 48zM388 493h103v-493h-103
v62q-51 -71 -152 -71q-86 0 -128.5 54t-42.5 142v306h103v-280q0 -19 1 -33.5t6.5 -34.5t15.5 -32.5t29 -22t45 -9.5q38 0 64 18t38 51t16.5 66t4.5 77v200z" />
    <glyph glyph-name="uni01DA.ss03" horiz-adv-x="568" 
d="M432 910l-154 -160l-154 160h81l73 -76l73 76h81zM183 570q-28 0 -47.5 20t-19.5 48q0 29 19 48.5t48 19.5t48.5 -19.5t19.5 -48.5t-19.5 -48.5t-48.5 -19.5zM372 706q29 0 48.5 -19.5t19.5 -48.5q0 -28 -20 -48t-48 -20t-48 20t-20 48q0 29 19.5 48.5t48.5 19.5z
M388 493h103v-493h-103v62q-51 -71 -152 -71q-86 0 -128.5 54t-42.5 142v306h103v-280q0 -19 1 -33.5t6.5 -34.5t15.5 -32.5t29 -22t45 -9.5q38 0 64 18t38 51t16.5 66t4.5 77v200z" />
    <glyph glyph-name="uni01DC.ss03" horiz-adv-x="568" 
d="M317 768h-78l-136 142h110zM183 706q29 0 48.5 -19.5t19.5 -48.5t-19.5 -48.5t-48.5 -19.5q-28 0 -47.5 20t-19.5 48q0 29 19 48.5t48 19.5zM372 570q-28 0 -48 20t-20 48q0 29 19.5 48.5t48.5 19.5t48.5 -19.5t19.5 -48.5q0 -28 -20 -48t-48 -20zM388 493h103v-493h-103
v62q-51 -71 -152 -71q-86 0 -128.5 54t-42.5 142v306h103v-280q0 -19 1 -33.5t6.5 -34.5t15.5 -32.5t29 -22t45 -9.5q38 0 64 18t38 51t16.5 66t4.5 77v200z" />
    <glyph glyph-name="uni01D6.ss03" horiz-adv-x="568" 
d="M413 851v-61h-273v61h273zM183 570q-28 0 -47.5 20t-19.5 48q0 29 19 48.5t48 19.5t48.5 -19.5t19.5 -48.5t-19.5 -48.5t-48.5 -19.5zM304 638q0 29 19.5 48.5t48.5 19.5t48.5 -19.5t19.5 -48.5q0 -28 -20 -48t-48 -20t-48 20t-20 48zM388 493h103v-493h-103v62
q-51 -71 -152 -71q-86 0 -128.5 54t-42.5 142v306h103v-280q0 -19 1 -33.5t6.5 -34.5t15.5 -32.5t29 -22t45 -9.5q38 0 64 18t38 51t16.5 66t4.5 77v200z" />
    <glyph glyph-name="uni1EE5.ss03" horiz-adv-x="568" 
d="M388 493h103v-493h-103v62q-51 -71 -152 -71q-86 0 -128.5 54t-42.5 142v306h103v-280q0 -19 1 -33.5t6.5 -34.5t15.5 -32.5t29 -22t45 -9.5q38 0 64 18t38 51t16.5 66t4.5 77v200zM283 -48q29 0 48.5 -19t19.5 -48t-19.5 -49t-48.5 -20q-28 0 -47.5 20t-19.5 49t19 48
t48 19z" />
    <glyph glyph-name="uni1EF1.ss03" horiz-adv-x="568" 
d="M494 627h79v-42q0 -115 -82 -149v-436h-103v62q-51 -71 -152 -71q-86 0 -128.5 54t-42.5 142v306h103v-280q0 -19 1 -33.5t6.5 -34.5t15.5 -32.5t29 -22t45 -9.5q38 0 64 18t38 51t16.5 66t4.5 77v200h35q71 0 71 84v50zM283 -48q29 0 48.5 -19t19.5 -48t-19.5 -49
t-48.5 -20q-28 0 -47.5 20t-19.5 49t19 48t48 19z" />
    <glyph glyph-name="wdieresis.ss03" horiz-adv-x="728" 
d="M269 570q-28 0 -47.5 20t-19.5 48q0 29 19 48.5t48 19.5t48.5 -19.5t19.5 -48.5t-19.5 -48.5t-48.5 -19.5zM458 570q-28 0 -48 20t-20 48q0 29 19.5 48.5t48.5 19.5t48.5 -19.5t19.5 -48.5q0 -28 -20 -48t-48 -20zM162 0l-150 493h110l91 -336l106 336h89l105 -335
l93 335h109l-149 -493h-94l-108 348l-109 -348h-93z" />
    <glyph glyph-name="ydieresis.ss03" horiz-adv-x="507" 
d="M159 570q-28 0 -47.5 20t-19.5 48q0 29 19 48.5t48 19.5t48.5 -19.5t19.5 -48.5t-19.5 -48.5t-48.5 -19.5zM348 570q-28 0 -48 20t-20 48q0 29 19.5 48.5t48.5 19.5t48.5 -19.5t19.5 -48.5q0 -28 -20 -48t-48 -20zM115 -204l86 215l-198 482h113l140 -363l134 363h113
l-277 -697h-111z" />
    <glyph glyph-name="uni1EF5.ss03" horiz-adv-x="507" 
d="M115 -204l86 215l-198 482h113l140 -363l134 363h113l-277 -697h-111zM409 -215q-28 0 -47.5 20t-19.5 49q0 28 19 47.5t48 19.5t48.5 -19t19.5 -48t-19.5 -49t-48.5 -20z" />
    <glyph glyph-name="zdotaccent.ss03" horiz-adv-x="467" 
d="M233 570q-28 0 -47.5 20t-19.5 48q0 29 19 48.5t48 19.5t48.5 -19.5t19.5 -48.5t-19.5 -48.5t-48.5 -19.5zM431 493v-76l-265 -330h265v-87h-401v70l275 336h-262v87h388z" />
    <glyph glyph-name="T_h" horiz-adv-x="1048" 
d="M242 0v598h-225v99h641v-266q54 71 149 71q87 0 131 -58t44 -146v-298h-104v282q0 59 -20.5 93t-75.5 34q-61 0 -92.5 -45.5t-31.5 -121.5v-242h-105v598h-203v-598h-108z" />
    <glyph glyph-name="zero.lf" horiz-adv-x="576" 
d="M293 -10q-235 0 -235 358q0 360 228 360q66 0 113.5 -30.5t73 -83.5t37 -114t11.5 -133t-11 -132t-35.5 -112.5t-71 -82.5t-110.5 -30zM291 89q31 0 53.5 15.5t35 38.5t19.5 60t9 69.5t2 76.5q0 58 -4 98t-16 80.5t-38 61t-66 20.5q-33 0 -56 -15.5t-36 -38.5t-20 -60
t-9 -69.5t-2 -77.5q0 -44 2 -75.5t9.5 -69t20.5 -60.5t37.5 -38.5t58.5 -15.5z" />
    <glyph glyph-name="one.lf" horiz-adv-x="378" 
d="M182 697h103v-697h-103v498h-167v89h101q34 0 50 14.5t16 47.5v48z" />
    <glyph glyph-name="two.lf" horiz-adv-x="562" 
d="M212 97h311v-97h-486v87q51 31 90.5 58t92 69.5t87 82t59 90t24.5 99.5q0 56 -29 88.5t-85 32.5q-66 0 -97 -44.5t-34 -113.5l-101 8q0 104 62.5 176.5t171.5 72.5q96 0 155.5 -58.5t59.5 -155.5q0 -114 -81 -217.5t-200 -177.5z" />
    <glyph glyph-name="three.lf" horiz-adv-x="579" 
d="M284 -10q-110 0 -182.5 59t-72.5 167l102 6q0 -63 43 -98t112 -35q64 0 106 31.5t42 92.5q0 30 -12 51.5t-28.5 32.5t-43.5 17.5t-48 8t-50 1.5v83q145 0 145 101q0 49 -31.5 74.5t-80.5 25.5q-55 0 -87.5 -29t-33.5 -82l-101 7q0 93 63 148t157 55q90 0 153.5 -51
t63.5 -136q0 -48 -23 -86t-66 -58q60 -16 93 -62.5t33 -110.5q0 -99 -73 -156t-180 -57z" />
    <glyph glyph-name="four.lf" horiz-adv-x="581" 
d="M452 263h112v-98h-112v-165h-103v165h-333v63l345 469h91v-434zM147 263h202v283z" />
    <glyph glyph-name="five.lf" horiz-adv-x="582" 
d="M305 475q101 0 167 -68.5t66 -165.5q0 -102 -72 -176t-179 -74q-96 0 -164.5 59.5t-82.5 147.5l102 17q7 -53 45.5 -89.5t99.5 -36.5q66 0 104 45t38 107q0 59 -35.5 98.5t-102.5 39.5q-84 0 -131 -72l-98 25l65 365h379v-99h-294l-30 -162q53 39 123 39z" />
    <glyph glyph-name="six.lf" horiz-adv-x="554" 
d="M307 464q97 -4 158 -70.5t61 -163.5q0 -102 -72 -170.5t-176 -68.5q-103 0 -176 68t-73 170q0 66 38 128l209 340h118l-151 -237q35 7 64 4zM278 89q61 0 102 39.5t41 101.5t-41 101t-102 39t-102 -39t-41 -101t41 -101.5t102 -39.5z" />
    <glyph glyph-name="seven.lf" horiz-adv-x="533" 
d="M17 697h501v-57l-319 -640h-118l307 598h-371v99z" />
    <glyph glyph-name="eight.lf" horiz-adv-x="588" 
d="M294 -9q-104 0 -177 55.5t-73 156.5q0 125 110 176q-75 47 -75 138q0 86 64 137.5t152 51.5t151 -52.5t63 -137.5q0 -90 -75 -137q110 -50 110 -176q0 -101 -72.5 -156.5t-177.5 -55.5zM295 408q50 0 81 27.5t31 73.5q0 45 -31.5 72t-80.5 27t-81 -26.5t-32 -71.5
q0 -47 31 -74.5t82 -27.5zM294 89q65 0 106.5 32t41.5 91q0 58 -41 92t-107 34t-106.5 -34t-40.5 -92q0 -59 41.5 -91t105.5 -32z" />
    <glyph glyph-name="nine.lf" horiz-adv-x="554" 
d="M275 706q104 0 176.5 -68t72.5 -170q0 -66 -38 -128l-208 -340h-118l151 237q-35 -7 -64 -4q-97 4 -158 70.5t-61 163.5q0 102 72 170.5t175 68.5zM275 327q61 0 102.5 39t41.5 101t-41 101.5t-103 39.5q-60 0 -101.5 -39.5t-41.5 -101.5t41.5 -101t101.5 -39z" />
    <glyph glyph-name="period.ss03" horiz-adv-x="310" 
d="M155 -9q-28 0 -48 20t-20 48q0 29 19.5 48.5t48.5 19.5t48.5 -19.5t19.5 -48.5t-19.5 -48.5t-48.5 -19.5z" />
    <glyph glyph-name="colon.ss03" horiz-adv-x="303" 
d="M151 332q-28 0 -47.5 20t-19.5 49t19 48t48 19t48.5 -19t19.5 -48t-19.5 -49t-48.5 -20zM151 -9q-28 0 -47.5 20t-19.5 48q0 29 19 48.5t48 19.5t48.5 -19.5t19.5 -48.5t-19.5 -48.5t-48.5 -19.5z" />
    <glyph glyph-name="semicolon.ss03" horiz-adv-x="315" 
d="M180 332q-28 0 -48 20t-20 49q0 28 19.5 47.5t48.5 19.5t48.5 -19.5t19.5 -47.5q0 -29 -19.5 -49t-48.5 -20zM46 -151l75 281h122l-128 -281h-69z" />
    <glyph glyph-name="ellipsis.ss03" horiz-adv-x="671" 
d="M155 -9q-29 0 -48.5 19.5t-19.5 48.5t19.5 48.5t48.5 19.5q28 0 47.5 -19.5t19.5 -48.5t-19.5 -48.5t-47.5 -19.5zM335 -9q-28 0 -48 20t-20 48q0 29 19.5 48.5t48.5 19.5t48.5 -19.5t19.5 -48.5t-19.5 -48.5t-48.5 -19.5zM515 -9q-28 0 -47.5 20t-19.5 48
q0 29 19.5 48.5t47.5 19.5q29 0 48.5 -19.5t19.5 -48.5t-19.5 -48.5t-48.5 -19.5z" />
    <glyph glyph-name="exclam.ss03" horiz-adv-x="306" 
d="M112 206l-12 491h103l-12 -491h-79zM151 -9q-28 0 -48 20t-20 48q0 29 19.5 48.5t48.5 19.5t48.5 -19.5t19.5 -48.5t-19.5 -48.5t-48.5 -19.5z" />
    <glyph glyph-name="exclamdown.ss03" horiz-adv-x="308" 
d="M155 366q-29 0 -48.5 19.5t-19.5 48.5t19.5 48.5t48.5 19.5q28 0 47.5 -20t19.5 -48q0 -29 -19 -48.5t-48 -19.5zM103 -204l12 491h78l12 -491h-102z" />
    <glyph glyph-name="question.ss03" horiz-adv-x="500" 
d="M202 204v76q0 37 12.5 63.5t31.5 40t40.5 27t40.5 24t31.5 31t12.5 49.5q0 52 -34 78.5t-92 26.5q-122 0 -124 -124h-91q0 98 57.5 154t153.5 56q95 0 157.5 -51t62.5 -142q0 -50 -17.5 -85t-42.5 -53t-50.5 -31.5t-43 -28.5t-17.5 -36v-75h-88zM248 -9q-28 0 -47.5 20
t-19.5 48q0 29 19 48.5t48 19.5t48.5 -19.5t19.5 -48.5t-19.5 -48.5t-48.5 -19.5z" />
    <glyph glyph-name="questiondown.ss03" horiz-adv-x="500" 
d="M252 366q-29 0 -48.5 19.5t-19.5 48.5t19.5 48.5t48.5 19.5q28 0 47.5 -20t19.5 -48q0 -29 -19 -48.5t-48 -19.5zM259 -213q-95 0 -157.5 51t-62.5 142q0 50 17.5 85t43 53t50.5 31.5t42.5 28.5t17.5 36v75h88v-76q0 -37 -12.5 -63.5t-31.5 -40t-40.5 -27t-40.5 -24
t-31.5 -31t-12.5 -49.5q0 -52 34 -78.5t92 -26.5q122 0 124 124h91q0 -98 -57.5 -154t-153.5 -56z" />
    <glyph glyph-name="twodotenleader.ss03" horiz-adv-x="491" 
d="M155 -9q-29 0 -48.5 19.5t-19.5 48.5t19.5 48.5t48.5 19.5t48 -19.5t19 -48.5t-19.5 -48.5t-47.5 -19.5zM335 -9q-28 0 -47.5 20t-19.5 48q0 29 19 48.5t48 19.5t48.5 -19.5t19.5 -48.5t-19.5 -48.5t-48.5 -19.5z" />
    <glyph glyph-name="divide.ss03" horiz-adv-x="503" 
d="M252 408q-28 0 -47.5 20t-19.5 49t19.5 48.5t47.5 19.5q29 0 48.5 -19.5t19.5 -48.5t-19.5 -49t-48.5 -20zM51 268v86h401v-86h-401zM252 76q-28 0 -47.5 20t-19.5 49t19.5 48.5t47.5 19.5q29 0 48.5 -19.5t19.5 -48.5t-19.5 -49t-48.5 -20z" />
    <glyph glyph-name="uni030C.alt" 
d="M-192 478l57 219h108l-104 -219h-61z" />
    <glyph glyph-name="uni030A.case" 
d="M-157 531q-45 0 -76.5 32t-31.5 76q0 45 32 77t76 32t76.5 -32t32.5 -77q0 -44 -32 -76t-77 -32zM-157 587q23 0 37.5 15t14.5 38t-14 37t-38 14q-23 0 -37.5 -14t-14.5 -37q0 -22 15 -37.5t37 -15.5z" />
    <glyph glyph-name="uni0337.case" 
d="M-316 144v107l294 232v-105z" />
    <glyph glyph-name="uni0338.case" 
d="M-555 0l484 697h83l-484 -697h-83z" />
    <glyph glyph-name="uni0308.ss03" 
d="M-313 570q-28 0 -47.5 20t-19.5 48q0 29 19 48.5t48 19.5t48.5 -19.5t19.5 -48.5t-19.5 -48.5t-48.5 -19.5zM-124 570q-28 0 -48 20t-20 48q0 29 19.5 48.5t48.5 19.5t48.5 -19.5t19.5 -48.5q0 -28 -20 -48t-48 -20z" />
    <glyph glyph-name="uni0307.ss03" 
d="M-125 570q-28 0 -47.5 20t-19.5 48q0 29 19 48.5t48 19.5t48.5 -19.5t19.5 -48.5t-19.5 -48.5t-48.5 -19.5z" />
    <glyph glyph-name="dotbelowcomb.ss03" 
d="M-125 -184q-28 0 -47.5 20t-19.5 49t19 48t48 19t48.5 -19t19.5 -48t-19.5 -49t-48.5 -20z" />
    <glyph glyph-name="dieresis.ss03" horiz-adv-x="436" 
d="M123 570q-28 0 -47.5 20t-19.5 48q0 29 19 48.5t48 19.5t48.5 -19.5t19.5 -48.5t-19.5 -48.5t-48.5 -19.5zM312 570q-28 0 -48 20t-20 48q0 29 19.5 48.5t48.5 19.5t48.5 -19.5t19.5 -48.5q0 -28 -20 -48t-48 -20z" />
    <glyph glyph-name="dotaccent.ss03" horiz-adv-x="248" 
d="M123 570q-28 0 -47.5 20t-19.5 48q0 29 19 48.5t48 19.5t48.5 -19.5t19.5 -48.5t-19.5 -48.5t-48.5 -19.5z" />
    <glyph glyph-name="uni03060301" 
d="M-242 759l110 142h111l-145 -142h-76zM-204 565q-154 0 -154 132h73q0 -35 22.5 -53.5t58.5 -18.5q37 0 59 19t22 53h73q0 -132 -154 -132z" />
    <glyph glyph-name="uni03060300" 
d="M-210 759l-136 142h110l104 -142h-78zM-171 565q-154 0 -154 132h73q0 -35 22.5 -53.5t58.5 -18.5q37 0 59 19t22 53h73q0 -132 -154 -132z" />
    <glyph glyph-name="uni03060309" 
d="M-194 736l-13 46q20 3 32.5 6t23.5 12t11 24q0 41 -80 41h-15v57h15q66 0 106 -25.5t40 -71.5q0 -20 -8.5 -35t-18.5 -23.5t-30 -15.5t-30.5 -9t-32.5 -6zM-185 565q-155 0 -155 132h74q0 -35 22 -53.5t59 -18.5t59 19t22 53h73q0 -132 -154 -132z" />
    <glyph glyph-name="uni03060303" 
d="M-148 765q-27 0 -48 11.5t-32 26t-24.5 26t-27.5 11.5q-38 0 -38 -70h-59q0 63 27 98.5t74 35.5q30 0 53.5 -19t41 -37.5t34.5 -18.5q15 0 25 19t10 53h62q0 -65 -26.5 -100.5t-71.5 -35.5zM-213 565q-154 0 -154 132h73q0 -35 22.5 -53.5t58.5 -18.5q37 0 59 19t22 53
h73q0 -132 -154 -132z" />
    <glyph glyph-name="uni03020301" 
d="M-229 744l110 141h110l-144 -141h-76zM-345 543l154 169l153 -169h-81l-72 81l-73 -81h-81z" />
    <glyph glyph-name="uni03020300" 
d="M-188 744l-136 141h110l104 -141h-78zM-303 543l154 169l154 -169h-81l-73 81l-72 -81h-82z" />
    <glyph glyph-name="uni03020309" 
d="M-176 720l-14 46q23 3 34 6t22.5 12t11.5 24q0 41 -80 41h-15v57h15q66 0 106 -25.5t40 -71.5q0 -19 -8.5 -34.5t-18.5 -23.5t-29.5 -15t-31 -9.5t-32.5 -6.5zM-321 543l153 169l154 -169h-81l-73 81l-72 -81h-81z" />
    <glyph glyph-name="uni03020303" 
d="M-129 749q-27 0 -48 12t-31.5 26t-24 26t-27.5 12q-38 0 -38 -71h-60q0 64 27 99.5t75 35.5q24 0 44 -12t31.5 -26t25.5 -26t27 -12q15 0 25 19.5t10 52.5h63q0 -64 -26.5 -100t-72.5 -36zM-347 543l153 169l154 -169h-81l-73 81l-72 -81h-81z" />
    </font>
</defs>
</svg>
